%TF.GenerationSoftware,KiCad,Pcbnew,8.0.1*%
%TF.CreationDate,2024-04-26T21:38:42+06:30*%
%TF.ProjectId,Project,50726f6a-6563-4742-9e6b-696361645f70,1.0*%
%TF.SameCoordinates,PX60e4b00PY853a720*%
%TF.FileFunction,Paste,Top*%
%TF.FilePolarity,Positive*%
%FSLAX46Y46*%
G04 Gerber Fmt 4.6, Leading zero omitted, Abs format (unit mm)*
G04 Created by KiCad (PCBNEW 8.0.1) date 2024-04-26 21:38:42*
%MOMM*%
%LPD*%
G01*
G04 APERTURE LIST*
G04 Aperture macros list*
%AMRoundRect*
0 Rectangle with rounded corners*
0 $1 Rounding radius*
0 $2 $3 $4 $5 $6 $7 $8 $9 X,Y pos of 4 corners*
0 Add a 4 corners polygon primitive as box body*
4,1,4,$2,$3,$4,$5,$6,$7,$8,$9,$2,$3,0*
0 Add four circle primitives for the rounded corners*
1,1,$1+$1,$2,$3*
1,1,$1+$1,$4,$5*
1,1,$1+$1,$6,$7*
1,1,$1+$1,$8,$9*
0 Add four rect primitives between the rounded corners*
20,1,$1+$1,$2,$3,$4,$5,0*
20,1,$1+$1,$4,$5,$6,$7,0*
20,1,$1+$1,$6,$7,$8,$9,0*
20,1,$1+$1,$8,$9,$2,$3,0*%
G04 Aperture macros list end*
%ADD10RoundRect,0.150000X-0.587500X-0.150000X0.587500X-0.150000X0.587500X0.150000X-0.587500X0.150000X0*%
%ADD11R,1.200000X1.400000*%
%ADD12RoundRect,0.200000X0.275000X-0.200000X0.275000X0.200000X-0.275000X0.200000X-0.275000X-0.200000X0*%
%ADD13RoundRect,0.225000X-0.250000X0.225000X-0.250000X-0.225000X0.250000X-0.225000X0.250000X0.225000X0*%
%ADD14RoundRect,0.200000X-0.200000X-0.275000X0.200000X-0.275000X0.200000X0.275000X-0.200000X0.275000X0*%
%ADD15RoundRect,0.250000X-1.000000X-0.900000X1.000000X-0.900000X1.000000X0.900000X-1.000000X0.900000X0*%
%ADD16RoundRect,0.200000X-0.275000X0.200000X-0.275000X-0.200000X0.275000X-0.200000X0.275000X0.200000X0*%
%ADD17RoundRect,0.140000X0.140000X0.170000X-0.140000X0.170000X-0.140000X-0.170000X0.140000X-0.170000X0*%
%ADD18RoundRect,0.225000X0.225000X0.250000X-0.225000X0.250000X-0.225000X-0.250000X0.225000X-0.250000X0*%
%ADD19RoundRect,0.150000X0.150000X-0.875000X0.150000X0.875000X-0.150000X0.875000X-0.150000X-0.875000X0*%
%ADD20RoundRect,0.250000X-0.475000X0.250000X-0.475000X-0.250000X0.475000X-0.250000X0.475000X0.250000X0*%
%ADD21R,0.550000X1.600000*%
%ADD22R,1.600000X0.550000*%
%ADD23RoundRect,0.375000X0.375000X-0.625000X0.375000X0.625000X-0.375000X0.625000X-0.375000X-0.625000X0*%
%ADD24RoundRect,0.500000X1.400000X-0.500000X1.400000X0.500000X-1.400000X0.500000X-1.400000X-0.500000X0*%
%ADD25RoundRect,0.225000X-0.225000X-0.250000X0.225000X-0.250000X0.225000X0.250000X-0.225000X0.250000X0*%
%ADD26RoundRect,0.140000X-0.140000X-0.170000X0.140000X-0.170000X0.140000X0.170000X-0.140000X0.170000X0*%
%ADD27RoundRect,0.150000X-0.875000X-0.150000X0.875000X-0.150000X0.875000X0.150000X-0.875000X0.150000X0*%
G04 APERTURE END LIST*
D10*
%TO.C,Q3*%
X56466500Y31707644D03*
X56466500Y29807644D03*
X58341500Y30757644D03*
%TD*%
D11*
%TO.C,Y1*%
X22070800Y18389600D03*
X22070800Y20589600D03*
X20370800Y20589600D03*
X20370800Y18389600D03*
%TD*%
D12*
%TO.C,R4*%
X10795000Y43879000D03*
X10795000Y45529000D03*
%TD*%
%TO.C,R3*%
X8255000Y43879000D03*
X8255000Y45529000D03*
%TD*%
%TO.C,R13*%
X33655000Y43879000D03*
X33655000Y45529000D03*
%TD*%
%TO.C,R10*%
X26035000Y43879000D03*
X26035000Y45529000D03*
%TD*%
D13*
%TO.C,C8*%
X23050500Y39687800D03*
X23050500Y38137800D03*
%TD*%
D12*
%TO.C,R12*%
X31115000Y43879000D03*
X31115000Y45529000D03*
%TD*%
%TO.C,R5*%
X13335000Y43879000D03*
X13335000Y45529000D03*
%TD*%
%TO.C,R33*%
X18680800Y20290200D03*
X18680800Y21940200D03*
%TD*%
%TO.C,R24*%
X61595000Y43879000D03*
X61595000Y45529000D03*
%TD*%
D14*
%TO.C,R31*%
X53093000Y16509932D03*
X54743000Y16509932D03*
%TD*%
D12*
%TO.C,R19*%
X48895000Y43879000D03*
X48895000Y45529000D03*
%TD*%
D14*
%TO.C,R32*%
X53093000Y12710500D03*
X54743000Y12710500D03*
%TD*%
D13*
%TO.C,C10*%
X29210000Y6350000D03*
X29210000Y4800000D03*
%TD*%
D14*
%TO.C,R25*%
X53023000Y39306500D03*
X54673000Y39306500D03*
%TD*%
D15*
%TO.C,D1*%
X10092800Y26670000D03*
X14392800Y26670000D03*
%TD*%
D14*
%TO.C,R26*%
X53023000Y35507072D03*
X54673000Y35507072D03*
%TD*%
D10*
%TO.C,Q4*%
X56466500Y27908216D03*
X56466500Y26008216D03*
X58341500Y26958216D03*
%TD*%
%TO.C,Q1*%
X56466500Y39306500D03*
X56466500Y37406500D03*
X58341500Y38356500D03*
%TD*%
D16*
%TO.C,R34*%
X29210000Y9689000D03*
X29210000Y8039000D03*
%TD*%
D12*
%TO.C,R16*%
X41275000Y43879000D03*
X41275000Y45529000D03*
%TD*%
D17*
%TO.C,C5*%
X20888000Y16797200D03*
X19928000Y16797200D03*
%TD*%
D10*
%TO.C,Q6*%
X56466500Y20309360D03*
X56466500Y18409360D03*
X58341500Y19359360D03*
%TD*%
D12*
%TO.C,R7*%
X18415000Y43879000D03*
X18415000Y45529000D03*
%TD*%
%TO.C,R11*%
X28575000Y43879000D03*
X28575000Y45529000D03*
%TD*%
%TO.C,R18*%
X46355000Y43879000D03*
X46355000Y45529000D03*
%TD*%
%TO.C,R6*%
X15875000Y43879000D03*
X15875000Y45529000D03*
%TD*%
%TO.C,R1*%
X3175000Y43879000D03*
X3175000Y45529000D03*
%TD*%
%TO.C,R8*%
X20955000Y43879000D03*
X20955000Y45529000D03*
%TD*%
%TO.C,R21*%
X53975000Y43879000D03*
X53975000Y45529000D03*
%TD*%
D10*
%TO.C,Q8*%
X56466500Y12710500D03*
X56466500Y10810500D03*
X58341500Y11760500D03*
%TD*%
D18*
%TO.C,C3*%
X23228600Y13868400D03*
X21678600Y13868400D03*
%TD*%
D12*
%TO.C,R17*%
X43815000Y43879000D03*
X43815000Y45529000D03*
%TD*%
D14*
%TO.C,R28*%
X53093000Y27908216D03*
X54743000Y27908216D03*
%TD*%
D12*
%TO.C,R23*%
X59055000Y43879000D03*
X59055000Y45529000D03*
%TD*%
D10*
%TO.C,Q5*%
X56466500Y24108788D03*
X56466500Y22208788D03*
X58341500Y23158788D03*
%TD*%
D13*
%TO.C,C9*%
X35560000Y39687800D03*
X35560000Y38137800D03*
%TD*%
D14*
%TO.C,R29*%
X53093000Y24108788D03*
X54743000Y24108788D03*
%TD*%
%TO.C,R30*%
X53093000Y20309360D03*
X54743000Y20309360D03*
%TD*%
D12*
%TO.C,R14*%
X36195000Y43879000D03*
X36195000Y45529000D03*
%TD*%
%TO.C,R20*%
X51435000Y43879000D03*
X51435000Y45529000D03*
%TD*%
%TO.C,R2*%
X5715000Y43879000D03*
X5715000Y45529000D03*
%TD*%
D19*
%TO.C,U4*%
X24841200Y30387800D03*
X26111200Y30387800D03*
X27381200Y30387800D03*
X28651200Y30387800D03*
X29921200Y30387800D03*
X31191200Y30387800D03*
X32461200Y30387800D03*
X33731200Y30387800D03*
X33731200Y39687800D03*
X32461200Y39687800D03*
X31191200Y39687800D03*
X29921200Y39687800D03*
X28651200Y39687800D03*
X27381200Y39687800D03*
X26111200Y39687800D03*
X24841200Y39687800D03*
%TD*%
D10*
%TO.C,Q2*%
X56466500Y35507072D03*
X56466500Y33607072D03*
X58341500Y34557072D03*
%TD*%
D20*
%TO.C,C1*%
X7366000Y27518400D03*
X7366000Y25618400D03*
%TD*%
%TO.C,C2*%
X5080000Y27518400D03*
X5080000Y25618400D03*
%TD*%
D12*
%TO.C,R22*%
X56515000Y43879000D03*
X56515000Y45529000D03*
%TD*%
D21*
%TO.C,U1*%
X25660000Y11870000D03*
X24860000Y11870000D03*
X24060000Y11870000D03*
X23260000Y11870000D03*
X22460000Y11870000D03*
X21660000Y11870000D03*
X20860000Y11870000D03*
X20060000Y11870000D03*
D22*
X18610000Y10420000D03*
X18610000Y9620000D03*
X18610000Y8820000D03*
X18610000Y8020000D03*
X18610000Y7220000D03*
X18610000Y6420000D03*
X18610000Y5620000D03*
X18610000Y4820000D03*
D21*
X20060000Y3370000D03*
X20860000Y3370000D03*
X21660000Y3370000D03*
X22460000Y3370000D03*
X23260000Y3370000D03*
X24060000Y3370000D03*
X24860000Y3370000D03*
X25660000Y3370000D03*
D22*
X27110000Y4820000D03*
X27110000Y5620000D03*
X27110000Y6420000D03*
X27110000Y7220000D03*
X27110000Y8020000D03*
X27110000Y8820000D03*
X27110000Y9620000D03*
X27110000Y10420000D03*
%TD*%
D23*
%TO.C,U6*%
X2780000Y30225600D03*
X5080000Y30225600D03*
D24*
X5080000Y36525600D03*
D23*
X7380000Y30225600D03*
%TD*%
D12*
%TO.C,R9*%
X23495000Y43879000D03*
X23495000Y45529000D03*
%TD*%
D25*
%TO.C,C4*%
X20828000Y1524000D03*
X22378000Y1524000D03*
%TD*%
D26*
%TO.C,C6*%
X19978800Y22131200D03*
X20938800Y22131200D03*
%TD*%
D19*
%TO.C,U3*%
X12319000Y30387800D03*
X13589000Y30387800D03*
X14859000Y30387800D03*
X16129000Y30387800D03*
X17399000Y30387800D03*
X18669000Y30387800D03*
X19939000Y30387800D03*
X21209000Y30387800D03*
X21209000Y39687800D03*
X19939000Y39687800D03*
X18669000Y39687800D03*
X17399000Y39687800D03*
X16129000Y39687800D03*
X14859000Y39687800D03*
X13589000Y39687800D03*
X12319000Y39687800D03*
%TD*%
D12*
%TO.C,R15*%
X38735000Y43879000D03*
X38735000Y45529000D03*
%TD*%
D14*
%TO.C,R27*%
X53023000Y31707644D03*
X54673000Y31707644D03*
%TD*%
D25*
%TO.C,C11*%
X43512000Y26416000D03*
X45062000Y26416000D03*
%TD*%
D19*
%TO.C,U5*%
X37363400Y30387800D03*
X38633400Y30387800D03*
X39903400Y30387800D03*
X41173400Y30387800D03*
X42443400Y30387800D03*
X43713400Y30387800D03*
X44983400Y30387800D03*
X46253400Y30387800D03*
X46253400Y39687800D03*
X44983400Y39687800D03*
X43713400Y39687800D03*
X42443400Y39687800D03*
X41173400Y39687800D03*
X39903400Y39687800D03*
X38633400Y39687800D03*
X37363400Y39687800D03*
%TD*%
D27*
%TO.C,U2*%
X34212000Y24625000D03*
X34212000Y23355000D03*
X34212000Y22085000D03*
X34212000Y20815000D03*
X34212000Y19545000D03*
X34212000Y18275000D03*
X34212000Y17005000D03*
X34212000Y15735000D03*
X43512000Y15735000D03*
X43512000Y17005000D03*
X43512000Y18275000D03*
X43512000Y19545000D03*
X43512000Y20815000D03*
X43512000Y22085000D03*
X43512000Y23355000D03*
X43512000Y24625000D03*
%TD*%
D13*
%TO.C,C7*%
X10541000Y39687800D03*
X10541000Y38137800D03*
%TD*%
D10*
%TO.C,Q7*%
X56466500Y16509932D03*
X56466500Y14609932D03*
X58341500Y15559932D03*
%TD*%
M02*
