%TF.GenerationSoftware,KiCad,Pcbnew,8.0.1*%
%TF.CreationDate,2024-04-26T21:38:42+06:30*%
%TF.ProjectId,Project,50726f6a-6563-4742-9e6b-696361645f70,1.0*%
%TF.SameCoordinates,PX60e4b00PY853a720*%
%TF.FileFunction,Legend,Top*%
%TF.FilePolarity,Positive*%
%FSLAX46Y46*%
G04 Gerber Fmt 4.6, Leading zero omitted, Abs format (unit mm)*
G04 Created by KiCad (PCBNEW 8.0.1) date 2024-04-26 21:38:42*
%MOMM*%
%LPD*%
G01*
G04 APERTURE LIST*
%ADD10C,0.200000*%
%ADD11C,0.150000*%
%ADD12C,0.120000*%
G04 APERTURE END LIST*
D10*
X61520101Y36200781D02*
X61186768Y36676972D01*
X60948673Y36200781D02*
X60948673Y37200781D01*
X60948673Y37200781D02*
X61329625Y37200781D01*
X61329625Y37200781D02*
X61424863Y37153162D01*
X61424863Y37153162D02*
X61472482Y37105543D01*
X61472482Y37105543D02*
X61520101Y37010305D01*
X61520101Y37010305D02*
X61520101Y36867448D01*
X61520101Y36867448D02*
X61472482Y36772210D01*
X61472482Y36772210D02*
X61424863Y36724591D01*
X61424863Y36724591D02*
X61329625Y36676972D01*
X61329625Y36676972D02*
X60948673Y36676972D01*
X62091530Y36200781D02*
X61996292Y36248400D01*
X61996292Y36248400D02*
X61948673Y36296020D01*
X61948673Y36296020D02*
X61901054Y36391258D01*
X61901054Y36391258D02*
X61901054Y36676972D01*
X61901054Y36676972D02*
X61948673Y36772210D01*
X61948673Y36772210D02*
X61996292Y36819829D01*
X61996292Y36819829D02*
X62091530Y36867448D01*
X62091530Y36867448D02*
X62234387Y36867448D01*
X62234387Y36867448D02*
X62329625Y36819829D01*
X62329625Y36819829D02*
X62377244Y36772210D01*
X62377244Y36772210D02*
X62424863Y36676972D01*
X62424863Y36676972D02*
X62424863Y36391258D01*
X62424863Y36391258D02*
X62377244Y36296020D01*
X62377244Y36296020D02*
X62329625Y36248400D01*
X62329625Y36248400D02*
X62234387Y36200781D01*
X62234387Y36200781D02*
X62091530Y36200781D01*
X62758197Y36867448D02*
X62948673Y36200781D01*
X62948673Y36200781D02*
X63139149Y36676972D01*
X63139149Y36676972D02*
X63329625Y36200781D01*
X63329625Y36200781D02*
X63520101Y36867448D01*
X63853435Y36248400D02*
X63948673Y36200781D01*
X63948673Y36200781D02*
X64139149Y36200781D01*
X64139149Y36200781D02*
X64234387Y36248400D01*
X64234387Y36248400D02*
X64282006Y36343639D01*
X64282006Y36343639D02*
X64282006Y36391258D01*
X64282006Y36391258D02*
X64234387Y36486496D01*
X64234387Y36486496D02*
X64139149Y36534115D01*
X64139149Y36534115D02*
X63996292Y36534115D01*
X63996292Y36534115D02*
X63901054Y36581734D01*
X63901054Y36581734D02*
X63853435Y36676972D01*
X63853435Y36676972D02*
X63853435Y36724591D01*
X63853435Y36724591D02*
X63901054Y36819829D01*
X63901054Y36819829D02*
X63996292Y36867448D01*
X63996292Y36867448D02*
X64139149Y36867448D01*
X64139149Y36867448D02*
X64234387Y36819829D01*
X13456219Y3179483D02*
X13456219Y2608055D01*
X13456219Y2893769D02*
X12456219Y2893769D01*
X12456219Y2893769D02*
X12599076Y2798531D01*
X12599076Y2798531D02*
X12694314Y2703293D01*
X12694314Y2703293D02*
X12741933Y2608055D01*
X54309261Y29170543D02*
X54214023Y29218162D01*
X54214023Y29218162D02*
X54118785Y29313400D01*
X54118785Y29313400D02*
X53975928Y29456258D01*
X53975928Y29456258D02*
X53880690Y29503877D01*
X53880690Y29503877D02*
X53785452Y29503877D01*
X53833071Y29265781D02*
X53737833Y29313400D01*
X53737833Y29313400D02*
X53642595Y29408639D01*
X53642595Y29408639D02*
X53594976Y29599115D01*
X53594976Y29599115D02*
X53594976Y29932448D01*
X53594976Y29932448D02*
X53642595Y30122924D01*
X53642595Y30122924D02*
X53737833Y30218162D01*
X53737833Y30218162D02*
X53833071Y30265781D01*
X53833071Y30265781D02*
X54023547Y30265781D01*
X54023547Y30265781D02*
X54118785Y30218162D01*
X54118785Y30218162D02*
X54214023Y30122924D01*
X54214023Y30122924D02*
X54261642Y29932448D01*
X54261642Y29932448D02*
X54261642Y29599115D01*
X54261642Y29599115D02*
X54214023Y29408639D01*
X54214023Y29408639D02*
X54118785Y29313400D01*
X54118785Y29313400D02*
X54023547Y29265781D01*
X54023547Y29265781D02*
X53833071Y29265781D01*
X54594976Y30265781D02*
X55214023Y30265781D01*
X55214023Y30265781D02*
X54880690Y29884829D01*
X54880690Y29884829D02*
X55023547Y29884829D01*
X55023547Y29884829D02*
X55118785Y29837210D01*
X55118785Y29837210D02*
X55166404Y29789591D01*
X55166404Y29789591D02*
X55214023Y29694353D01*
X55214023Y29694353D02*
X55214023Y29456258D01*
X55214023Y29456258D02*
X55166404Y29361020D01*
X55166404Y29361020D02*
X55118785Y29313400D01*
X55118785Y29313400D02*
X55023547Y29265781D01*
X55023547Y29265781D02*
X54737833Y29265781D01*
X54737833Y29265781D02*
X54642595Y29313400D01*
X54642595Y29313400D02*
X54594976Y29361020D01*
D11*
X23637828Y19013410D02*
X24114019Y19013410D01*
X23114019Y18680077D02*
X23637828Y19013410D01*
X23637828Y19013410D02*
X23114019Y19346743D01*
X24114019Y20203886D02*
X24114019Y19632458D01*
X24114019Y19918172D02*
X23114019Y19918172D01*
X23114019Y19918172D02*
X23256876Y19822934D01*
X23256876Y19822934D02*
X23352114Y19727696D01*
X23352114Y19727696D02*
X23399733Y19632458D01*
D10*
X23407480Y36231534D02*
X23455100Y36183915D01*
X23455100Y36183915D02*
X23502719Y36041058D01*
X23502719Y36041058D02*
X23502719Y35945820D01*
X23502719Y35945820D02*
X23455100Y35802963D01*
X23455100Y35802963D02*
X23359861Y35707725D01*
X23359861Y35707725D02*
X23264623Y35660106D01*
X23264623Y35660106D02*
X23074147Y35612487D01*
X23074147Y35612487D02*
X22931290Y35612487D01*
X22931290Y35612487D02*
X22740814Y35660106D01*
X22740814Y35660106D02*
X22645576Y35707725D01*
X22645576Y35707725D02*
X22550338Y35802963D01*
X22550338Y35802963D02*
X22502719Y35945820D01*
X22502719Y35945820D02*
X22502719Y36041058D01*
X22502719Y36041058D02*
X22550338Y36183915D01*
X22550338Y36183915D02*
X22597957Y36231534D01*
X22931290Y36802963D02*
X22883671Y36707725D01*
X22883671Y36707725D02*
X22836052Y36660106D01*
X22836052Y36660106D02*
X22740814Y36612487D01*
X22740814Y36612487D02*
X22693195Y36612487D01*
X22693195Y36612487D02*
X22597957Y36660106D01*
X22597957Y36660106D02*
X22550338Y36707725D01*
X22550338Y36707725D02*
X22502719Y36802963D01*
X22502719Y36802963D02*
X22502719Y36993439D01*
X22502719Y36993439D02*
X22550338Y37088677D01*
X22550338Y37088677D02*
X22597957Y37136296D01*
X22597957Y37136296D02*
X22693195Y37183915D01*
X22693195Y37183915D02*
X22740814Y37183915D01*
X22740814Y37183915D02*
X22836052Y37136296D01*
X22836052Y37136296D02*
X22883671Y37088677D01*
X22883671Y37088677D02*
X22931290Y36993439D01*
X22931290Y36993439D02*
X22931290Y36802963D01*
X22931290Y36802963D02*
X22978909Y36707725D01*
X22978909Y36707725D02*
X23026528Y36660106D01*
X23026528Y36660106D02*
X23121766Y36612487D01*
X23121766Y36612487D02*
X23312242Y36612487D01*
X23312242Y36612487D02*
X23407480Y36660106D01*
X23407480Y36660106D02*
X23455100Y36707725D01*
X23455100Y36707725D02*
X23502719Y36802963D01*
X23502719Y36802963D02*
X23502719Y36993439D01*
X23502719Y36993439D02*
X23455100Y37088677D01*
X23455100Y37088677D02*
X23407480Y37136296D01*
X23407480Y37136296D02*
X23312242Y37183915D01*
X23312242Y37183915D02*
X23121766Y37183915D01*
X23121766Y37183915D02*
X23026528Y37136296D01*
X23026528Y37136296D02*
X22978909Y37088677D01*
X22978909Y37088677D02*
X22931290Y36993439D01*
D11*
X19084819Y17170343D02*
X18608628Y16837010D01*
X19084819Y16598915D02*
X18084819Y16598915D01*
X18084819Y16598915D02*
X18084819Y16979867D01*
X18084819Y16979867D02*
X18132438Y17075105D01*
X18132438Y17075105D02*
X18180057Y17122724D01*
X18180057Y17122724D02*
X18275295Y17170343D01*
X18275295Y17170343D02*
X18418152Y17170343D01*
X18418152Y17170343D02*
X18513390Y17122724D01*
X18513390Y17122724D02*
X18561009Y17075105D01*
X18561009Y17075105D02*
X18608628Y16979867D01*
X18608628Y16979867D02*
X18608628Y16598915D01*
X18084819Y17503677D02*
X18084819Y18122724D01*
X18084819Y18122724D02*
X18465771Y17789391D01*
X18465771Y17789391D02*
X18465771Y17932248D01*
X18465771Y17932248D02*
X18513390Y18027486D01*
X18513390Y18027486D02*
X18561009Y18075105D01*
X18561009Y18075105D02*
X18656247Y18122724D01*
X18656247Y18122724D02*
X18894342Y18122724D01*
X18894342Y18122724D02*
X18989580Y18075105D01*
X18989580Y18075105D02*
X19037200Y18027486D01*
X19037200Y18027486D02*
X19084819Y17932248D01*
X19084819Y17932248D02*
X19084819Y17646534D01*
X19084819Y17646534D02*
X19037200Y17551296D01*
X19037200Y17551296D02*
X18989580Y17503677D01*
X18084819Y18456058D02*
X18084819Y19075105D01*
X18084819Y19075105D02*
X18465771Y18741772D01*
X18465771Y18741772D02*
X18465771Y18884629D01*
X18465771Y18884629D02*
X18513390Y18979867D01*
X18513390Y18979867D02*
X18561009Y19027486D01*
X18561009Y19027486D02*
X18656247Y19075105D01*
X18656247Y19075105D02*
X18894342Y19075105D01*
X18894342Y19075105D02*
X18989580Y19027486D01*
X18989580Y19027486D02*
X19037200Y18979867D01*
X19037200Y18979867D02*
X19084819Y18884629D01*
X19084819Y18884629D02*
X19084819Y18598915D01*
X19084819Y18598915D02*
X19037200Y18503677D01*
X19037200Y18503677D02*
X18989580Y18456058D01*
D10*
X31090980Y4932143D02*
X31138600Y4884524D01*
X31138600Y4884524D02*
X31186219Y4741667D01*
X31186219Y4741667D02*
X31186219Y4646429D01*
X31186219Y4646429D02*
X31138600Y4503572D01*
X31138600Y4503572D02*
X31043361Y4408334D01*
X31043361Y4408334D02*
X30948123Y4360715D01*
X30948123Y4360715D02*
X30757647Y4313096D01*
X30757647Y4313096D02*
X30614790Y4313096D01*
X30614790Y4313096D02*
X30424314Y4360715D01*
X30424314Y4360715D02*
X30329076Y4408334D01*
X30329076Y4408334D02*
X30233838Y4503572D01*
X30233838Y4503572D02*
X30186219Y4646429D01*
X30186219Y4646429D02*
X30186219Y4741667D01*
X30186219Y4741667D02*
X30233838Y4884524D01*
X30233838Y4884524D02*
X30281457Y4932143D01*
X31186219Y5884524D02*
X31186219Y5313096D01*
X31186219Y5598810D02*
X30186219Y5598810D01*
X30186219Y5598810D02*
X30329076Y5503572D01*
X30329076Y5503572D02*
X30424314Y5408334D01*
X30424314Y5408334D02*
X30471933Y5313096D01*
X30186219Y6503572D02*
X30186219Y6598810D01*
X30186219Y6598810D02*
X30233838Y6694048D01*
X30233838Y6694048D02*
X30281457Y6741667D01*
X30281457Y6741667D02*
X30376695Y6789286D01*
X30376695Y6789286D02*
X30567171Y6836905D01*
X30567171Y6836905D02*
X30805266Y6836905D01*
X30805266Y6836905D02*
X30995742Y6789286D01*
X30995742Y6789286D02*
X31090980Y6741667D01*
X31090980Y6741667D02*
X31138600Y6694048D01*
X31138600Y6694048D02*
X31186219Y6598810D01*
X31186219Y6598810D02*
X31186219Y6503572D01*
X31186219Y6503572D02*
X31138600Y6408334D01*
X31138600Y6408334D02*
X31090980Y6360715D01*
X31090980Y6360715D02*
X30995742Y6313096D01*
X30995742Y6313096D02*
X30805266Y6265477D01*
X30805266Y6265477D02*
X30567171Y6265477D01*
X30567171Y6265477D02*
X30376695Y6313096D01*
X30376695Y6313096D02*
X30281457Y6360715D01*
X30281457Y6360715D02*
X30233838Y6408334D01*
X30233838Y6408334D02*
X30186219Y6503572D01*
D11*
X16381505Y26418381D02*
X16381505Y27418381D01*
X16381505Y27418381D02*
X16619600Y27418381D01*
X16619600Y27418381D02*
X16762457Y27370762D01*
X16762457Y27370762D02*
X16857695Y27275524D01*
X16857695Y27275524D02*
X16905314Y27180286D01*
X16905314Y27180286D02*
X16952933Y26989810D01*
X16952933Y26989810D02*
X16952933Y26846953D01*
X16952933Y26846953D02*
X16905314Y26656477D01*
X16905314Y26656477D02*
X16857695Y26561239D01*
X16857695Y26561239D02*
X16762457Y26466000D01*
X16762457Y26466000D02*
X16619600Y26418381D01*
X16619600Y26418381D02*
X16381505Y26418381D01*
X17905314Y26418381D02*
X17333886Y26418381D01*
X17619600Y26418381D02*
X17619600Y27418381D01*
X17619600Y27418381D02*
X17524362Y27275524D01*
X17524362Y27275524D02*
X17429124Y27180286D01*
X17429124Y27180286D02*
X17333886Y27132667D01*
D10*
X54309261Y25360543D02*
X54214023Y25408162D01*
X54214023Y25408162D02*
X54118785Y25503400D01*
X54118785Y25503400D02*
X53975928Y25646258D01*
X53975928Y25646258D02*
X53880690Y25693877D01*
X53880690Y25693877D02*
X53785452Y25693877D01*
X53833071Y25455781D02*
X53737833Y25503400D01*
X53737833Y25503400D02*
X53642595Y25598639D01*
X53642595Y25598639D02*
X53594976Y25789115D01*
X53594976Y25789115D02*
X53594976Y26122448D01*
X53594976Y26122448D02*
X53642595Y26312924D01*
X53642595Y26312924D02*
X53737833Y26408162D01*
X53737833Y26408162D02*
X53833071Y26455781D01*
X53833071Y26455781D02*
X54023547Y26455781D01*
X54023547Y26455781D02*
X54118785Y26408162D01*
X54118785Y26408162D02*
X54214023Y26312924D01*
X54214023Y26312924D02*
X54261642Y26122448D01*
X54261642Y26122448D02*
X54261642Y25789115D01*
X54261642Y25789115D02*
X54214023Y25598639D01*
X54214023Y25598639D02*
X54118785Y25503400D01*
X54118785Y25503400D02*
X54023547Y25455781D01*
X54023547Y25455781D02*
X53833071Y25455781D01*
X55118785Y26122448D02*
X55118785Y25455781D01*
X54880690Y26503400D02*
X54642595Y25789115D01*
X54642595Y25789115D02*
X55261642Y25789115D01*
X54309261Y36790543D02*
X54214023Y36838162D01*
X54214023Y36838162D02*
X54118785Y36933400D01*
X54118785Y36933400D02*
X53975928Y37076258D01*
X53975928Y37076258D02*
X53880690Y37123877D01*
X53880690Y37123877D02*
X53785452Y37123877D01*
X53833071Y36885781D02*
X53737833Y36933400D01*
X53737833Y36933400D02*
X53642595Y37028639D01*
X53642595Y37028639D02*
X53594976Y37219115D01*
X53594976Y37219115D02*
X53594976Y37552448D01*
X53594976Y37552448D02*
X53642595Y37742924D01*
X53642595Y37742924D02*
X53737833Y37838162D01*
X53737833Y37838162D02*
X53833071Y37885781D01*
X53833071Y37885781D02*
X54023547Y37885781D01*
X54023547Y37885781D02*
X54118785Y37838162D01*
X54118785Y37838162D02*
X54214023Y37742924D01*
X54214023Y37742924D02*
X54261642Y37552448D01*
X54261642Y37552448D02*
X54261642Y37219115D01*
X54261642Y37219115D02*
X54214023Y37028639D01*
X54214023Y37028639D02*
X54118785Y36933400D01*
X54118785Y36933400D02*
X54023547Y36885781D01*
X54023547Y36885781D02*
X53833071Y36885781D01*
X55214023Y36885781D02*
X54642595Y36885781D01*
X54928309Y36885781D02*
X54928309Y37885781D01*
X54928309Y37885781D02*
X54833071Y37742924D01*
X54833071Y37742924D02*
X54737833Y37647686D01*
X54737833Y37647686D02*
X54642595Y37600067D01*
X31186219Y8221143D02*
X30710028Y7887810D01*
X31186219Y7649715D02*
X30186219Y7649715D01*
X30186219Y7649715D02*
X30186219Y8030667D01*
X30186219Y8030667D02*
X30233838Y8125905D01*
X30233838Y8125905D02*
X30281457Y8173524D01*
X30281457Y8173524D02*
X30376695Y8221143D01*
X30376695Y8221143D02*
X30519552Y8221143D01*
X30519552Y8221143D02*
X30614790Y8173524D01*
X30614790Y8173524D02*
X30662409Y8125905D01*
X30662409Y8125905D02*
X30710028Y8030667D01*
X30710028Y8030667D02*
X30710028Y7649715D01*
X30186219Y8554477D02*
X30186219Y9173524D01*
X30186219Y9173524D02*
X30567171Y8840191D01*
X30567171Y8840191D02*
X30567171Y8983048D01*
X30567171Y8983048D02*
X30614790Y9078286D01*
X30614790Y9078286D02*
X30662409Y9125905D01*
X30662409Y9125905D02*
X30757647Y9173524D01*
X30757647Y9173524D02*
X30995742Y9173524D01*
X30995742Y9173524D02*
X31090980Y9125905D01*
X31090980Y9125905D02*
X31138600Y9078286D01*
X31138600Y9078286D02*
X31186219Y8983048D01*
X31186219Y8983048D02*
X31186219Y8697334D01*
X31186219Y8697334D02*
X31138600Y8602096D01*
X31138600Y8602096D02*
X31090980Y8554477D01*
X30519552Y10030667D02*
X31186219Y10030667D01*
X30138600Y9792572D02*
X30852885Y9554477D01*
X30852885Y9554477D02*
X30852885Y10173524D01*
D11*
X22222533Y16285220D02*
X22174914Y16237600D01*
X22174914Y16237600D02*
X22032057Y16189981D01*
X22032057Y16189981D02*
X21936819Y16189981D01*
X21936819Y16189981D02*
X21793962Y16237600D01*
X21793962Y16237600D02*
X21698724Y16332839D01*
X21698724Y16332839D02*
X21651105Y16428077D01*
X21651105Y16428077D02*
X21603486Y16618553D01*
X21603486Y16618553D02*
X21603486Y16761410D01*
X21603486Y16761410D02*
X21651105Y16951886D01*
X21651105Y16951886D02*
X21698724Y17047124D01*
X21698724Y17047124D02*
X21793962Y17142362D01*
X21793962Y17142362D02*
X21936819Y17189981D01*
X21936819Y17189981D02*
X22032057Y17189981D01*
X22032057Y17189981D02*
X22174914Y17142362D01*
X22174914Y17142362D02*
X22222533Y17094743D01*
X23127295Y17189981D02*
X22651105Y17189981D01*
X22651105Y17189981D02*
X22603486Y16713791D01*
X22603486Y16713791D02*
X22651105Y16761410D01*
X22651105Y16761410D02*
X22746343Y16809029D01*
X22746343Y16809029D02*
X22984438Y16809029D01*
X22984438Y16809029D02*
X23079676Y16761410D01*
X23079676Y16761410D02*
X23127295Y16713791D01*
X23127295Y16713791D02*
X23174914Y16618553D01*
X23174914Y16618553D02*
X23174914Y16380458D01*
X23174914Y16380458D02*
X23127295Y16285220D01*
X23127295Y16285220D02*
X23079676Y16237600D01*
X23079676Y16237600D02*
X22984438Y16189981D01*
X22984438Y16189981D02*
X22746343Y16189981D01*
X22746343Y16189981D02*
X22651105Y16237600D01*
X22651105Y16237600D02*
X22603486Y16285220D01*
D10*
X54309261Y17740543D02*
X54214023Y17788162D01*
X54214023Y17788162D02*
X54118785Y17883400D01*
X54118785Y17883400D02*
X53975928Y18026258D01*
X53975928Y18026258D02*
X53880690Y18073877D01*
X53880690Y18073877D02*
X53785452Y18073877D01*
X53833071Y17835781D02*
X53737833Y17883400D01*
X53737833Y17883400D02*
X53642595Y17978639D01*
X53642595Y17978639D02*
X53594976Y18169115D01*
X53594976Y18169115D02*
X53594976Y18502448D01*
X53594976Y18502448D02*
X53642595Y18692924D01*
X53642595Y18692924D02*
X53737833Y18788162D01*
X53737833Y18788162D02*
X53833071Y18835781D01*
X53833071Y18835781D02*
X54023547Y18835781D01*
X54023547Y18835781D02*
X54118785Y18788162D01*
X54118785Y18788162D02*
X54214023Y18692924D01*
X54214023Y18692924D02*
X54261642Y18502448D01*
X54261642Y18502448D02*
X54261642Y18169115D01*
X54261642Y18169115D02*
X54214023Y17978639D01*
X54214023Y17978639D02*
X54118785Y17883400D01*
X54118785Y17883400D02*
X54023547Y17835781D01*
X54023547Y17835781D02*
X53833071Y17835781D01*
X55118785Y18835781D02*
X54928309Y18835781D01*
X54928309Y18835781D02*
X54833071Y18788162D01*
X54833071Y18788162D02*
X54785452Y18740543D01*
X54785452Y18740543D02*
X54690214Y18597686D01*
X54690214Y18597686D02*
X54642595Y18407210D01*
X54642595Y18407210D02*
X54642595Y18026258D01*
X54642595Y18026258D02*
X54690214Y17931020D01*
X54690214Y17931020D02*
X54737833Y17883400D01*
X54737833Y17883400D02*
X54833071Y17835781D01*
X54833071Y17835781D02*
X55023547Y17835781D01*
X55023547Y17835781D02*
X55118785Y17883400D01*
X55118785Y17883400D02*
X55166404Y17931020D01*
X55166404Y17931020D02*
X55214023Y18026258D01*
X55214023Y18026258D02*
X55214023Y18264353D01*
X55214023Y18264353D02*
X55166404Y18359591D01*
X55166404Y18359591D02*
X55118785Y18407210D01*
X55118785Y18407210D02*
X55023547Y18454829D01*
X55023547Y18454829D02*
X54833071Y18454829D01*
X54833071Y18454829D02*
X54737833Y18407210D01*
X54737833Y18407210D02*
X54690214Y18359591D01*
X54690214Y18359591D02*
X54642595Y18264353D01*
X40576667Y10652600D02*
X40719524Y10604981D01*
X40719524Y10604981D02*
X40957619Y10604981D01*
X40957619Y10604981D02*
X41052857Y10652600D01*
X41052857Y10652600D02*
X41100476Y10700220D01*
X41100476Y10700220D02*
X41148095Y10795458D01*
X41148095Y10795458D02*
X41148095Y10890696D01*
X41148095Y10890696D02*
X41100476Y10985934D01*
X41100476Y10985934D02*
X41052857Y11033553D01*
X41052857Y11033553D02*
X40957619Y11081172D01*
X40957619Y11081172D02*
X40767143Y11128791D01*
X40767143Y11128791D02*
X40671905Y11176410D01*
X40671905Y11176410D02*
X40624286Y11224029D01*
X40624286Y11224029D02*
X40576667Y11319267D01*
X40576667Y11319267D02*
X40576667Y11414505D01*
X40576667Y11414505D02*
X40624286Y11509743D01*
X40624286Y11509743D02*
X40671905Y11557362D01*
X40671905Y11557362D02*
X40767143Y11604981D01*
X40767143Y11604981D02*
X41005238Y11604981D01*
X41005238Y11604981D02*
X41148095Y11557362D01*
X41481429Y11604981D02*
X41719524Y10604981D01*
X41719524Y10604981D02*
X41910000Y11319267D01*
X41910000Y11319267D02*
X42100476Y10604981D01*
X42100476Y10604981D02*
X42338572Y11604981D01*
X43243333Y10604981D02*
X42671905Y10604981D01*
X42957619Y10604981D02*
X42957619Y11604981D01*
X42957619Y11604981D02*
X42862381Y11462124D01*
X42862381Y11462124D02*
X42767143Y11366886D01*
X42767143Y11366886D02*
X42671905Y11319267D01*
X54309261Y10247543D02*
X54214023Y10295162D01*
X54214023Y10295162D02*
X54118785Y10390400D01*
X54118785Y10390400D02*
X53975928Y10533258D01*
X53975928Y10533258D02*
X53880690Y10580877D01*
X53880690Y10580877D02*
X53785452Y10580877D01*
X53833071Y10342781D02*
X53737833Y10390400D01*
X53737833Y10390400D02*
X53642595Y10485639D01*
X53642595Y10485639D02*
X53594976Y10676115D01*
X53594976Y10676115D02*
X53594976Y11009448D01*
X53594976Y11009448D02*
X53642595Y11199924D01*
X53642595Y11199924D02*
X53737833Y11295162D01*
X53737833Y11295162D02*
X53833071Y11342781D01*
X53833071Y11342781D02*
X54023547Y11342781D01*
X54023547Y11342781D02*
X54118785Y11295162D01*
X54118785Y11295162D02*
X54214023Y11199924D01*
X54214023Y11199924D02*
X54261642Y11009448D01*
X54261642Y11009448D02*
X54261642Y10676115D01*
X54261642Y10676115D02*
X54214023Y10485639D01*
X54214023Y10485639D02*
X54118785Y10390400D01*
X54118785Y10390400D02*
X54023547Y10342781D01*
X54023547Y10342781D02*
X53833071Y10342781D01*
X54833071Y10914210D02*
X54737833Y10961829D01*
X54737833Y10961829D02*
X54690214Y11009448D01*
X54690214Y11009448D02*
X54642595Y11104686D01*
X54642595Y11104686D02*
X54642595Y11152305D01*
X54642595Y11152305D02*
X54690214Y11247543D01*
X54690214Y11247543D02*
X54737833Y11295162D01*
X54737833Y11295162D02*
X54833071Y11342781D01*
X54833071Y11342781D02*
X55023547Y11342781D01*
X55023547Y11342781D02*
X55118785Y11295162D01*
X55118785Y11295162D02*
X55166404Y11247543D01*
X55166404Y11247543D02*
X55214023Y11152305D01*
X55214023Y11152305D02*
X55214023Y11104686D01*
X55214023Y11104686D02*
X55166404Y11009448D01*
X55166404Y11009448D02*
X55118785Y10961829D01*
X55118785Y10961829D02*
X55023547Y10914210D01*
X55023547Y10914210D02*
X54833071Y10914210D01*
X54833071Y10914210D02*
X54737833Y10866591D01*
X54737833Y10866591D02*
X54690214Y10818972D01*
X54690214Y10818972D02*
X54642595Y10723734D01*
X54642595Y10723734D02*
X54642595Y10533258D01*
X54642595Y10533258D02*
X54690214Y10438020D01*
X54690214Y10438020D02*
X54737833Y10390400D01*
X54737833Y10390400D02*
X54833071Y10342781D01*
X54833071Y10342781D02*
X55023547Y10342781D01*
X55023547Y10342781D02*
X55118785Y10390400D01*
X55118785Y10390400D02*
X55166404Y10438020D01*
X55166404Y10438020D02*
X55214023Y10533258D01*
X55214023Y10533258D02*
X55214023Y10723734D01*
X55214023Y10723734D02*
X55166404Y10818972D01*
X55166404Y10818972D02*
X55118785Y10866591D01*
X55118785Y10866591D02*
X55023547Y10914210D01*
D11*
X22286933Y14880420D02*
X22239314Y14832800D01*
X22239314Y14832800D02*
X22096457Y14785181D01*
X22096457Y14785181D02*
X22001219Y14785181D01*
X22001219Y14785181D02*
X21858362Y14832800D01*
X21858362Y14832800D02*
X21763124Y14928039D01*
X21763124Y14928039D02*
X21715505Y15023277D01*
X21715505Y15023277D02*
X21667886Y15213753D01*
X21667886Y15213753D02*
X21667886Y15356610D01*
X21667886Y15356610D02*
X21715505Y15547086D01*
X21715505Y15547086D02*
X21763124Y15642324D01*
X21763124Y15642324D02*
X21858362Y15737562D01*
X21858362Y15737562D02*
X22001219Y15785181D01*
X22001219Y15785181D02*
X22096457Y15785181D01*
X22096457Y15785181D02*
X22239314Y15737562D01*
X22239314Y15737562D02*
X22286933Y15689943D01*
X22620267Y15785181D02*
X23239314Y15785181D01*
X23239314Y15785181D02*
X22905981Y15404229D01*
X22905981Y15404229D02*
X23048838Y15404229D01*
X23048838Y15404229D02*
X23144076Y15356610D01*
X23144076Y15356610D02*
X23191695Y15308991D01*
X23191695Y15308991D02*
X23239314Y15213753D01*
X23239314Y15213753D02*
X23239314Y14975658D01*
X23239314Y14975658D02*
X23191695Y14880420D01*
X23191695Y14880420D02*
X23144076Y14832800D01*
X23144076Y14832800D02*
X23048838Y14785181D01*
X23048838Y14785181D02*
X22763124Y14785181D01*
X22763124Y14785181D02*
X22667886Y14832800D01*
X22667886Y14832800D02*
X22620267Y14880420D01*
D10*
X54309261Y21550543D02*
X54214023Y21598162D01*
X54214023Y21598162D02*
X54118785Y21693400D01*
X54118785Y21693400D02*
X53975928Y21836258D01*
X53975928Y21836258D02*
X53880690Y21883877D01*
X53880690Y21883877D02*
X53785452Y21883877D01*
X53833071Y21645781D02*
X53737833Y21693400D01*
X53737833Y21693400D02*
X53642595Y21788639D01*
X53642595Y21788639D02*
X53594976Y21979115D01*
X53594976Y21979115D02*
X53594976Y22312448D01*
X53594976Y22312448D02*
X53642595Y22502924D01*
X53642595Y22502924D02*
X53737833Y22598162D01*
X53737833Y22598162D02*
X53833071Y22645781D01*
X53833071Y22645781D02*
X54023547Y22645781D01*
X54023547Y22645781D02*
X54118785Y22598162D01*
X54118785Y22598162D02*
X54214023Y22502924D01*
X54214023Y22502924D02*
X54261642Y22312448D01*
X54261642Y22312448D02*
X54261642Y21979115D01*
X54261642Y21979115D02*
X54214023Y21788639D01*
X54214023Y21788639D02*
X54118785Y21693400D01*
X54118785Y21693400D02*
X54023547Y21645781D01*
X54023547Y21645781D02*
X53833071Y21645781D01*
X55166404Y22645781D02*
X54690214Y22645781D01*
X54690214Y22645781D02*
X54642595Y22169591D01*
X54642595Y22169591D02*
X54690214Y22217210D01*
X54690214Y22217210D02*
X54785452Y22264829D01*
X54785452Y22264829D02*
X55023547Y22264829D01*
X55023547Y22264829D02*
X55118785Y22217210D01*
X55118785Y22217210D02*
X55166404Y22169591D01*
X55166404Y22169591D02*
X55214023Y22074353D01*
X55214023Y22074353D02*
X55214023Y21836258D01*
X55214023Y21836258D02*
X55166404Y21741020D01*
X55166404Y21741020D02*
X55118785Y21693400D01*
X55118785Y21693400D02*
X55023547Y21645781D01*
X55023547Y21645781D02*
X54785452Y21645781D01*
X54785452Y21645781D02*
X54690214Y21693400D01*
X54690214Y21693400D02*
X54642595Y21741020D01*
X35916980Y36206134D02*
X35964600Y36158515D01*
X35964600Y36158515D02*
X36012219Y36015658D01*
X36012219Y36015658D02*
X36012219Y35920420D01*
X36012219Y35920420D02*
X35964600Y35777563D01*
X35964600Y35777563D02*
X35869361Y35682325D01*
X35869361Y35682325D02*
X35774123Y35634706D01*
X35774123Y35634706D02*
X35583647Y35587087D01*
X35583647Y35587087D02*
X35440790Y35587087D01*
X35440790Y35587087D02*
X35250314Y35634706D01*
X35250314Y35634706D02*
X35155076Y35682325D01*
X35155076Y35682325D02*
X35059838Y35777563D01*
X35059838Y35777563D02*
X35012219Y35920420D01*
X35012219Y35920420D02*
X35012219Y36015658D01*
X35012219Y36015658D02*
X35059838Y36158515D01*
X35059838Y36158515D02*
X35107457Y36206134D01*
X36012219Y36682325D02*
X36012219Y36872801D01*
X36012219Y36872801D02*
X35964600Y36968039D01*
X35964600Y36968039D02*
X35916980Y37015658D01*
X35916980Y37015658D02*
X35774123Y37110896D01*
X35774123Y37110896D02*
X35583647Y37158515D01*
X35583647Y37158515D02*
X35202695Y37158515D01*
X35202695Y37158515D02*
X35107457Y37110896D01*
X35107457Y37110896D02*
X35059838Y37063277D01*
X35059838Y37063277D02*
X35012219Y36968039D01*
X35012219Y36968039D02*
X35012219Y36777563D01*
X35012219Y36777563D02*
X35059838Y36682325D01*
X35059838Y36682325D02*
X35107457Y36634706D01*
X35107457Y36634706D02*
X35202695Y36587087D01*
X35202695Y36587087D02*
X35440790Y36587087D01*
X35440790Y36587087D02*
X35536028Y36634706D01*
X35536028Y36634706D02*
X35583647Y36682325D01*
X35583647Y36682325D02*
X35631266Y36777563D01*
X35631266Y36777563D02*
X35631266Y36968039D01*
X35631266Y36968039D02*
X35583647Y37063277D01*
X35583647Y37063277D02*
X35536028Y37110896D01*
X35536028Y37110896D02*
X35440790Y37158515D01*
X28611419Y34275896D02*
X29420942Y34275896D01*
X29420942Y34275896D02*
X29516180Y34323515D01*
X29516180Y34323515D02*
X29563800Y34371134D01*
X29563800Y34371134D02*
X29611419Y34466372D01*
X29611419Y34466372D02*
X29611419Y34656848D01*
X29611419Y34656848D02*
X29563800Y34752086D01*
X29563800Y34752086D02*
X29516180Y34799705D01*
X29516180Y34799705D02*
X29420942Y34847324D01*
X29420942Y34847324D02*
X28611419Y34847324D01*
X28944752Y35752086D02*
X29611419Y35752086D01*
X28563800Y35513991D02*
X29278085Y35275896D01*
X29278085Y35275896D02*
X29278085Y35894943D01*
X54309261Y32980543D02*
X54214023Y33028162D01*
X54214023Y33028162D02*
X54118785Y33123400D01*
X54118785Y33123400D02*
X53975928Y33266258D01*
X53975928Y33266258D02*
X53880690Y33313877D01*
X53880690Y33313877D02*
X53785452Y33313877D01*
X53833071Y33075781D02*
X53737833Y33123400D01*
X53737833Y33123400D02*
X53642595Y33218639D01*
X53642595Y33218639D02*
X53594976Y33409115D01*
X53594976Y33409115D02*
X53594976Y33742448D01*
X53594976Y33742448D02*
X53642595Y33932924D01*
X53642595Y33932924D02*
X53737833Y34028162D01*
X53737833Y34028162D02*
X53833071Y34075781D01*
X53833071Y34075781D02*
X54023547Y34075781D01*
X54023547Y34075781D02*
X54118785Y34028162D01*
X54118785Y34028162D02*
X54214023Y33932924D01*
X54214023Y33932924D02*
X54261642Y33742448D01*
X54261642Y33742448D02*
X54261642Y33409115D01*
X54261642Y33409115D02*
X54214023Y33218639D01*
X54214023Y33218639D02*
X54118785Y33123400D01*
X54118785Y33123400D02*
X54023547Y33075781D01*
X54023547Y33075781D02*
X53833071Y33075781D01*
X54642595Y33980543D02*
X54690214Y34028162D01*
X54690214Y34028162D02*
X54785452Y34075781D01*
X54785452Y34075781D02*
X55023547Y34075781D01*
X55023547Y34075781D02*
X55118785Y34028162D01*
X55118785Y34028162D02*
X55166404Y33980543D01*
X55166404Y33980543D02*
X55214023Y33885305D01*
X55214023Y33885305D02*
X55214023Y33790067D01*
X55214023Y33790067D02*
X55166404Y33647210D01*
X55166404Y33647210D02*
X54594976Y33075781D01*
X54594976Y33075781D02*
X55214023Y33075781D01*
D11*
X7725580Y22947334D02*
X7773200Y22899715D01*
X7773200Y22899715D02*
X7820819Y22756858D01*
X7820819Y22756858D02*
X7820819Y22661620D01*
X7820819Y22661620D02*
X7773200Y22518763D01*
X7773200Y22518763D02*
X7677961Y22423525D01*
X7677961Y22423525D02*
X7582723Y22375906D01*
X7582723Y22375906D02*
X7392247Y22328287D01*
X7392247Y22328287D02*
X7249390Y22328287D01*
X7249390Y22328287D02*
X7058914Y22375906D01*
X7058914Y22375906D02*
X6963676Y22423525D01*
X6963676Y22423525D02*
X6868438Y22518763D01*
X6868438Y22518763D02*
X6820819Y22661620D01*
X6820819Y22661620D02*
X6820819Y22756858D01*
X6820819Y22756858D02*
X6868438Y22899715D01*
X6868438Y22899715D02*
X6916057Y22947334D01*
X7820819Y23899715D02*
X7820819Y23328287D01*
X7820819Y23614001D02*
X6820819Y23614001D01*
X6820819Y23614001D02*
X6963676Y23518763D01*
X6963676Y23518763D02*
X7058914Y23423525D01*
X7058914Y23423525D02*
X7106533Y23328287D01*
X5439580Y22998134D02*
X5487200Y22950515D01*
X5487200Y22950515D02*
X5534819Y22807658D01*
X5534819Y22807658D02*
X5534819Y22712420D01*
X5534819Y22712420D02*
X5487200Y22569563D01*
X5487200Y22569563D02*
X5391961Y22474325D01*
X5391961Y22474325D02*
X5296723Y22426706D01*
X5296723Y22426706D02*
X5106247Y22379087D01*
X5106247Y22379087D02*
X4963390Y22379087D01*
X4963390Y22379087D02*
X4772914Y22426706D01*
X4772914Y22426706D02*
X4677676Y22474325D01*
X4677676Y22474325D02*
X4582438Y22569563D01*
X4582438Y22569563D02*
X4534819Y22712420D01*
X4534819Y22712420D02*
X4534819Y22807658D01*
X4534819Y22807658D02*
X4582438Y22950515D01*
X4582438Y22950515D02*
X4630057Y22998134D01*
X4630057Y23379087D02*
X4582438Y23426706D01*
X4582438Y23426706D02*
X4534819Y23521944D01*
X4534819Y23521944D02*
X4534819Y23760039D01*
X4534819Y23760039D02*
X4582438Y23855277D01*
X4582438Y23855277D02*
X4630057Y23902896D01*
X4630057Y23902896D02*
X4725295Y23950515D01*
X4725295Y23950515D02*
X4820533Y23950515D01*
X4820533Y23950515D02*
X4963390Y23902896D01*
X4963390Y23902896D02*
X5534819Y23331468D01*
X5534819Y23331468D02*
X5534819Y23950515D01*
D10*
X27178095Y12485781D02*
X27178095Y11676258D01*
X27178095Y11676258D02*
X27225714Y11581020D01*
X27225714Y11581020D02*
X27273333Y11533400D01*
X27273333Y11533400D02*
X27368571Y11485781D01*
X27368571Y11485781D02*
X27559047Y11485781D01*
X27559047Y11485781D02*
X27654285Y11533400D01*
X27654285Y11533400D02*
X27701904Y11581020D01*
X27701904Y11581020D02*
X27749523Y11676258D01*
X27749523Y11676258D02*
X27749523Y12485781D01*
X28749523Y11485781D02*
X28178095Y11485781D01*
X28463809Y11485781D02*
X28463809Y12485781D01*
X28463809Y12485781D02*
X28368571Y12342924D01*
X28368571Y12342924D02*
X28273333Y12247686D01*
X28273333Y12247686D02*
X28178095Y12200067D01*
D11*
X9056019Y32613696D02*
X9865542Y32613696D01*
X9865542Y32613696D02*
X9960780Y32661315D01*
X9960780Y32661315D02*
X10008400Y32708934D01*
X10008400Y32708934D02*
X10056019Y32804172D01*
X10056019Y32804172D02*
X10056019Y32994648D01*
X10056019Y32994648D02*
X10008400Y33089886D01*
X10008400Y33089886D02*
X9960780Y33137505D01*
X9960780Y33137505D02*
X9865542Y33185124D01*
X9865542Y33185124D02*
X9056019Y33185124D01*
X9056019Y34089886D02*
X9056019Y33899410D01*
X9056019Y33899410D02*
X9103638Y33804172D01*
X9103638Y33804172D02*
X9151257Y33756553D01*
X9151257Y33756553D02*
X9294114Y33661315D01*
X9294114Y33661315D02*
X9484590Y33613696D01*
X9484590Y33613696D02*
X9865542Y33613696D01*
X9865542Y33613696D02*
X9960780Y33661315D01*
X9960780Y33661315D02*
X10008400Y33708934D01*
X10008400Y33708934D02*
X10056019Y33804172D01*
X10056019Y33804172D02*
X10056019Y33994648D01*
X10056019Y33994648D02*
X10008400Y34089886D01*
X10008400Y34089886D02*
X9960780Y34137505D01*
X9960780Y34137505D02*
X9865542Y34185124D01*
X9865542Y34185124D02*
X9627447Y34185124D01*
X9627447Y34185124D02*
X9532209Y34137505D01*
X9532209Y34137505D02*
X9484590Y34089886D01*
X9484590Y34089886D02*
X9436971Y33994648D01*
X9436971Y33994648D02*
X9436971Y33804172D01*
X9436971Y33804172D02*
X9484590Y33708934D01*
X9484590Y33708934D02*
X9532209Y33661315D01*
X9532209Y33661315D02*
X9627447Y33613696D01*
X23849333Y1164420D02*
X23801714Y1116800D01*
X23801714Y1116800D02*
X23658857Y1069181D01*
X23658857Y1069181D02*
X23563619Y1069181D01*
X23563619Y1069181D02*
X23420762Y1116800D01*
X23420762Y1116800D02*
X23325524Y1212039D01*
X23325524Y1212039D02*
X23277905Y1307277D01*
X23277905Y1307277D02*
X23230286Y1497753D01*
X23230286Y1497753D02*
X23230286Y1640610D01*
X23230286Y1640610D02*
X23277905Y1831086D01*
X23277905Y1831086D02*
X23325524Y1926324D01*
X23325524Y1926324D02*
X23420762Y2021562D01*
X23420762Y2021562D02*
X23563619Y2069181D01*
X23563619Y2069181D02*
X23658857Y2069181D01*
X23658857Y2069181D02*
X23801714Y2021562D01*
X23801714Y2021562D02*
X23849333Y1973943D01*
X24706476Y1735848D02*
X24706476Y1069181D01*
X24468381Y2116800D02*
X24230286Y1402515D01*
X24230286Y1402515D02*
X24849333Y1402515D01*
X22324133Y22076420D02*
X22276514Y22028800D01*
X22276514Y22028800D02*
X22133657Y21981181D01*
X22133657Y21981181D02*
X22038419Y21981181D01*
X22038419Y21981181D02*
X21895562Y22028800D01*
X21895562Y22028800D02*
X21800324Y22124039D01*
X21800324Y22124039D02*
X21752705Y22219277D01*
X21752705Y22219277D02*
X21705086Y22409753D01*
X21705086Y22409753D02*
X21705086Y22552610D01*
X21705086Y22552610D02*
X21752705Y22743086D01*
X21752705Y22743086D02*
X21800324Y22838324D01*
X21800324Y22838324D02*
X21895562Y22933562D01*
X21895562Y22933562D02*
X22038419Y22981181D01*
X22038419Y22981181D02*
X22133657Y22981181D01*
X22133657Y22981181D02*
X22276514Y22933562D01*
X22276514Y22933562D02*
X22324133Y22885943D01*
X23181276Y22981181D02*
X22990800Y22981181D01*
X22990800Y22981181D02*
X22895562Y22933562D01*
X22895562Y22933562D02*
X22847943Y22885943D01*
X22847943Y22885943D02*
X22752705Y22743086D01*
X22752705Y22743086D02*
X22705086Y22552610D01*
X22705086Y22552610D02*
X22705086Y22171658D01*
X22705086Y22171658D02*
X22752705Y22076420D01*
X22752705Y22076420D02*
X22800324Y22028800D01*
X22800324Y22028800D02*
X22895562Y21981181D01*
X22895562Y21981181D02*
X23086038Y21981181D01*
X23086038Y21981181D02*
X23181276Y22028800D01*
X23181276Y22028800D02*
X23228895Y22076420D01*
X23228895Y22076420D02*
X23276514Y22171658D01*
X23276514Y22171658D02*
X23276514Y22409753D01*
X23276514Y22409753D02*
X23228895Y22504991D01*
X23228895Y22504991D02*
X23181276Y22552610D01*
X23181276Y22552610D02*
X23086038Y22600229D01*
X23086038Y22600229D02*
X22895562Y22600229D01*
X22895562Y22600229D02*
X22800324Y22552610D01*
X22800324Y22552610D02*
X22752705Y22504991D01*
X22752705Y22504991D02*
X22705086Y22409753D01*
D10*
X16089219Y34275896D02*
X16898742Y34275896D01*
X16898742Y34275896D02*
X16993980Y34323515D01*
X16993980Y34323515D02*
X17041600Y34371134D01*
X17041600Y34371134D02*
X17089219Y34466372D01*
X17089219Y34466372D02*
X17089219Y34656848D01*
X17089219Y34656848D02*
X17041600Y34752086D01*
X17041600Y34752086D02*
X16993980Y34799705D01*
X16993980Y34799705D02*
X16898742Y34847324D01*
X16898742Y34847324D02*
X16089219Y34847324D01*
X16089219Y35228277D02*
X16089219Y35847324D01*
X16089219Y35847324D02*
X16470171Y35513991D01*
X16470171Y35513991D02*
X16470171Y35656848D01*
X16470171Y35656848D02*
X16517790Y35752086D01*
X16517790Y35752086D02*
X16565409Y35799705D01*
X16565409Y35799705D02*
X16660647Y35847324D01*
X16660647Y35847324D02*
X16898742Y35847324D01*
X16898742Y35847324D02*
X16993980Y35799705D01*
X16993980Y35799705D02*
X17041600Y35752086D01*
X17041600Y35752086D02*
X17089219Y35656848D01*
X17089219Y35656848D02*
X17089219Y35371134D01*
X17089219Y35371134D02*
X17041600Y35275896D01*
X17041600Y35275896D02*
X16993980Y35228277D01*
X43644142Y27456020D02*
X43596523Y27408400D01*
X43596523Y27408400D02*
X43453666Y27360781D01*
X43453666Y27360781D02*
X43358428Y27360781D01*
X43358428Y27360781D02*
X43215571Y27408400D01*
X43215571Y27408400D02*
X43120333Y27503639D01*
X43120333Y27503639D02*
X43072714Y27598877D01*
X43072714Y27598877D02*
X43025095Y27789353D01*
X43025095Y27789353D02*
X43025095Y27932210D01*
X43025095Y27932210D02*
X43072714Y28122686D01*
X43072714Y28122686D02*
X43120333Y28217924D01*
X43120333Y28217924D02*
X43215571Y28313162D01*
X43215571Y28313162D02*
X43358428Y28360781D01*
X43358428Y28360781D02*
X43453666Y28360781D01*
X43453666Y28360781D02*
X43596523Y28313162D01*
X43596523Y28313162D02*
X43644142Y28265543D01*
X44596523Y27360781D02*
X44025095Y27360781D01*
X44310809Y27360781D02*
X44310809Y28360781D01*
X44310809Y28360781D02*
X44215571Y28217924D01*
X44215571Y28217924D02*
X44120333Y28122686D01*
X44120333Y28122686D02*
X44025095Y28075067D01*
X45548904Y27360781D02*
X44977476Y27360781D01*
X45263190Y27360781D02*
X45263190Y28360781D01*
X45263190Y28360781D02*
X45167952Y28217924D01*
X45167952Y28217924D02*
X45072714Y28122686D01*
X45072714Y28122686D02*
X44977476Y28075067D01*
X41006619Y34275896D02*
X41816142Y34275896D01*
X41816142Y34275896D02*
X41911380Y34323515D01*
X41911380Y34323515D02*
X41959000Y34371134D01*
X41959000Y34371134D02*
X42006619Y34466372D01*
X42006619Y34466372D02*
X42006619Y34656848D01*
X42006619Y34656848D02*
X41959000Y34752086D01*
X41959000Y34752086D02*
X41911380Y34799705D01*
X41911380Y34799705D02*
X41816142Y34847324D01*
X41816142Y34847324D02*
X41006619Y34847324D01*
X41006619Y35799705D02*
X41006619Y35323515D01*
X41006619Y35323515D02*
X41482809Y35275896D01*
X41482809Y35275896D02*
X41435190Y35323515D01*
X41435190Y35323515D02*
X41387571Y35418753D01*
X41387571Y35418753D02*
X41387571Y35656848D01*
X41387571Y35656848D02*
X41435190Y35752086D01*
X41435190Y35752086D02*
X41482809Y35799705D01*
X41482809Y35799705D02*
X41578047Y35847324D01*
X41578047Y35847324D02*
X41816142Y35847324D01*
X41816142Y35847324D02*
X41911380Y35799705D01*
X41911380Y35799705D02*
X41959000Y35752086D01*
X41959000Y35752086D02*
X42006619Y35656848D01*
X42006619Y35656848D02*
X42006619Y35418753D01*
X42006619Y35418753D02*
X41959000Y35323515D01*
X41959000Y35323515D02*
X41911380Y35275896D01*
X38100095Y26827781D02*
X38100095Y26018258D01*
X38100095Y26018258D02*
X38147714Y25923020D01*
X38147714Y25923020D02*
X38195333Y25875400D01*
X38195333Y25875400D02*
X38290571Y25827781D01*
X38290571Y25827781D02*
X38481047Y25827781D01*
X38481047Y25827781D02*
X38576285Y25875400D01*
X38576285Y25875400D02*
X38623904Y25923020D01*
X38623904Y25923020D02*
X38671523Y26018258D01*
X38671523Y26018258D02*
X38671523Y26827781D01*
X39100095Y26732543D02*
X39147714Y26780162D01*
X39147714Y26780162D02*
X39242952Y26827781D01*
X39242952Y26827781D02*
X39481047Y26827781D01*
X39481047Y26827781D02*
X39576285Y26780162D01*
X39576285Y26780162D02*
X39623904Y26732543D01*
X39623904Y26732543D02*
X39671523Y26637305D01*
X39671523Y26637305D02*
X39671523Y26542067D01*
X39671523Y26542067D02*
X39623904Y26399210D01*
X39623904Y26399210D02*
X39052476Y25827781D01*
X39052476Y25827781D02*
X39671523Y25827781D01*
X10861980Y36053734D02*
X10909600Y36006115D01*
X10909600Y36006115D02*
X10957219Y35863258D01*
X10957219Y35863258D02*
X10957219Y35768020D01*
X10957219Y35768020D02*
X10909600Y35625163D01*
X10909600Y35625163D02*
X10814361Y35529925D01*
X10814361Y35529925D02*
X10719123Y35482306D01*
X10719123Y35482306D02*
X10528647Y35434687D01*
X10528647Y35434687D02*
X10385790Y35434687D01*
X10385790Y35434687D02*
X10195314Y35482306D01*
X10195314Y35482306D02*
X10100076Y35529925D01*
X10100076Y35529925D02*
X10004838Y35625163D01*
X10004838Y35625163D02*
X9957219Y35768020D01*
X9957219Y35768020D02*
X9957219Y35863258D01*
X9957219Y35863258D02*
X10004838Y36006115D01*
X10004838Y36006115D02*
X10052457Y36053734D01*
X9957219Y36387068D02*
X9957219Y37053734D01*
X9957219Y37053734D02*
X10957219Y36625163D01*
X54309261Y13930543D02*
X54214023Y13978162D01*
X54214023Y13978162D02*
X54118785Y14073400D01*
X54118785Y14073400D02*
X53975928Y14216258D01*
X53975928Y14216258D02*
X53880690Y14263877D01*
X53880690Y14263877D02*
X53785452Y14263877D01*
X53833071Y14025781D02*
X53737833Y14073400D01*
X53737833Y14073400D02*
X53642595Y14168639D01*
X53642595Y14168639D02*
X53594976Y14359115D01*
X53594976Y14359115D02*
X53594976Y14692448D01*
X53594976Y14692448D02*
X53642595Y14882924D01*
X53642595Y14882924D02*
X53737833Y14978162D01*
X53737833Y14978162D02*
X53833071Y15025781D01*
X53833071Y15025781D02*
X54023547Y15025781D01*
X54023547Y15025781D02*
X54118785Y14978162D01*
X54118785Y14978162D02*
X54214023Y14882924D01*
X54214023Y14882924D02*
X54261642Y14692448D01*
X54261642Y14692448D02*
X54261642Y14359115D01*
X54261642Y14359115D02*
X54214023Y14168639D01*
X54214023Y14168639D02*
X54118785Y14073400D01*
X54118785Y14073400D02*
X54023547Y14025781D01*
X54023547Y14025781D02*
X53833071Y14025781D01*
X54594976Y15025781D02*
X55261642Y15025781D01*
X55261642Y15025781D02*
X54833071Y14025781D01*
D12*
%TO.C,Q3*%
X57404000Y32317644D02*
X56754000Y32317644D01*
X57404000Y32317644D02*
X58054000Y32317644D01*
X57404000Y29197644D02*
X56754000Y29197644D01*
X57404000Y29197644D02*
X58054000Y29197644D01*
X56241500Y32267644D02*
X56001500Y32597644D01*
X56481500Y32597644D01*
X56241500Y32267644D01*
G36*
X56241500Y32267644D02*
G01*
X56001500Y32597644D01*
X56481500Y32597644D01*
X56241500Y32267644D01*
G37*
%TO.C,Y1*%
X19570800Y17489600D02*
X22870800Y17489600D01*
X22870800Y17489600D02*
X22870800Y21489600D01*
%TO.C,R4*%
X10272500Y44466742D02*
X10272500Y44941258D01*
X11317500Y44466742D02*
X11317500Y44941258D01*
%TO.C,R3*%
X7732500Y44466742D02*
X7732500Y44941258D01*
X8777500Y44466742D02*
X8777500Y44941258D01*
%TO.C,R13*%
X33132500Y44466742D02*
X33132500Y44941258D01*
X34177500Y44466742D02*
X34177500Y44941258D01*
%TO.C,R10*%
X25512500Y44466742D02*
X25512500Y44941258D01*
X26557500Y44466742D02*
X26557500Y44941258D01*
%TO.C,C8*%
X22540500Y39053380D02*
X22540500Y38772220D01*
X23560500Y39053380D02*
X23560500Y38772220D01*
%TO.C,R12*%
X30592500Y44466742D02*
X30592500Y44941258D01*
X31637500Y44466742D02*
X31637500Y44941258D01*
%TO.C,R5*%
X12812500Y44466742D02*
X12812500Y44941258D01*
X13857500Y44466742D02*
X13857500Y44941258D01*
%TO.C,R33*%
X18158300Y20877942D02*
X18158300Y21352458D01*
X19203300Y20877942D02*
X19203300Y21352458D01*
%TO.C,R24*%
X61072500Y44466742D02*
X61072500Y44941258D01*
X62117500Y44466742D02*
X62117500Y44941258D01*
%TO.C,R31*%
X53680742Y17032432D02*
X54155258Y17032432D01*
X53680742Y15987432D02*
X54155258Y15987432D01*
%TO.C,R19*%
X48372500Y44466742D02*
X48372500Y44941258D01*
X49417500Y44466742D02*
X49417500Y44941258D01*
%TO.C,R32*%
X53680742Y13233000D02*
X54155258Y13233000D01*
X53680742Y12188000D02*
X54155258Y12188000D01*
%TO.C,C10*%
X28700000Y5715580D02*
X28700000Y5434420D01*
X29720000Y5715580D02*
X29720000Y5434420D01*
%TO.C,R25*%
X53610742Y39829000D02*
X54085258Y39829000D01*
X53610742Y38784000D02*
X54085258Y38784000D01*
%TO.C,D1*%
X8582800Y28820000D02*
X8582800Y24520000D01*
X8582800Y28820000D02*
X14392800Y28820000D01*
X8582800Y24520000D02*
X14392800Y24520000D01*
%TO.C,J3*%
X61154000Y35351000D02*
X62484000Y35351000D01*
X61154000Y34021000D02*
X61154000Y35351000D01*
X61154000Y32751000D02*
X61154000Y14911000D01*
X61154000Y32751000D02*
X63814000Y32751000D01*
X61154000Y14911000D02*
X63814000Y14911000D01*
X63814000Y32751000D02*
X63814000Y14911000D01*
%TO.C,J2*%
X1855000Y46804000D02*
X1855000Y48134000D01*
X3185000Y46804000D02*
X1855000Y46804000D01*
X4455000Y49464000D02*
X62935000Y49464000D01*
X4455000Y46804000D02*
X4455000Y49464000D01*
X4455000Y46804000D02*
X62935000Y46804000D01*
X62935000Y46804000D02*
X62935000Y49464000D01*
%TO.C,R26*%
X53610742Y36029572D02*
X54085258Y36029572D01*
X53610742Y34984572D02*
X54085258Y34984572D01*
%TO.C,Q4*%
X57404000Y28518216D02*
X56754000Y28518216D01*
X57404000Y28518216D02*
X58054000Y28518216D01*
X57404000Y25398216D02*
X56754000Y25398216D01*
X57404000Y25398216D02*
X58054000Y25398216D01*
X56241500Y28468216D02*
X56001500Y28798216D01*
X56481500Y28798216D01*
X56241500Y28468216D01*
G36*
X56241500Y28468216D02*
G01*
X56001500Y28798216D01*
X56481500Y28798216D01*
X56241500Y28468216D01*
G37*
%TO.C,Q1*%
X57404000Y39916500D02*
X56754000Y39916500D01*
X57404000Y39916500D02*
X58054000Y39916500D01*
X57404000Y36796500D02*
X56754000Y36796500D01*
X57404000Y36796500D02*
X58054000Y36796500D01*
X56241500Y39866500D02*
X56001500Y40196500D01*
X56481500Y40196500D01*
X56241500Y39866500D01*
G36*
X56241500Y39866500D02*
G01*
X56001500Y40196500D01*
X56481500Y40196500D01*
X56241500Y39866500D01*
G37*
%TO.C,R34*%
X28687500Y9101258D02*
X28687500Y8626742D01*
X29732500Y9101258D02*
X29732500Y8626742D01*
%TO.C,R16*%
X40752500Y44466742D02*
X40752500Y44941258D01*
X41797500Y44466742D02*
X41797500Y44941258D01*
%TO.C,C5*%
X20515836Y17157200D02*
X20300164Y17157200D01*
X20515836Y16437200D02*
X20300164Y16437200D01*
%TO.C,Q6*%
X57404000Y20919360D02*
X56754000Y20919360D01*
X57404000Y20919360D02*
X58054000Y20919360D01*
X57404000Y17799360D02*
X56754000Y17799360D01*
X57404000Y17799360D02*
X58054000Y17799360D01*
X56241500Y20869360D02*
X56001500Y21199360D01*
X56481500Y21199360D01*
X56241500Y20869360D01*
G36*
X56241500Y20869360D02*
G01*
X56001500Y21199360D01*
X56481500Y21199360D01*
X56241500Y20869360D01*
G37*
%TO.C,R7*%
X17892500Y44466742D02*
X17892500Y44941258D01*
X18937500Y44466742D02*
X18937500Y44941258D01*
%TO.C,R11*%
X28052500Y44466742D02*
X28052500Y44941258D01*
X29097500Y44466742D02*
X29097500Y44941258D01*
%TO.C,R18*%
X45832500Y44466742D02*
X45832500Y44941258D01*
X46877500Y44466742D02*
X46877500Y44941258D01*
%TO.C,R6*%
X15352500Y44466742D02*
X15352500Y44941258D01*
X16397500Y44466742D02*
X16397500Y44941258D01*
%TO.C,R1*%
X2652500Y44466742D02*
X2652500Y44941258D01*
X3697500Y44466742D02*
X3697500Y44941258D01*
%TO.C,SW1*%
X38410000Y7557200D02*
X38410000Y6057200D01*
X39660000Y3557200D02*
X44160000Y3557200D01*
X44160000Y10057200D02*
X39660000Y10057200D01*
X45410000Y6057200D02*
X45410000Y7557200D01*
%TO.C,R8*%
X20432500Y44466742D02*
X20432500Y44941258D01*
X21477500Y44466742D02*
X21477500Y44941258D01*
%TO.C,R21*%
X53452500Y44466742D02*
X53452500Y44941258D01*
X54497500Y44466742D02*
X54497500Y44941258D01*
%TO.C,Q8*%
X57404000Y13320500D02*
X56754000Y13320500D01*
X57404000Y13320500D02*
X58054000Y13320500D01*
X57404000Y10200500D02*
X56754000Y10200500D01*
X57404000Y10200500D02*
X58054000Y10200500D01*
X56241500Y13270500D02*
X56001500Y13600500D01*
X56481500Y13600500D01*
X56241500Y13270500D01*
G36*
X56241500Y13270500D02*
G01*
X56001500Y13600500D01*
X56481500Y13600500D01*
X56241500Y13270500D01*
G37*
%TO.C,C3*%
X22594180Y14378400D02*
X22313020Y14378400D01*
X22594180Y13358400D02*
X22313020Y13358400D01*
%TO.C,R17*%
X43292500Y44466742D02*
X43292500Y44941258D01*
X44337500Y44466742D02*
X44337500Y44941258D01*
%TO.C,R28*%
X53680742Y28430716D02*
X54155258Y28430716D01*
X53680742Y27385716D02*
X54155258Y27385716D01*
%TO.C,R23*%
X58532500Y44466742D02*
X58532500Y44941258D01*
X59577500Y44466742D02*
X59577500Y44941258D01*
%TO.C,Q5*%
X57404000Y24718788D02*
X56754000Y24718788D01*
X57404000Y24718788D02*
X58054000Y24718788D01*
X57404000Y21598788D02*
X56754000Y21598788D01*
X57404000Y21598788D02*
X58054000Y21598788D01*
X56241500Y24668788D02*
X56001500Y24998788D01*
X56481500Y24998788D01*
X56241500Y24668788D01*
G36*
X56241500Y24668788D02*
G01*
X56001500Y24998788D01*
X56481500Y24998788D01*
X56241500Y24668788D01*
G37*
%TO.C,C9*%
X35050000Y39053380D02*
X35050000Y38772220D01*
X36070000Y39053380D02*
X36070000Y38772220D01*
%TO.C,R29*%
X53680742Y24631288D02*
X54155258Y24631288D01*
X53680742Y23586288D02*
X54155258Y23586288D01*
%TO.C,R30*%
X53680742Y20831860D02*
X54155258Y20831860D01*
X53680742Y19786860D02*
X54155258Y19786860D01*
%TO.C,R14*%
X35672500Y44466742D02*
X35672500Y44941258D01*
X36717500Y44466742D02*
X36717500Y44941258D01*
%TO.C,R20*%
X50912500Y44466742D02*
X50912500Y44941258D01*
X51957500Y44466742D02*
X51957500Y44941258D01*
%TO.C,R2*%
X5192500Y44466742D02*
X5192500Y44941258D01*
X6237500Y44466742D02*
X6237500Y44941258D01*
%TO.C,U4*%
X24026200Y38897800D02*
X24281200Y38897800D01*
X24026200Y35037800D02*
X24026200Y38897800D01*
X24026200Y35037800D02*
X24026200Y31177800D01*
X24026200Y31177800D02*
X24281200Y31177800D01*
X34546200Y38897800D02*
X34291200Y38897800D01*
X34546200Y35037800D02*
X34546200Y38897800D01*
X34546200Y35037800D02*
X34546200Y31177800D01*
X34546200Y31177800D02*
X34291200Y31177800D01*
X24281200Y30325300D02*
X23811200Y29985300D01*
X23811200Y30665300D01*
X24281200Y30325300D01*
G36*
X24281200Y30325300D02*
G01*
X23811200Y29985300D01*
X23811200Y30665300D01*
X24281200Y30325300D01*
G37*
%TO.C,Q2*%
X57404000Y36117072D02*
X56754000Y36117072D01*
X57404000Y36117072D02*
X58054000Y36117072D01*
X57404000Y32997072D02*
X56754000Y32997072D01*
X57404000Y32997072D02*
X58054000Y32997072D01*
X56241500Y36067072D02*
X56001500Y36397072D01*
X56481500Y36397072D01*
X56241500Y36067072D01*
G36*
X56241500Y36067072D02*
G01*
X56001500Y36397072D01*
X56481500Y36397072D01*
X56241500Y36067072D01*
G37*
%TO.C,C1*%
X6631000Y26829652D02*
X6631000Y26307148D01*
X8101000Y26829652D02*
X8101000Y26307148D01*
%TO.C,C2*%
X4345000Y26829652D02*
X4345000Y26307148D01*
X5815000Y26829652D02*
X5815000Y26307148D01*
%TO.C,R22*%
X55992500Y44466742D02*
X55992500Y44941258D01*
X57037500Y44466742D02*
X57037500Y44941258D01*
D11*
%TO.C,U1*%
X19235000Y11245000D02*
X19235000Y10920000D01*
X19235000Y11245000D02*
X19560000Y11245000D01*
X19235000Y3995000D02*
X19235000Y4320000D01*
X19235000Y3995000D02*
X19560000Y3995000D01*
X26485000Y11245000D02*
X26260000Y11245000D01*
X26485000Y11245000D02*
X26485000Y10920000D01*
X26485000Y3995000D02*
X26160000Y3995000D01*
X26485000Y3995000D02*
X26485000Y4320000D01*
D12*
X26670000Y11670000D02*
X26200000Y12010000D01*
X26670000Y12350000D01*
X26670000Y11670000D01*
G36*
X26670000Y11670000D02*
G01*
X26200000Y12010000D01*
X26670000Y12350000D01*
X26670000Y11670000D01*
G37*
%TO.C,U6*%
X1670000Y35285600D02*
X2930000Y35285600D01*
X1670000Y31525600D02*
X1670000Y35285600D01*
X8490000Y35285600D02*
X7230000Y35285600D01*
X8490000Y31525600D02*
X8490000Y35285600D01*
X1770000Y30245600D02*
X1440000Y30005600D01*
X1440000Y30485600D01*
X1770000Y30245600D01*
G36*
X1770000Y30245600D02*
G01*
X1440000Y30005600D01*
X1440000Y30485600D01*
X1770000Y30245600D01*
G37*
%TO.C,R9*%
X22972500Y44466742D02*
X22972500Y44941258D01*
X24017500Y44466742D02*
X24017500Y44941258D01*
%TO.C,C4*%
X21462420Y2034000D02*
X21743580Y2034000D01*
X21462420Y1014000D02*
X21743580Y1014000D01*
%TO.C,C6*%
X20350964Y22491200D02*
X20566636Y22491200D01*
X20350964Y21771200D02*
X20566636Y21771200D01*
%TO.C,J4*%
X9089000Y3511000D02*
X9089000Y11251000D01*
X11689000Y6111000D02*
X11689000Y3511000D01*
X11689000Y3511000D02*
X9089000Y3511000D01*
X14289000Y11251000D02*
X9089000Y11251000D01*
X14289000Y6111000D02*
X11689000Y6111000D01*
X14289000Y6111000D02*
X14289000Y11251000D01*
X14289000Y4841000D02*
X14289000Y3511000D01*
X14289000Y3511000D02*
X12959000Y3511000D01*
%TO.C,U3*%
X11504000Y38897800D02*
X11759000Y38897800D01*
X11504000Y35037800D02*
X11504000Y38897800D01*
X11504000Y35037800D02*
X11504000Y31177800D01*
X11504000Y31177800D02*
X11759000Y31177800D01*
X22024000Y38897800D02*
X21769000Y38897800D01*
X22024000Y35037800D02*
X22024000Y38897800D01*
X22024000Y35037800D02*
X22024000Y31177800D01*
X22024000Y31177800D02*
X21769000Y31177800D01*
X11759000Y30325300D02*
X11289000Y29985300D01*
X11289000Y30665300D01*
X11759000Y30325300D01*
G36*
X11759000Y30325300D02*
G01*
X11289000Y29985300D01*
X11289000Y30665300D01*
X11759000Y30325300D01*
G37*
%TO.C,R15*%
X38212500Y44466742D02*
X38212500Y44941258D01*
X39257500Y44466742D02*
X39257500Y44941258D01*
%TO.C,R27*%
X53610742Y32230144D02*
X54085258Y32230144D01*
X53610742Y31185144D02*
X54085258Y31185144D01*
%TO.C,J1*%
X582000Y24158000D02*
X15282000Y24158000D01*
X582000Y14958000D02*
X582000Y24158000D01*
X9382000Y14958000D02*
X582000Y14958000D01*
X14432000Y24358000D02*
X15482000Y24358000D01*
X15282000Y24158000D02*
X15282000Y21558000D01*
X15282000Y17658000D02*
X15282000Y14958000D01*
X15282000Y14958000D02*
X13382000Y14958000D01*
X15482000Y23308000D02*
X15482000Y24358000D01*
%TO.C,C11*%
X44146420Y26926000D02*
X44427580Y26926000D01*
X44146420Y25906000D02*
X44427580Y25906000D01*
%TO.C,U5*%
X36548400Y38897800D02*
X36803400Y38897800D01*
X36548400Y35037800D02*
X36548400Y38897800D01*
X36548400Y35037800D02*
X36548400Y31177800D01*
X36548400Y31177800D02*
X36803400Y31177800D01*
X47068400Y38897800D02*
X46813400Y38897800D01*
X47068400Y35037800D02*
X47068400Y38897800D01*
X47068400Y35037800D02*
X47068400Y31177800D01*
X47068400Y31177800D02*
X46813400Y31177800D01*
X36803400Y30325300D02*
X36333400Y29985300D01*
X36333400Y30665300D01*
X36803400Y30325300D01*
G36*
X36803400Y30325300D02*
G01*
X36333400Y29985300D01*
X36333400Y30665300D01*
X36803400Y30325300D01*
G37*
%TO.C,U2*%
X35002000Y25440000D02*
X35002000Y25185000D01*
X35002000Y14920000D02*
X35002000Y15175000D01*
X38862000Y25440000D02*
X35002000Y25440000D01*
X38862000Y25440000D02*
X42722000Y25440000D01*
X38862000Y14920000D02*
X35002000Y14920000D01*
X38862000Y14920000D02*
X42722000Y14920000D01*
X42722000Y25440000D02*
X42722000Y25185000D01*
X42722000Y14920000D02*
X42722000Y15175000D01*
X34149500Y25185000D02*
X33809500Y25655000D01*
X34489500Y25655000D01*
X34149500Y25185000D01*
G36*
X34149500Y25185000D02*
G01*
X33809500Y25655000D01*
X34489500Y25655000D01*
X34149500Y25185000D01*
G37*
%TO.C,C7*%
X10031000Y39053380D02*
X10031000Y38772220D01*
X11051000Y39053380D02*
X11051000Y38772220D01*
%TO.C,Q7*%
X57404000Y17119932D02*
X56754000Y17119932D01*
X57404000Y17119932D02*
X58054000Y17119932D01*
X57404000Y13999932D02*
X56754000Y13999932D01*
X57404000Y13999932D02*
X58054000Y13999932D01*
X56241500Y17069932D02*
X56001500Y17399932D01*
X56481500Y17399932D01*
X56241500Y17069932D01*
G36*
X56241500Y17069932D02*
G01*
X56001500Y17399932D01*
X56481500Y17399932D01*
X56241500Y17069932D01*
G37*
%TD*%
M02*
