M48
; DRILL file {KiCad 8.0.1} date 2024-04-26T21:38:34+0630
; FORMAT={-:-/ absolute / metric / decimal}
; #@! TF.CreationDate,2024-04-26T21:38:34+06:30
; #@! TF.GenerationSoftware,Kicad,Pcbnew,8.0.1
; #@! TF.FileFunction,MixedPlating,1,2
FMAT,2
METRIC
; #@! TA.AperFunction,Plated,PTH,ViaDrill
T1C0.300
; #@! TA.AperFunction,Plated,PTH,ComponentDrill
T2C0.500
; #@! TA.AperFunction,Plated,PTH,ComponentDrill
T3C1.000
; #@! TA.AperFunction,Plated,PTH,ComponentDrill
T4C1.100
; #@! TA.AperFunction,Plated,PTH,ComponentDrill
T5C3.200
%
G90
G05
T1
X1.143Y28.067
X2.134Y40.64
X2.997Y17.272
X3.175Y42.799
X5.715Y42.799
X8.026Y14.986
X8.255Y42.799
X10.668Y23.114
X10.795Y42.799
X12.319Y32.004
X13.335Y42.799
X13.589Y37.973
X13.589Y32.004
X14.859Y32.004
X15.748Y15.342
X15.875Y42.799
X16.129Y32.004
X16.256Y3.962
X16.637Y8.763
X16.638Y9.651
X17.399Y32.004
X18.415Y42.799
X18.669Y32.004
X19.914Y15.646
X19.939Y32.004
X20.955Y42.799
X21.209Y32.004
X21.209Y28.321
X22.098Y15.951
X22.352Y44.247
X23.165Y28.499
X23.26Y17.272
X23.495Y42.799
X24.841Y32.004
X24.86Y22.555
X24.86Y17.907
X24.892Y37.846
X25.146Y35.712
X25.66Y18.663
X26.035Y42.799
X26.111Y37.973
X26.111Y32.004
X27.381Y32.004
X27.737Y17.069
X28.2Y24.892
X28.575Y42.799
X28.651Y32.004
X29.209Y12.446
X29.278Y28.507
X29.921Y32.004
X30.124Y14.478
X30.988Y21.844
X30.988Y17.907
X31.115Y42.799
X31.191Y32.004
X32.41Y37.592
X32.461Y32.004
X32.512Y8.001
X33.655Y42.799
X34.29Y3.81
X34.849Y11.227
X35.509Y33.426
X35.509Y28.499
X35.941Y24.638
X35.941Y23.355
X35.941Y22.098
X35.941Y20.815
X35.941Y19.545
X36.195Y42.799
X37.084Y18.275
X37.084Y17.005
X37.363Y32.004
X37.846Y17.636
X38.456Y36.424
X38.633Y37.973
X38.633Y32.004
X38.735Y42.799
X40.005Y32.004
X41.173Y32.004
X41.275Y42.799
X41.656Y18.915
X41.91Y6.731
X42.443Y32.004
X43.713Y32.004
X43.815Y42.799
X44.323Y34.798
X44.983Y32.004
X46.355Y42.799
X48.895Y42.799
X49.53Y7.747
X51.435Y42.799
X51.562Y33.02
X51.562Y30.734
X51.943Y27.94
X51.943Y24.13
X51.943Y20.32
X51.943Y16.51
X51.943Y12.71
X53.467Y4.064
X53.975Y42.799
X56.515Y42.799
X59.055Y42.799
X61.468Y11.379
X61.595Y42.799
X61.849Y41.529
T2
X1.41Y3.81
X2.113Y5.507
X2.113Y2.113
X3.81Y6.21
X3.81Y1.41
X5.507Y5.507
X5.507Y2.113
X6.21Y3.81
X58.56Y3.81
X59.263Y5.507
X59.263Y2.113
X60.96Y6.21
X60.96Y1.41
X62.657Y5.507
X62.657Y2.113
X63.36Y3.81
T3
X3.185Y48.134
X5.725Y48.134
X8.265Y48.134
X10.419Y9.921
X10.419Y7.381
X10.419Y4.841
X10.805Y48.134
X12.959Y9.921
X12.959Y7.381
X12.959Y4.841
X13.345Y48.134
X15.885Y48.134
X18.425Y48.134
X20.965Y48.134
X23.505Y48.134
X26.045Y48.134
X28.585Y48.134
X31.125Y48.134
X33.665Y48.134
X36.205Y48.134
X38.745Y48.134
X41.285Y48.134
X43.825Y48.134
X46.365Y48.134
X48.905Y48.134
X51.445Y48.134
X53.985Y48.134
X56.525Y48.134
X59.065Y48.134
X61.605Y48.134
X62.484Y34.021
X62.484Y31.481
X62.484Y28.941
X62.484Y26.401
X62.484Y23.861
X62.484Y21.321
X62.484Y18.781
X62.484Y16.241
T4
X38.66Y9.057
X38.66Y4.557
X45.16Y9.057
X45.16Y4.557
T5
X3.81Y3.81
X60.96Y3.81
T3
G00X8.382Y20.558
M15
G01X8.382Y18.558
M16
G05
G00X10.382Y14.858
M15
G01X12.382Y14.858
M16
G05
G00X14.382Y20.558
M15
G01X14.382Y18.558
M16
G05
M30
