%TF.GenerationSoftware,KiCad,Pcbnew,8.0.1*%
%TF.CreationDate,2024-04-26T21:38:42+06:30*%
%TF.ProjectId,Project,50726f6a-6563-4742-9e6b-696361645f70,1.0*%
%TF.SameCoordinates,PX60e4b00PY853a720*%
%TF.FileFunction,Soldermask,Bot*%
%TF.FilePolarity,Negative*%
%FSLAX46Y46*%
G04 Gerber Fmt 4.6, Leading zero omitted, Abs format (unit mm)*
G04 Created by KiCad (PCBNEW 8.0.1) date 2024-04-26 21:38:42*
%MOMM*%
%LPD*%
G01*
G04 APERTURE LIST*
G04 Aperture macros list*
%AMRoundRect*
0 Rectangle with rounded corners*
0 $1 Rounding radius*
0 $2 $3 $4 $5 $6 $7 $8 $9 X,Y pos of 4 corners*
0 Add a 4 corners polygon primitive as box body*
4,1,4,$2,$3,$4,$5,$6,$7,$8,$9,$2,$3,0*
0 Add four circle primitives for the rounded corners*
1,1,$1+$1,$2,$3*
1,1,$1+$1,$4,$5*
1,1,$1+$1,$6,$7*
1,1,$1+$1,$8,$9*
0 Add four rect primitives between the rounded corners*
20,1,$1+$1,$2,$3,$4,$5,0*
20,1,$1+$1,$4,$5,$6,$7,0*
20,1,$1+$1,$6,$7,$8,$9,0*
20,1,$1+$1,$8,$9,$2,$3,0*%
G04 Aperture macros list end*
%ADD10C,0.800000*%
%ADD11C,6.400000*%
%ADD12R,1.700000X1.700000*%
%ADD13O,1.700000X1.700000*%
%ADD14C,2.000000*%
%ADD15R,3.500000X3.500000*%
%ADD16RoundRect,0.750000X-0.750000X-1.000000X0.750000X-1.000000X0.750000X1.000000X-0.750000X1.000000X0*%
%ADD17RoundRect,0.875000X-0.875000X-0.875000X0.875000X-0.875000X0.875000X0.875000X-0.875000X0.875000X0*%
G04 APERTURE END LIST*
D10*
%TO.C,H1*%
X1410000Y3810000D03*
X2112944Y5507056D03*
X2112944Y2112944D03*
X3810000Y6210000D03*
D11*
X3810000Y3810000D03*
D10*
X3810000Y1410000D03*
X5507056Y5507056D03*
X5507056Y2112944D03*
X6210000Y3810000D03*
%TD*%
D12*
%TO.C,J3*%
X62484000Y34021000D03*
D13*
X62484000Y31481000D03*
X62484000Y28941000D03*
X62484000Y26401000D03*
X62484000Y23861000D03*
X62484000Y21321000D03*
X62484000Y18781000D03*
X62484000Y16241000D03*
%TD*%
D12*
%TO.C,J2*%
X3185000Y48134000D03*
D13*
X5725000Y48134000D03*
X8265000Y48134000D03*
X10805000Y48134000D03*
X13345000Y48134000D03*
X15885000Y48134000D03*
X18425000Y48134000D03*
X20965000Y48134000D03*
X23505000Y48134000D03*
X26045000Y48134000D03*
X28585000Y48134000D03*
X31125000Y48134000D03*
X33665000Y48134000D03*
X36205000Y48134000D03*
X38745000Y48134000D03*
X41285000Y48134000D03*
X43825000Y48134000D03*
X46365000Y48134000D03*
X48905000Y48134000D03*
X51445000Y48134000D03*
X53985000Y48134000D03*
X56525000Y48134000D03*
X59065000Y48134000D03*
X61605000Y48134000D03*
%TD*%
D14*
%TO.C,SW1*%
X38660000Y9057200D03*
X45160000Y9057200D03*
X38660000Y4557200D03*
X45160000Y4557200D03*
%TD*%
D10*
%TO.C,H2*%
X58560000Y3810000D03*
X59262944Y5507056D03*
X59262944Y2112944D03*
X60960000Y6210000D03*
D11*
X60960000Y3810000D03*
D10*
X60960000Y1410000D03*
X62657056Y5507056D03*
X62657056Y2112944D03*
X63360000Y3810000D03*
%TD*%
D12*
%TO.C,J4*%
X12959000Y4841000D03*
D13*
X10419000Y4841000D03*
X12959000Y7381000D03*
X10419000Y7381000D03*
X12959000Y9921000D03*
X10419000Y9921000D03*
%TD*%
D15*
%TO.C,J1*%
X14382000Y19558000D03*
D16*
X8382000Y19558000D03*
D17*
X11382000Y14858000D03*
%TD*%
M02*
