%TF.GenerationSoftware,KiCad,Pcbnew,7.0.10*%
%TF.CreationDate,2024-01-23T08:52:06+06:30*%
%TF.ProjectId,Project,50726f6a-6563-4742-9e6b-696361645f70,1.0*%
%TF.SameCoordinates,Original*%
%TF.FileFunction,Legend,Top*%
%TF.FilePolarity,Positive*%
%FSLAX46Y46*%
G04 Gerber Fmt 4.6, Leading zero omitted, Abs format (unit mm)*
G04 Created by KiCad (PCBNEW 7.0.10) date 2024-01-23 08:52:06*
%MOMM*%
%LPD*%
G01*
G04 APERTURE LIST*
%ADD10C,0.150000*%
%ADD11C,0.120000*%
G04 APERTURE END LIST*
D10*
X140335095Y-95339819D02*
X140335095Y-96149342D01*
X140335095Y-96149342D02*
X140382714Y-96244580D01*
X140382714Y-96244580D02*
X140430333Y-96292200D01*
X140430333Y-96292200D02*
X140525571Y-96339819D01*
X140525571Y-96339819D02*
X140716047Y-96339819D01*
X140716047Y-96339819D02*
X140811285Y-96292200D01*
X140811285Y-96292200D02*
X140858904Y-96244580D01*
X140858904Y-96244580D02*
X140906523Y-96149342D01*
X140906523Y-96149342D02*
X140906523Y-95339819D01*
X141858904Y-95339819D02*
X141382714Y-95339819D01*
X141382714Y-95339819D02*
X141335095Y-95816009D01*
X141335095Y-95816009D02*
X141382714Y-95768390D01*
X141382714Y-95768390D02*
X141477952Y-95720771D01*
X141477952Y-95720771D02*
X141716047Y-95720771D01*
X141716047Y-95720771D02*
X141811285Y-95768390D01*
X141811285Y-95768390D02*
X141858904Y-95816009D01*
X141858904Y-95816009D02*
X141906523Y-95911247D01*
X141906523Y-95911247D02*
X141906523Y-96149342D01*
X141906523Y-96149342D02*
X141858904Y-96244580D01*
X141858904Y-96244580D02*
X141811285Y-96292200D01*
X141811285Y-96292200D02*
X141716047Y-96339819D01*
X141716047Y-96339819D02*
X141477952Y-96339819D01*
X141477952Y-96339819D02*
X141382714Y-96292200D01*
X141382714Y-96292200D02*
X141335095Y-96244580D01*
X167431819Y-72596333D02*
X168146104Y-72596333D01*
X168146104Y-72596333D02*
X168288961Y-72643952D01*
X168288961Y-72643952D02*
X168384200Y-72739190D01*
X168384200Y-72739190D02*
X168431819Y-72882047D01*
X168431819Y-72882047D02*
X168431819Y-72977285D01*
X167431819Y-72215380D02*
X167431819Y-71596333D01*
X167431819Y-71596333D02*
X167812771Y-71929666D01*
X167812771Y-71929666D02*
X167812771Y-71786809D01*
X167812771Y-71786809D02*
X167860390Y-71691571D01*
X167860390Y-71691571D02*
X167908009Y-71643952D01*
X167908009Y-71643952D02*
X168003247Y-71596333D01*
X168003247Y-71596333D02*
X168241342Y-71596333D01*
X168241342Y-71596333D02*
X168336580Y-71643952D01*
X168336580Y-71643952D02*
X168384200Y-71691571D01*
X168384200Y-71691571D02*
X168431819Y-71786809D01*
X168431819Y-71786809D02*
X168431819Y-72072523D01*
X168431819Y-72072523D02*
X168384200Y-72167761D01*
X168384200Y-72167761D02*
X168336580Y-72215380D01*
X178350057Y-98647238D02*
X178302438Y-98742476D01*
X178302438Y-98742476D02*
X178207200Y-98837714D01*
X178207200Y-98837714D02*
X178064342Y-98980571D01*
X178064342Y-98980571D02*
X178016723Y-99075809D01*
X178016723Y-99075809D02*
X178016723Y-99171047D01*
X178254819Y-99123428D02*
X178207200Y-99218666D01*
X178207200Y-99218666D02*
X178111961Y-99313904D01*
X178111961Y-99313904D02*
X177921485Y-99361523D01*
X177921485Y-99361523D02*
X177588152Y-99361523D01*
X177588152Y-99361523D02*
X177397676Y-99313904D01*
X177397676Y-99313904D02*
X177302438Y-99218666D01*
X177302438Y-99218666D02*
X177254819Y-99123428D01*
X177254819Y-99123428D02*
X177254819Y-98932952D01*
X177254819Y-98932952D02*
X177302438Y-98837714D01*
X177302438Y-98837714D02*
X177397676Y-98742476D01*
X177397676Y-98742476D02*
X177588152Y-98694857D01*
X177588152Y-98694857D02*
X177921485Y-98694857D01*
X177921485Y-98694857D02*
X178111961Y-98742476D01*
X178111961Y-98742476D02*
X178207200Y-98837714D01*
X178207200Y-98837714D02*
X178254819Y-98932952D01*
X178254819Y-98932952D02*
X178254819Y-99123428D01*
X177350057Y-98313904D02*
X177302438Y-98266285D01*
X177302438Y-98266285D02*
X177254819Y-98171047D01*
X177254819Y-98171047D02*
X177254819Y-97932952D01*
X177254819Y-97932952D02*
X177302438Y-97837714D01*
X177302438Y-97837714D02*
X177350057Y-97790095D01*
X177350057Y-97790095D02*
X177445295Y-97742476D01*
X177445295Y-97742476D02*
X177540533Y-97742476D01*
X177540533Y-97742476D02*
X177683390Y-97790095D01*
X177683390Y-97790095D02*
X178254819Y-98361523D01*
X178254819Y-98361523D02*
X178254819Y-97742476D01*
X193494819Y-85732857D02*
X193018628Y-86066190D01*
X193494819Y-86304285D02*
X192494819Y-86304285D01*
X192494819Y-86304285D02*
X192494819Y-85923333D01*
X192494819Y-85923333D02*
X192542438Y-85828095D01*
X192542438Y-85828095D02*
X192590057Y-85780476D01*
X192590057Y-85780476D02*
X192685295Y-85732857D01*
X192685295Y-85732857D02*
X192828152Y-85732857D01*
X192828152Y-85732857D02*
X192923390Y-85780476D01*
X192923390Y-85780476D02*
X192971009Y-85828095D01*
X192971009Y-85828095D02*
X193018628Y-85923333D01*
X193018628Y-85923333D02*
X193018628Y-86304285D01*
X193494819Y-84780476D02*
X193494819Y-85351904D01*
X193494819Y-85066190D02*
X192494819Y-85066190D01*
X192494819Y-85066190D02*
X192637676Y-85161428D01*
X192637676Y-85161428D02*
X192732914Y-85256666D01*
X192732914Y-85256666D02*
X192780533Y-85351904D01*
X192494819Y-84447142D02*
X192494819Y-83780476D01*
X192494819Y-83780476D02*
X193494819Y-84209047D01*
X132534819Y-85732857D02*
X132058628Y-86066190D01*
X132534819Y-86304285D02*
X131534819Y-86304285D01*
X131534819Y-86304285D02*
X131534819Y-85923333D01*
X131534819Y-85923333D02*
X131582438Y-85828095D01*
X131582438Y-85828095D02*
X131630057Y-85780476D01*
X131630057Y-85780476D02*
X131725295Y-85732857D01*
X131725295Y-85732857D02*
X131868152Y-85732857D01*
X131868152Y-85732857D02*
X131963390Y-85780476D01*
X131963390Y-85780476D02*
X132011009Y-85828095D01*
X132011009Y-85828095D02*
X132058628Y-85923333D01*
X132058628Y-85923333D02*
X132058628Y-86304285D01*
X131534819Y-85399523D02*
X131534819Y-84780476D01*
X131534819Y-84780476D02*
X131915771Y-85113809D01*
X131915771Y-85113809D02*
X131915771Y-84970952D01*
X131915771Y-84970952D02*
X131963390Y-84875714D01*
X131963390Y-84875714D02*
X132011009Y-84828095D01*
X132011009Y-84828095D02*
X132106247Y-84780476D01*
X132106247Y-84780476D02*
X132344342Y-84780476D01*
X132344342Y-84780476D02*
X132439580Y-84828095D01*
X132439580Y-84828095D02*
X132487200Y-84875714D01*
X132487200Y-84875714D02*
X132534819Y-84970952D01*
X132534819Y-84970952D02*
X132534819Y-85256666D01*
X132534819Y-85256666D02*
X132487200Y-85351904D01*
X132487200Y-85351904D02*
X132439580Y-85399523D01*
X131630057Y-84399523D02*
X131582438Y-84351904D01*
X131582438Y-84351904D02*
X131534819Y-84256666D01*
X131534819Y-84256666D02*
X131534819Y-84018571D01*
X131534819Y-84018571D02*
X131582438Y-83923333D01*
X131582438Y-83923333D02*
X131630057Y-83875714D01*
X131630057Y-83875714D02*
X131725295Y-83828095D01*
X131725295Y-83828095D02*
X131820533Y-83828095D01*
X131820533Y-83828095D02*
X131963390Y-83875714D01*
X131963390Y-83875714D02*
X132534819Y-84447142D01*
X132534819Y-84447142D02*
X132534819Y-83828095D01*
X182064819Y-85732857D02*
X181588628Y-86066190D01*
X182064819Y-86304285D02*
X181064819Y-86304285D01*
X181064819Y-86304285D02*
X181064819Y-85923333D01*
X181064819Y-85923333D02*
X181112438Y-85828095D01*
X181112438Y-85828095D02*
X181160057Y-85780476D01*
X181160057Y-85780476D02*
X181255295Y-85732857D01*
X181255295Y-85732857D02*
X181398152Y-85732857D01*
X181398152Y-85732857D02*
X181493390Y-85780476D01*
X181493390Y-85780476D02*
X181541009Y-85828095D01*
X181541009Y-85828095D02*
X181588628Y-85923333D01*
X181588628Y-85923333D02*
X181588628Y-86304285D01*
X182064819Y-84780476D02*
X182064819Y-85351904D01*
X182064819Y-85066190D02*
X181064819Y-85066190D01*
X181064819Y-85066190D02*
X181207676Y-85161428D01*
X181207676Y-85161428D02*
X181302914Y-85256666D01*
X181302914Y-85256666D02*
X181350533Y-85351904D01*
X181398152Y-83923333D02*
X182064819Y-83923333D01*
X181017200Y-84161428D02*
X181731485Y-84399523D01*
X181731485Y-84399523D02*
X181731485Y-83780476D01*
X103953333Y-119659580D02*
X103905714Y-119707200D01*
X103905714Y-119707200D02*
X103762857Y-119754819D01*
X103762857Y-119754819D02*
X103667619Y-119754819D01*
X103667619Y-119754819D02*
X103524762Y-119707200D01*
X103524762Y-119707200D02*
X103429524Y-119611961D01*
X103429524Y-119611961D02*
X103381905Y-119516723D01*
X103381905Y-119516723D02*
X103334286Y-119326247D01*
X103334286Y-119326247D02*
X103334286Y-119183390D01*
X103334286Y-119183390D02*
X103381905Y-118992914D01*
X103381905Y-118992914D02*
X103429524Y-118897676D01*
X103429524Y-118897676D02*
X103524762Y-118802438D01*
X103524762Y-118802438D02*
X103667619Y-118754819D01*
X103667619Y-118754819D02*
X103762857Y-118754819D01*
X103762857Y-118754819D02*
X103905714Y-118802438D01*
X103905714Y-118802438D02*
X103953333Y-118850057D01*
X104905714Y-119754819D02*
X104334286Y-119754819D01*
X104620000Y-119754819D02*
X104620000Y-118754819D01*
X104620000Y-118754819D02*
X104524762Y-118897676D01*
X104524762Y-118897676D02*
X104429524Y-118992914D01*
X104429524Y-118992914D02*
X104334286Y-119040533D01*
X105864819Y-85732857D02*
X105388628Y-86066190D01*
X105864819Y-86304285D02*
X104864819Y-86304285D01*
X104864819Y-86304285D02*
X104864819Y-85923333D01*
X104864819Y-85923333D02*
X104912438Y-85828095D01*
X104912438Y-85828095D02*
X104960057Y-85780476D01*
X104960057Y-85780476D02*
X105055295Y-85732857D01*
X105055295Y-85732857D02*
X105198152Y-85732857D01*
X105198152Y-85732857D02*
X105293390Y-85780476D01*
X105293390Y-85780476D02*
X105341009Y-85828095D01*
X105341009Y-85828095D02*
X105388628Y-85923333D01*
X105388628Y-85923333D02*
X105388628Y-86304285D01*
X105864819Y-84780476D02*
X105864819Y-85351904D01*
X105864819Y-85066190D02*
X104864819Y-85066190D01*
X104864819Y-85066190D02*
X105007676Y-85161428D01*
X105007676Y-85161428D02*
X105102914Y-85256666D01*
X105102914Y-85256666D02*
X105150533Y-85351904D01*
X105293390Y-84209047D02*
X105245771Y-84304285D01*
X105245771Y-84304285D02*
X105198152Y-84351904D01*
X105198152Y-84351904D02*
X105102914Y-84399523D01*
X105102914Y-84399523D02*
X105055295Y-84399523D01*
X105055295Y-84399523D02*
X104960057Y-84351904D01*
X104960057Y-84351904D02*
X104912438Y-84304285D01*
X104912438Y-84304285D02*
X104864819Y-84209047D01*
X104864819Y-84209047D02*
X104864819Y-84018571D01*
X104864819Y-84018571D02*
X104912438Y-83923333D01*
X104912438Y-83923333D02*
X104960057Y-83875714D01*
X104960057Y-83875714D02*
X105055295Y-83828095D01*
X105055295Y-83828095D02*
X105102914Y-83828095D01*
X105102914Y-83828095D02*
X105198152Y-83875714D01*
X105198152Y-83875714D02*
X105245771Y-83923333D01*
X105245771Y-83923333D02*
X105293390Y-84018571D01*
X105293390Y-84018571D02*
X105293390Y-84209047D01*
X105293390Y-84209047D02*
X105341009Y-84304285D01*
X105341009Y-84304285D02*
X105388628Y-84351904D01*
X105388628Y-84351904D02*
X105483866Y-84399523D01*
X105483866Y-84399523D02*
X105674342Y-84399523D01*
X105674342Y-84399523D02*
X105769580Y-84351904D01*
X105769580Y-84351904D02*
X105817200Y-84304285D01*
X105817200Y-84304285D02*
X105864819Y-84209047D01*
X105864819Y-84209047D02*
X105864819Y-84018571D01*
X105864819Y-84018571D02*
X105817200Y-83923333D01*
X105817200Y-83923333D02*
X105769580Y-83875714D01*
X105769580Y-83875714D02*
X105674342Y-83828095D01*
X105674342Y-83828095D02*
X105483866Y-83828095D01*
X105483866Y-83828095D02*
X105388628Y-83875714D01*
X105388628Y-83875714D02*
X105341009Y-83923333D01*
X105341009Y-83923333D02*
X105293390Y-84018571D01*
X193200057Y-105515238D02*
X193152438Y-105610476D01*
X193152438Y-105610476D02*
X193057200Y-105705714D01*
X193057200Y-105705714D02*
X192914342Y-105848571D01*
X192914342Y-105848571D02*
X192866723Y-105943809D01*
X192866723Y-105943809D02*
X192866723Y-106039047D01*
X193104819Y-105991428D02*
X193057200Y-106086666D01*
X193057200Y-106086666D02*
X192961961Y-106181904D01*
X192961961Y-106181904D02*
X192771485Y-106229523D01*
X192771485Y-106229523D02*
X192438152Y-106229523D01*
X192438152Y-106229523D02*
X192247676Y-106181904D01*
X192247676Y-106181904D02*
X192152438Y-106086666D01*
X192152438Y-106086666D02*
X192104819Y-105991428D01*
X192104819Y-105991428D02*
X192104819Y-105800952D01*
X192104819Y-105800952D02*
X192152438Y-105705714D01*
X192152438Y-105705714D02*
X192247676Y-105610476D01*
X192247676Y-105610476D02*
X192438152Y-105562857D01*
X192438152Y-105562857D02*
X192771485Y-105562857D01*
X192771485Y-105562857D02*
X192961961Y-105610476D01*
X192961961Y-105610476D02*
X193057200Y-105705714D01*
X193057200Y-105705714D02*
X193104819Y-105800952D01*
X193104819Y-105800952D02*
X193104819Y-105991428D01*
X192104819Y-105229523D02*
X192104819Y-104610476D01*
X192104819Y-104610476D02*
X192485771Y-104943809D01*
X192485771Y-104943809D02*
X192485771Y-104800952D01*
X192485771Y-104800952D02*
X192533390Y-104705714D01*
X192533390Y-104705714D02*
X192581009Y-104658095D01*
X192581009Y-104658095D02*
X192676247Y-104610476D01*
X192676247Y-104610476D02*
X192914342Y-104610476D01*
X192914342Y-104610476D02*
X193009580Y-104658095D01*
X193009580Y-104658095D02*
X193057200Y-104705714D01*
X193057200Y-104705714D02*
X193104819Y-104800952D01*
X193104819Y-104800952D02*
X193104819Y-105086666D01*
X193104819Y-105086666D02*
X193057200Y-105181904D01*
X193057200Y-105181904D02*
X193009580Y-105229523D01*
X108584819Y-102563333D02*
X109299104Y-102563333D01*
X109299104Y-102563333D02*
X109441961Y-102610952D01*
X109441961Y-102610952D02*
X109537200Y-102706190D01*
X109537200Y-102706190D02*
X109584819Y-102849047D01*
X109584819Y-102849047D02*
X109584819Y-102944285D01*
X108918152Y-101658571D02*
X109584819Y-101658571D01*
X108537200Y-101896666D02*
X109251485Y-102134761D01*
X109251485Y-102134761D02*
X109251485Y-101515714D01*
X136344819Y-85732857D02*
X135868628Y-86066190D01*
X136344819Y-86304285D02*
X135344819Y-86304285D01*
X135344819Y-86304285D02*
X135344819Y-85923333D01*
X135344819Y-85923333D02*
X135392438Y-85828095D01*
X135392438Y-85828095D02*
X135440057Y-85780476D01*
X135440057Y-85780476D02*
X135535295Y-85732857D01*
X135535295Y-85732857D02*
X135678152Y-85732857D01*
X135678152Y-85732857D02*
X135773390Y-85780476D01*
X135773390Y-85780476D02*
X135821009Y-85828095D01*
X135821009Y-85828095D02*
X135868628Y-85923333D01*
X135868628Y-85923333D02*
X135868628Y-86304285D01*
X136344819Y-84780476D02*
X136344819Y-85351904D01*
X136344819Y-85066190D02*
X135344819Y-85066190D01*
X135344819Y-85066190D02*
X135487676Y-85161428D01*
X135487676Y-85161428D02*
X135582914Y-85256666D01*
X135582914Y-85256666D02*
X135630533Y-85351904D01*
X136344819Y-84304285D02*
X136344819Y-84113809D01*
X136344819Y-84113809D02*
X136297200Y-84018571D01*
X136297200Y-84018571D02*
X136249580Y-83970952D01*
X136249580Y-83970952D02*
X136106723Y-83875714D01*
X136106723Y-83875714D02*
X135916247Y-83828095D01*
X135916247Y-83828095D02*
X135535295Y-83828095D01*
X135535295Y-83828095D02*
X135440057Y-83875714D01*
X135440057Y-83875714D02*
X135392438Y-83923333D01*
X135392438Y-83923333D02*
X135344819Y-84018571D01*
X135344819Y-84018571D02*
X135344819Y-84209047D01*
X135344819Y-84209047D02*
X135392438Y-84304285D01*
X135392438Y-84304285D02*
X135440057Y-84351904D01*
X135440057Y-84351904D02*
X135535295Y-84399523D01*
X135535295Y-84399523D02*
X135773390Y-84399523D01*
X135773390Y-84399523D02*
X135868628Y-84351904D01*
X135868628Y-84351904D02*
X135916247Y-84304285D01*
X135916247Y-84304285D02*
X135963866Y-84209047D01*
X135963866Y-84209047D02*
X135963866Y-84018571D01*
X135963866Y-84018571D02*
X135916247Y-83923333D01*
X135916247Y-83923333D02*
X135868628Y-83875714D01*
X135868628Y-83875714D02*
X135773390Y-83828095D01*
X185874819Y-85732857D02*
X185398628Y-86066190D01*
X185874819Y-86304285D02*
X184874819Y-86304285D01*
X184874819Y-86304285D02*
X184874819Y-85923333D01*
X184874819Y-85923333D02*
X184922438Y-85828095D01*
X184922438Y-85828095D02*
X184970057Y-85780476D01*
X184970057Y-85780476D02*
X185065295Y-85732857D01*
X185065295Y-85732857D02*
X185208152Y-85732857D01*
X185208152Y-85732857D02*
X185303390Y-85780476D01*
X185303390Y-85780476D02*
X185351009Y-85828095D01*
X185351009Y-85828095D02*
X185398628Y-85923333D01*
X185398628Y-85923333D02*
X185398628Y-86304285D01*
X185874819Y-84780476D02*
X185874819Y-85351904D01*
X185874819Y-85066190D02*
X184874819Y-85066190D01*
X184874819Y-85066190D02*
X185017676Y-85161428D01*
X185017676Y-85161428D02*
X185112914Y-85256666D01*
X185112914Y-85256666D02*
X185160533Y-85351904D01*
X184874819Y-83875714D02*
X184874819Y-84351904D01*
X184874819Y-84351904D02*
X185351009Y-84399523D01*
X185351009Y-84399523D02*
X185303390Y-84351904D01*
X185303390Y-84351904D02*
X185255771Y-84256666D01*
X185255771Y-84256666D02*
X185255771Y-84018571D01*
X185255771Y-84018571D02*
X185303390Y-83923333D01*
X185303390Y-83923333D02*
X185351009Y-83875714D01*
X185351009Y-83875714D02*
X185446247Y-83828095D01*
X185446247Y-83828095D02*
X185684342Y-83828095D01*
X185684342Y-83828095D02*
X185779580Y-83875714D01*
X185779580Y-83875714D02*
X185827200Y-83923333D01*
X185827200Y-83923333D02*
X185874819Y-84018571D01*
X185874819Y-84018571D02*
X185874819Y-84256666D01*
X185874819Y-84256666D02*
X185827200Y-84351904D01*
X185827200Y-84351904D02*
X185779580Y-84399523D01*
X159204819Y-85732857D02*
X158728628Y-86066190D01*
X159204819Y-86304285D02*
X158204819Y-86304285D01*
X158204819Y-86304285D02*
X158204819Y-85923333D01*
X158204819Y-85923333D02*
X158252438Y-85828095D01*
X158252438Y-85828095D02*
X158300057Y-85780476D01*
X158300057Y-85780476D02*
X158395295Y-85732857D01*
X158395295Y-85732857D02*
X158538152Y-85732857D01*
X158538152Y-85732857D02*
X158633390Y-85780476D01*
X158633390Y-85780476D02*
X158681009Y-85828095D01*
X158681009Y-85828095D02*
X158728628Y-85923333D01*
X158728628Y-85923333D02*
X158728628Y-86304285D01*
X158204819Y-85399523D02*
X158204819Y-84780476D01*
X158204819Y-84780476D02*
X158585771Y-85113809D01*
X158585771Y-85113809D02*
X158585771Y-84970952D01*
X158585771Y-84970952D02*
X158633390Y-84875714D01*
X158633390Y-84875714D02*
X158681009Y-84828095D01*
X158681009Y-84828095D02*
X158776247Y-84780476D01*
X158776247Y-84780476D02*
X159014342Y-84780476D01*
X159014342Y-84780476D02*
X159109580Y-84828095D01*
X159109580Y-84828095D02*
X159157200Y-84875714D01*
X159157200Y-84875714D02*
X159204819Y-84970952D01*
X159204819Y-84970952D02*
X159204819Y-85256666D01*
X159204819Y-85256666D02*
X159157200Y-85351904D01*
X159157200Y-85351904D02*
X159109580Y-85399523D01*
X159204819Y-83828095D02*
X159204819Y-84399523D01*
X159204819Y-84113809D02*
X158204819Y-84113809D01*
X158204819Y-84113809D02*
X158347676Y-84209047D01*
X158347676Y-84209047D02*
X158442914Y-84304285D01*
X158442914Y-84304285D02*
X158490533Y-84399523D01*
X136824819Y-72596333D02*
X137539104Y-72596333D01*
X137539104Y-72596333D02*
X137681961Y-72643952D01*
X137681961Y-72643952D02*
X137777200Y-72739190D01*
X137777200Y-72739190D02*
X137824819Y-72882047D01*
X137824819Y-72882047D02*
X137824819Y-72977285D01*
X136920057Y-72167761D02*
X136872438Y-72120142D01*
X136872438Y-72120142D02*
X136824819Y-72024904D01*
X136824819Y-72024904D02*
X136824819Y-71786809D01*
X136824819Y-71786809D02*
X136872438Y-71691571D01*
X136872438Y-71691571D02*
X136920057Y-71643952D01*
X136920057Y-71643952D02*
X137015295Y-71596333D01*
X137015295Y-71596333D02*
X137110533Y-71596333D01*
X137110533Y-71596333D02*
X137253390Y-71643952D01*
X137253390Y-71643952D02*
X137824819Y-72215380D01*
X137824819Y-72215380D02*
X137824819Y-71596333D01*
X193200057Y-120755238D02*
X193152438Y-120850476D01*
X193152438Y-120850476D02*
X193057200Y-120945714D01*
X193057200Y-120945714D02*
X192914342Y-121088571D01*
X192914342Y-121088571D02*
X192866723Y-121183809D01*
X192866723Y-121183809D02*
X192866723Y-121279047D01*
X193104819Y-121231428D02*
X193057200Y-121326666D01*
X193057200Y-121326666D02*
X192961961Y-121421904D01*
X192961961Y-121421904D02*
X192771485Y-121469523D01*
X192771485Y-121469523D02*
X192438152Y-121469523D01*
X192438152Y-121469523D02*
X192247676Y-121421904D01*
X192247676Y-121421904D02*
X192152438Y-121326666D01*
X192152438Y-121326666D02*
X192104819Y-121231428D01*
X192104819Y-121231428D02*
X192104819Y-121040952D01*
X192104819Y-121040952D02*
X192152438Y-120945714D01*
X192152438Y-120945714D02*
X192247676Y-120850476D01*
X192247676Y-120850476D02*
X192438152Y-120802857D01*
X192438152Y-120802857D02*
X192771485Y-120802857D01*
X192771485Y-120802857D02*
X192961961Y-120850476D01*
X192961961Y-120850476D02*
X193057200Y-120945714D01*
X193057200Y-120945714D02*
X193104819Y-121040952D01*
X193104819Y-121040952D02*
X193104819Y-121231428D01*
X192104819Y-120469523D02*
X192104819Y-119802857D01*
X192104819Y-119802857D02*
X193104819Y-120231428D01*
X196516666Y-90484819D02*
X196516666Y-91199104D01*
X196516666Y-91199104D02*
X196469047Y-91341961D01*
X196469047Y-91341961D02*
X196373809Y-91437200D01*
X196373809Y-91437200D02*
X196230952Y-91484819D01*
X196230952Y-91484819D02*
X196135714Y-91484819D01*
X197469047Y-90484819D02*
X196992857Y-90484819D01*
X196992857Y-90484819D02*
X196945238Y-90961009D01*
X196945238Y-90961009D02*
X196992857Y-90913390D01*
X196992857Y-90913390D02*
X197088095Y-90865771D01*
X197088095Y-90865771D02*
X197326190Y-90865771D01*
X197326190Y-90865771D02*
X197421428Y-90913390D01*
X197421428Y-90913390D02*
X197469047Y-90961009D01*
X197469047Y-90961009D02*
X197516666Y-91056247D01*
X197516666Y-91056247D02*
X197516666Y-91294342D01*
X197516666Y-91294342D02*
X197469047Y-91389580D01*
X197469047Y-91389580D02*
X197421428Y-91437200D01*
X197421428Y-91437200D02*
X197326190Y-91484819D01*
X197326190Y-91484819D02*
X197088095Y-91484819D01*
X197088095Y-91484819D02*
X196992857Y-91437200D01*
X196992857Y-91437200D02*
X196945238Y-91389580D01*
X166965333Y-128089819D02*
X166632000Y-127613628D01*
X166393905Y-128089819D02*
X166393905Y-127089819D01*
X166393905Y-127089819D02*
X166774857Y-127089819D01*
X166774857Y-127089819D02*
X166870095Y-127137438D01*
X166870095Y-127137438D02*
X166917714Y-127185057D01*
X166917714Y-127185057D02*
X166965333Y-127280295D01*
X166965333Y-127280295D02*
X166965333Y-127423152D01*
X166965333Y-127423152D02*
X166917714Y-127518390D01*
X166917714Y-127518390D02*
X166870095Y-127566009D01*
X166870095Y-127566009D02*
X166774857Y-127613628D01*
X166774857Y-127613628D02*
X166393905Y-127613628D01*
X167870095Y-127089819D02*
X167393905Y-127089819D01*
X167393905Y-127089819D02*
X167346286Y-127566009D01*
X167346286Y-127566009D02*
X167393905Y-127518390D01*
X167393905Y-127518390D02*
X167489143Y-127470771D01*
X167489143Y-127470771D02*
X167727238Y-127470771D01*
X167727238Y-127470771D02*
X167822476Y-127518390D01*
X167822476Y-127518390D02*
X167870095Y-127566009D01*
X167870095Y-127566009D02*
X167917714Y-127661247D01*
X167917714Y-127661247D02*
X167917714Y-127899342D01*
X167917714Y-127899342D02*
X167870095Y-127994580D01*
X167870095Y-127994580D02*
X167822476Y-128042200D01*
X167822476Y-128042200D02*
X167727238Y-128089819D01*
X167727238Y-128089819D02*
X167489143Y-128089819D01*
X167489143Y-128089819D02*
X167393905Y-128042200D01*
X167393905Y-128042200D02*
X167346286Y-127994580D01*
X166965333Y-120469819D02*
X166632000Y-119993628D01*
X166393905Y-120469819D02*
X166393905Y-119469819D01*
X166393905Y-119469819D02*
X166774857Y-119469819D01*
X166774857Y-119469819D02*
X166870095Y-119517438D01*
X166870095Y-119517438D02*
X166917714Y-119565057D01*
X166917714Y-119565057D02*
X166965333Y-119660295D01*
X166965333Y-119660295D02*
X166965333Y-119803152D01*
X166965333Y-119803152D02*
X166917714Y-119898390D01*
X166917714Y-119898390D02*
X166870095Y-119946009D01*
X166870095Y-119946009D02*
X166774857Y-119993628D01*
X166774857Y-119993628D02*
X166393905Y-119993628D01*
X167298667Y-119469819D02*
X167917714Y-119469819D01*
X167917714Y-119469819D02*
X167584381Y-119850771D01*
X167584381Y-119850771D02*
X167727238Y-119850771D01*
X167727238Y-119850771D02*
X167822476Y-119898390D01*
X167822476Y-119898390D02*
X167870095Y-119946009D01*
X167870095Y-119946009D02*
X167917714Y-120041247D01*
X167917714Y-120041247D02*
X167917714Y-120279342D01*
X167917714Y-120279342D02*
X167870095Y-120374580D01*
X167870095Y-120374580D02*
X167822476Y-120422200D01*
X167822476Y-120422200D02*
X167727238Y-120469819D01*
X167727238Y-120469819D02*
X167441524Y-120469819D01*
X167441524Y-120469819D02*
X167346286Y-120422200D01*
X167346286Y-120422200D02*
X167298667Y-120374580D01*
X166965333Y-131899819D02*
X166632000Y-131423628D01*
X166393905Y-131899819D02*
X166393905Y-130899819D01*
X166393905Y-130899819D02*
X166774857Y-130899819D01*
X166774857Y-130899819D02*
X166870095Y-130947438D01*
X166870095Y-130947438D02*
X166917714Y-130995057D01*
X166917714Y-130995057D02*
X166965333Y-131090295D01*
X166965333Y-131090295D02*
X166965333Y-131233152D01*
X166965333Y-131233152D02*
X166917714Y-131328390D01*
X166917714Y-131328390D02*
X166870095Y-131376009D01*
X166870095Y-131376009D02*
X166774857Y-131423628D01*
X166774857Y-131423628D02*
X166393905Y-131423628D01*
X167822476Y-130899819D02*
X167632000Y-130899819D01*
X167632000Y-130899819D02*
X167536762Y-130947438D01*
X167536762Y-130947438D02*
X167489143Y-130995057D01*
X167489143Y-130995057D02*
X167393905Y-131137914D01*
X167393905Y-131137914D02*
X167346286Y-131328390D01*
X167346286Y-131328390D02*
X167346286Y-131709342D01*
X167346286Y-131709342D02*
X167393905Y-131804580D01*
X167393905Y-131804580D02*
X167441524Y-131852200D01*
X167441524Y-131852200D02*
X167536762Y-131899819D01*
X167536762Y-131899819D02*
X167727238Y-131899819D01*
X167727238Y-131899819D02*
X167822476Y-131852200D01*
X167822476Y-131852200D02*
X167870095Y-131804580D01*
X167870095Y-131804580D02*
X167917714Y-131709342D01*
X167917714Y-131709342D02*
X167917714Y-131471247D01*
X167917714Y-131471247D02*
X167870095Y-131376009D01*
X167870095Y-131376009D02*
X167822476Y-131328390D01*
X167822476Y-131328390D02*
X167727238Y-131280771D01*
X167727238Y-131280771D02*
X167536762Y-131280771D01*
X167536762Y-131280771D02*
X167441524Y-131328390D01*
X167441524Y-131328390D02*
X167393905Y-131376009D01*
X167393905Y-131376009D02*
X167346286Y-131471247D01*
X166965333Y-112849819D02*
X166632000Y-112373628D01*
X166393905Y-112849819D02*
X166393905Y-111849819D01*
X166393905Y-111849819D02*
X166774857Y-111849819D01*
X166774857Y-111849819D02*
X166870095Y-111897438D01*
X166870095Y-111897438D02*
X166917714Y-111945057D01*
X166917714Y-111945057D02*
X166965333Y-112040295D01*
X166965333Y-112040295D02*
X166965333Y-112183152D01*
X166965333Y-112183152D02*
X166917714Y-112278390D01*
X166917714Y-112278390D02*
X166870095Y-112326009D01*
X166870095Y-112326009D02*
X166774857Y-112373628D01*
X166774857Y-112373628D02*
X166393905Y-112373628D01*
X167917714Y-112849819D02*
X167346286Y-112849819D01*
X167632000Y-112849819D02*
X167632000Y-111849819D01*
X167632000Y-111849819D02*
X167536762Y-111992676D01*
X167536762Y-111992676D02*
X167441524Y-112087914D01*
X167441524Y-112087914D02*
X167346286Y-112135533D01*
X119643628Y-114786190D02*
X120119819Y-114786190D01*
X119119819Y-115119523D02*
X119643628Y-114786190D01*
X119643628Y-114786190D02*
X119119819Y-114452857D01*
X120119819Y-113595714D02*
X120119819Y-114167142D01*
X120119819Y-113881428D02*
X119119819Y-113881428D01*
X119119819Y-113881428D02*
X119262676Y-113976666D01*
X119262676Y-113976666D02*
X119357914Y-114071904D01*
X119357914Y-114071904D02*
X119405533Y-114167142D01*
X193200057Y-113135238D02*
X193152438Y-113230476D01*
X193152438Y-113230476D02*
X193057200Y-113325714D01*
X193057200Y-113325714D02*
X192914342Y-113468571D01*
X192914342Y-113468571D02*
X192866723Y-113563809D01*
X192866723Y-113563809D02*
X192866723Y-113659047D01*
X193104819Y-113611428D02*
X193057200Y-113706666D01*
X193057200Y-113706666D02*
X192961961Y-113801904D01*
X192961961Y-113801904D02*
X192771485Y-113849523D01*
X192771485Y-113849523D02*
X192438152Y-113849523D01*
X192438152Y-113849523D02*
X192247676Y-113801904D01*
X192247676Y-113801904D02*
X192152438Y-113706666D01*
X192152438Y-113706666D02*
X192104819Y-113611428D01*
X192104819Y-113611428D02*
X192104819Y-113420952D01*
X192104819Y-113420952D02*
X192152438Y-113325714D01*
X192152438Y-113325714D02*
X192247676Y-113230476D01*
X192247676Y-113230476D02*
X192438152Y-113182857D01*
X192438152Y-113182857D02*
X192771485Y-113182857D01*
X192771485Y-113182857D02*
X192961961Y-113230476D01*
X192961961Y-113230476D02*
X193057200Y-113325714D01*
X193057200Y-113325714D02*
X193104819Y-113420952D01*
X193104819Y-113420952D02*
X193104819Y-113611428D01*
X192104819Y-112278095D02*
X192104819Y-112754285D01*
X192104819Y-112754285D02*
X192581009Y-112801904D01*
X192581009Y-112801904D02*
X192533390Y-112754285D01*
X192533390Y-112754285D02*
X192485771Y-112659047D01*
X192485771Y-112659047D02*
X192485771Y-112420952D01*
X192485771Y-112420952D02*
X192533390Y-112325714D01*
X192533390Y-112325714D02*
X192581009Y-112278095D01*
X192581009Y-112278095D02*
X192676247Y-112230476D01*
X192676247Y-112230476D02*
X192914342Y-112230476D01*
X192914342Y-112230476D02*
X193009580Y-112278095D01*
X193009580Y-112278095D02*
X193057200Y-112325714D01*
X193057200Y-112325714D02*
X193104819Y-112420952D01*
X193104819Y-112420952D02*
X193104819Y-112659047D01*
X193104819Y-112659047D02*
X193057200Y-112754285D01*
X193057200Y-112754285D02*
X193009580Y-112801904D01*
X189684819Y-85732857D02*
X189208628Y-86066190D01*
X189684819Y-86304285D02*
X188684819Y-86304285D01*
X188684819Y-86304285D02*
X188684819Y-85923333D01*
X188684819Y-85923333D02*
X188732438Y-85828095D01*
X188732438Y-85828095D02*
X188780057Y-85780476D01*
X188780057Y-85780476D02*
X188875295Y-85732857D01*
X188875295Y-85732857D02*
X189018152Y-85732857D01*
X189018152Y-85732857D02*
X189113390Y-85780476D01*
X189113390Y-85780476D02*
X189161009Y-85828095D01*
X189161009Y-85828095D02*
X189208628Y-85923333D01*
X189208628Y-85923333D02*
X189208628Y-86304285D01*
X189684819Y-84780476D02*
X189684819Y-85351904D01*
X189684819Y-85066190D02*
X188684819Y-85066190D01*
X188684819Y-85066190D02*
X188827676Y-85161428D01*
X188827676Y-85161428D02*
X188922914Y-85256666D01*
X188922914Y-85256666D02*
X188970533Y-85351904D01*
X188684819Y-83923333D02*
X188684819Y-84113809D01*
X188684819Y-84113809D02*
X188732438Y-84209047D01*
X188732438Y-84209047D02*
X188780057Y-84256666D01*
X188780057Y-84256666D02*
X188922914Y-84351904D01*
X188922914Y-84351904D02*
X189113390Y-84399523D01*
X189113390Y-84399523D02*
X189494342Y-84399523D01*
X189494342Y-84399523D02*
X189589580Y-84351904D01*
X189589580Y-84351904D02*
X189637200Y-84304285D01*
X189637200Y-84304285D02*
X189684819Y-84209047D01*
X189684819Y-84209047D02*
X189684819Y-84018571D01*
X189684819Y-84018571D02*
X189637200Y-83923333D01*
X189637200Y-83923333D02*
X189589580Y-83875714D01*
X189589580Y-83875714D02*
X189494342Y-83828095D01*
X189494342Y-83828095D02*
X189256247Y-83828095D01*
X189256247Y-83828095D02*
X189161009Y-83875714D01*
X189161009Y-83875714D02*
X189113390Y-83923333D01*
X189113390Y-83923333D02*
X189065771Y-84018571D01*
X189065771Y-84018571D02*
X189065771Y-84209047D01*
X189065771Y-84209047D02*
X189113390Y-84304285D01*
X189113390Y-84304285D02*
X189161009Y-84351904D01*
X189161009Y-84351904D02*
X189256247Y-84399523D01*
X128724819Y-85732857D02*
X128248628Y-86066190D01*
X128724819Y-86304285D02*
X127724819Y-86304285D01*
X127724819Y-86304285D02*
X127724819Y-85923333D01*
X127724819Y-85923333D02*
X127772438Y-85828095D01*
X127772438Y-85828095D02*
X127820057Y-85780476D01*
X127820057Y-85780476D02*
X127915295Y-85732857D01*
X127915295Y-85732857D02*
X128058152Y-85732857D01*
X128058152Y-85732857D02*
X128153390Y-85780476D01*
X128153390Y-85780476D02*
X128201009Y-85828095D01*
X128201009Y-85828095D02*
X128248628Y-85923333D01*
X128248628Y-85923333D02*
X128248628Y-86304285D01*
X127724819Y-85399523D02*
X127724819Y-84780476D01*
X127724819Y-84780476D02*
X128105771Y-85113809D01*
X128105771Y-85113809D02*
X128105771Y-84970952D01*
X128105771Y-84970952D02*
X128153390Y-84875714D01*
X128153390Y-84875714D02*
X128201009Y-84828095D01*
X128201009Y-84828095D02*
X128296247Y-84780476D01*
X128296247Y-84780476D02*
X128534342Y-84780476D01*
X128534342Y-84780476D02*
X128629580Y-84828095D01*
X128629580Y-84828095D02*
X128677200Y-84875714D01*
X128677200Y-84875714D02*
X128724819Y-84970952D01*
X128724819Y-84970952D02*
X128724819Y-85256666D01*
X128724819Y-85256666D02*
X128677200Y-85351904D01*
X128677200Y-85351904D02*
X128629580Y-85399523D01*
X127724819Y-84161428D02*
X127724819Y-84066190D01*
X127724819Y-84066190D02*
X127772438Y-83970952D01*
X127772438Y-83970952D02*
X127820057Y-83923333D01*
X127820057Y-83923333D02*
X127915295Y-83875714D01*
X127915295Y-83875714D02*
X128105771Y-83828095D01*
X128105771Y-83828095D02*
X128343866Y-83828095D01*
X128343866Y-83828095D02*
X128534342Y-83875714D01*
X128534342Y-83875714D02*
X128629580Y-83923333D01*
X128629580Y-83923333D02*
X128677200Y-83970952D01*
X128677200Y-83970952D02*
X128724819Y-84066190D01*
X128724819Y-84066190D02*
X128724819Y-84161428D01*
X128724819Y-84161428D02*
X128677200Y-84256666D01*
X128677200Y-84256666D02*
X128629580Y-84304285D01*
X128629580Y-84304285D02*
X128534342Y-84351904D01*
X128534342Y-84351904D02*
X128343866Y-84399523D01*
X128343866Y-84399523D02*
X128105771Y-84399523D01*
X128105771Y-84399523D02*
X127915295Y-84351904D01*
X127915295Y-84351904D02*
X127820057Y-84304285D01*
X127820057Y-84304285D02*
X127772438Y-84256666D01*
X127772438Y-84256666D02*
X127724819Y-84161428D01*
X183475333Y-128089819D02*
X183142000Y-127613628D01*
X182903905Y-128089819D02*
X182903905Y-127089819D01*
X182903905Y-127089819D02*
X183284857Y-127089819D01*
X183284857Y-127089819D02*
X183380095Y-127137438D01*
X183380095Y-127137438D02*
X183427714Y-127185057D01*
X183427714Y-127185057D02*
X183475333Y-127280295D01*
X183475333Y-127280295D02*
X183475333Y-127423152D01*
X183475333Y-127423152D02*
X183427714Y-127518390D01*
X183427714Y-127518390D02*
X183380095Y-127566009D01*
X183380095Y-127566009D02*
X183284857Y-127613628D01*
X183284857Y-127613628D02*
X182903905Y-127613628D01*
X183808667Y-127089819D02*
X184475333Y-127089819D01*
X184475333Y-127089819D02*
X184046762Y-128089819D01*
X178254819Y-85732857D02*
X177778628Y-86066190D01*
X178254819Y-86304285D02*
X177254819Y-86304285D01*
X177254819Y-86304285D02*
X177254819Y-85923333D01*
X177254819Y-85923333D02*
X177302438Y-85828095D01*
X177302438Y-85828095D02*
X177350057Y-85780476D01*
X177350057Y-85780476D02*
X177445295Y-85732857D01*
X177445295Y-85732857D02*
X177588152Y-85732857D01*
X177588152Y-85732857D02*
X177683390Y-85780476D01*
X177683390Y-85780476D02*
X177731009Y-85828095D01*
X177731009Y-85828095D02*
X177778628Y-85923333D01*
X177778628Y-85923333D02*
X177778628Y-86304285D01*
X178254819Y-84780476D02*
X178254819Y-85351904D01*
X178254819Y-85066190D02*
X177254819Y-85066190D01*
X177254819Y-85066190D02*
X177397676Y-85161428D01*
X177397676Y-85161428D02*
X177492914Y-85256666D01*
X177492914Y-85256666D02*
X177540533Y-85351904D01*
X177254819Y-84447142D02*
X177254819Y-83828095D01*
X177254819Y-83828095D02*
X177635771Y-84161428D01*
X177635771Y-84161428D02*
X177635771Y-84018571D01*
X177635771Y-84018571D02*
X177683390Y-83923333D01*
X177683390Y-83923333D02*
X177731009Y-83875714D01*
X177731009Y-83875714D02*
X177826247Y-83828095D01*
X177826247Y-83828095D02*
X178064342Y-83828095D01*
X178064342Y-83828095D02*
X178159580Y-83875714D01*
X178159580Y-83875714D02*
X178207200Y-83923333D01*
X178207200Y-83923333D02*
X178254819Y-84018571D01*
X178254819Y-84018571D02*
X178254819Y-84304285D01*
X178254819Y-84304285D02*
X178207200Y-84399523D01*
X178207200Y-84399523D02*
X178159580Y-84447142D01*
X117475095Y-95212819D02*
X117475095Y-96022342D01*
X117475095Y-96022342D02*
X117522714Y-96117580D01*
X117522714Y-96117580D02*
X117570333Y-96165200D01*
X117570333Y-96165200D02*
X117665571Y-96212819D01*
X117665571Y-96212819D02*
X117856047Y-96212819D01*
X117856047Y-96212819D02*
X117951285Y-96165200D01*
X117951285Y-96165200D02*
X117998904Y-96117580D01*
X117998904Y-96117580D02*
X118046523Y-96022342D01*
X118046523Y-96022342D02*
X118046523Y-95212819D01*
X118951285Y-95546152D02*
X118951285Y-96212819D01*
X118713190Y-95165200D02*
X118475095Y-95879485D01*
X118475095Y-95879485D02*
X119094142Y-95879485D01*
X193200057Y-97895238D02*
X193152438Y-97990476D01*
X193152438Y-97990476D02*
X193057200Y-98085714D01*
X193057200Y-98085714D02*
X192914342Y-98228571D01*
X192914342Y-98228571D02*
X192866723Y-98323809D01*
X192866723Y-98323809D02*
X192866723Y-98419047D01*
X193104819Y-98371428D02*
X193057200Y-98466666D01*
X193057200Y-98466666D02*
X192961961Y-98561904D01*
X192961961Y-98561904D02*
X192771485Y-98609523D01*
X192771485Y-98609523D02*
X192438152Y-98609523D01*
X192438152Y-98609523D02*
X192247676Y-98561904D01*
X192247676Y-98561904D02*
X192152438Y-98466666D01*
X192152438Y-98466666D02*
X192104819Y-98371428D01*
X192104819Y-98371428D02*
X192104819Y-98180952D01*
X192104819Y-98180952D02*
X192152438Y-98085714D01*
X192152438Y-98085714D02*
X192247676Y-97990476D01*
X192247676Y-97990476D02*
X192438152Y-97942857D01*
X192438152Y-97942857D02*
X192771485Y-97942857D01*
X192771485Y-97942857D02*
X192961961Y-97990476D01*
X192961961Y-97990476D02*
X193057200Y-98085714D01*
X193057200Y-98085714D02*
X193104819Y-98180952D01*
X193104819Y-98180952D02*
X193104819Y-98371428D01*
X193104819Y-96990476D02*
X193104819Y-97561904D01*
X193104819Y-97276190D02*
X192104819Y-97276190D01*
X192104819Y-97276190D02*
X192247676Y-97371428D01*
X192247676Y-97371428D02*
X192342914Y-97466666D01*
X192342914Y-97466666D02*
X192390533Y-97561904D01*
X106344819Y-72596333D02*
X107059104Y-72596333D01*
X107059104Y-72596333D02*
X107201961Y-72643952D01*
X107201961Y-72643952D02*
X107297200Y-72739190D01*
X107297200Y-72739190D02*
X107344819Y-72882047D01*
X107344819Y-72882047D02*
X107344819Y-72977285D01*
X107344819Y-71596333D02*
X107344819Y-72167761D01*
X107344819Y-71882047D02*
X106344819Y-71882047D01*
X106344819Y-71882047D02*
X106487676Y-71977285D01*
X106487676Y-71977285D02*
X106582914Y-72072523D01*
X106582914Y-72072523D02*
X106630533Y-72167761D01*
X166965333Y-124279819D02*
X166632000Y-123803628D01*
X166393905Y-124279819D02*
X166393905Y-123279819D01*
X166393905Y-123279819D02*
X166774857Y-123279819D01*
X166774857Y-123279819D02*
X166870095Y-123327438D01*
X166870095Y-123327438D02*
X166917714Y-123375057D01*
X166917714Y-123375057D02*
X166965333Y-123470295D01*
X166965333Y-123470295D02*
X166965333Y-123613152D01*
X166965333Y-123613152D02*
X166917714Y-123708390D01*
X166917714Y-123708390D02*
X166870095Y-123756009D01*
X166870095Y-123756009D02*
X166774857Y-123803628D01*
X166774857Y-123803628D02*
X166393905Y-123803628D01*
X167822476Y-123613152D02*
X167822476Y-124279819D01*
X167584381Y-123232200D02*
X167346286Y-123946485D01*
X167346286Y-123946485D02*
X167965333Y-123946485D01*
X140154819Y-85732857D02*
X139678628Y-86066190D01*
X140154819Y-86304285D02*
X139154819Y-86304285D01*
X139154819Y-86304285D02*
X139154819Y-85923333D01*
X139154819Y-85923333D02*
X139202438Y-85828095D01*
X139202438Y-85828095D02*
X139250057Y-85780476D01*
X139250057Y-85780476D02*
X139345295Y-85732857D01*
X139345295Y-85732857D02*
X139488152Y-85732857D01*
X139488152Y-85732857D02*
X139583390Y-85780476D01*
X139583390Y-85780476D02*
X139631009Y-85828095D01*
X139631009Y-85828095D02*
X139678628Y-85923333D01*
X139678628Y-85923333D02*
X139678628Y-86304285D01*
X139250057Y-85351904D02*
X139202438Y-85304285D01*
X139202438Y-85304285D02*
X139154819Y-85209047D01*
X139154819Y-85209047D02*
X139154819Y-84970952D01*
X139154819Y-84970952D02*
X139202438Y-84875714D01*
X139202438Y-84875714D02*
X139250057Y-84828095D01*
X139250057Y-84828095D02*
X139345295Y-84780476D01*
X139345295Y-84780476D02*
X139440533Y-84780476D01*
X139440533Y-84780476D02*
X139583390Y-84828095D01*
X139583390Y-84828095D02*
X140154819Y-85399523D01*
X140154819Y-85399523D02*
X140154819Y-84780476D01*
X140154819Y-83828095D02*
X140154819Y-84399523D01*
X140154819Y-84113809D02*
X139154819Y-84113809D01*
X139154819Y-84113809D02*
X139297676Y-84209047D01*
X139297676Y-84209047D02*
X139392914Y-84304285D01*
X139392914Y-84304285D02*
X139440533Y-84399523D01*
X121104819Y-85732857D02*
X120628628Y-86066190D01*
X121104819Y-86304285D02*
X120104819Y-86304285D01*
X120104819Y-86304285D02*
X120104819Y-85923333D01*
X120104819Y-85923333D02*
X120152438Y-85828095D01*
X120152438Y-85828095D02*
X120200057Y-85780476D01*
X120200057Y-85780476D02*
X120295295Y-85732857D01*
X120295295Y-85732857D02*
X120438152Y-85732857D01*
X120438152Y-85732857D02*
X120533390Y-85780476D01*
X120533390Y-85780476D02*
X120581009Y-85828095D01*
X120581009Y-85828095D02*
X120628628Y-85923333D01*
X120628628Y-85923333D02*
X120628628Y-86304285D01*
X120200057Y-85351904D02*
X120152438Y-85304285D01*
X120152438Y-85304285D02*
X120104819Y-85209047D01*
X120104819Y-85209047D02*
X120104819Y-84970952D01*
X120104819Y-84970952D02*
X120152438Y-84875714D01*
X120152438Y-84875714D02*
X120200057Y-84828095D01*
X120200057Y-84828095D02*
X120295295Y-84780476D01*
X120295295Y-84780476D02*
X120390533Y-84780476D01*
X120390533Y-84780476D02*
X120533390Y-84828095D01*
X120533390Y-84828095D02*
X121104819Y-85399523D01*
X121104819Y-85399523D02*
X121104819Y-84780476D01*
X120104819Y-83923333D02*
X120104819Y-84113809D01*
X120104819Y-84113809D02*
X120152438Y-84209047D01*
X120152438Y-84209047D02*
X120200057Y-84256666D01*
X120200057Y-84256666D02*
X120342914Y-84351904D01*
X120342914Y-84351904D02*
X120533390Y-84399523D01*
X120533390Y-84399523D02*
X120914342Y-84399523D01*
X120914342Y-84399523D02*
X121009580Y-84351904D01*
X121009580Y-84351904D02*
X121057200Y-84304285D01*
X121057200Y-84304285D02*
X121104819Y-84209047D01*
X121104819Y-84209047D02*
X121104819Y-84018571D01*
X121104819Y-84018571D02*
X121057200Y-83923333D01*
X121057200Y-83923333D02*
X121009580Y-83875714D01*
X121009580Y-83875714D02*
X120914342Y-83828095D01*
X120914342Y-83828095D02*
X120676247Y-83828095D01*
X120676247Y-83828095D02*
X120581009Y-83875714D01*
X120581009Y-83875714D02*
X120533390Y-83923333D01*
X120533390Y-83923333D02*
X120485771Y-84018571D01*
X120485771Y-84018571D02*
X120485771Y-84209047D01*
X120485771Y-84209047D02*
X120533390Y-84304285D01*
X120533390Y-84304285D02*
X120581009Y-84351904D01*
X120581009Y-84351904D02*
X120676247Y-84399523D01*
X166965333Y-116659819D02*
X166632000Y-116183628D01*
X166393905Y-116659819D02*
X166393905Y-115659819D01*
X166393905Y-115659819D02*
X166774857Y-115659819D01*
X166774857Y-115659819D02*
X166870095Y-115707438D01*
X166870095Y-115707438D02*
X166917714Y-115755057D01*
X166917714Y-115755057D02*
X166965333Y-115850295D01*
X166965333Y-115850295D02*
X166965333Y-115993152D01*
X166965333Y-115993152D02*
X166917714Y-116088390D01*
X166917714Y-116088390D02*
X166870095Y-116136009D01*
X166870095Y-116136009D02*
X166774857Y-116183628D01*
X166774857Y-116183628D02*
X166393905Y-116183628D01*
X167346286Y-115755057D02*
X167393905Y-115707438D01*
X167393905Y-115707438D02*
X167489143Y-115659819D01*
X167489143Y-115659819D02*
X167727238Y-115659819D01*
X167727238Y-115659819D02*
X167822476Y-115707438D01*
X167822476Y-115707438D02*
X167870095Y-115755057D01*
X167870095Y-115755057D02*
X167917714Y-115850295D01*
X167917714Y-115850295D02*
X167917714Y-115945533D01*
X167917714Y-115945533D02*
X167870095Y-116088390D01*
X167870095Y-116088390D02*
X167298667Y-116659819D01*
X167298667Y-116659819D02*
X167917714Y-116659819D01*
X170634819Y-85732857D02*
X170158628Y-86066190D01*
X170634819Y-86304285D02*
X169634819Y-86304285D01*
X169634819Y-86304285D02*
X169634819Y-85923333D01*
X169634819Y-85923333D02*
X169682438Y-85828095D01*
X169682438Y-85828095D02*
X169730057Y-85780476D01*
X169730057Y-85780476D02*
X169825295Y-85732857D01*
X169825295Y-85732857D02*
X169968152Y-85732857D01*
X169968152Y-85732857D02*
X170063390Y-85780476D01*
X170063390Y-85780476D02*
X170111009Y-85828095D01*
X170111009Y-85828095D02*
X170158628Y-85923333D01*
X170158628Y-85923333D02*
X170158628Y-86304285D01*
X170634819Y-84780476D02*
X170634819Y-85351904D01*
X170634819Y-85066190D02*
X169634819Y-85066190D01*
X169634819Y-85066190D02*
X169777676Y-85161428D01*
X169777676Y-85161428D02*
X169872914Y-85256666D01*
X169872914Y-85256666D02*
X169920533Y-85351904D01*
X170634819Y-83828095D02*
X170634819Y-84399523D01*
X170634819Y-84113809D02*
X169634819Y-84113809D01*
X169634819Y-84113809D02*
X169777676Y-84209047D01*
X169777676Y-84209047D02*
X169872914Y-84304285D01*
X169872914Y-84304285D02*
X169920533Y-84399523D01*
X147774819Y-85732857D02*
X147298628Y-86066190D01*
X147774819Y-86304285D02*
X146774819Y-86304285D01*
X146774819Y-86304285D02*
X146774819Y-85923333D01*
X146774819Y-85923333D02*
X146822438Y-85828095D01*
X146822438Y-85828095D02*
X146870057Y-85780476D01*
X146870057Y-85780476D02*
X146965295Y-85732857D01*
X146965295Y-85732857D02*
X147108152Y-85732857D01*
X147108152Y-85732857D02*
X147203390Y-85780476D01*
X147203390Y-85780476D02*
X147251009Y-85828095D01*
X147251009Y-85828095D02*
X147298628Y-85923333D01*
X147298628Y-85923333D02*
X147298628Y-86304285D01*
X146870057Y-85351904D02*
X146822438Y-85304285D01*
X146822438Y-85304285D02*
X146774819Y-85209047D01*
X146774819Y-85209047D02*
X146774819Y-84970952D01*
X146774819Y-84970952D02*
X146822438Y-84875714D01*
X146822438Y-84875714D02*
X146870057Y-84828095D01*
X146870057Y-84828095D02*
X146965295Y-84780476D01*
X146965295Y-84780476D02*
X147060533Y-84780476D01*
X147060533Y-84780476D02*
X147203390Y-84828095D01*
X147203390Y-84828095D02*
X147774819Y-85399523D01*
X147774819Y-85399523D02*
X147774819Y-84780476D01*
X146774819Y-83875714D02*
X146774819Y-84351904D01*
X146774819Y-84351904D02*
X147251009Y-84399523D01*
X147251009Y-84399523D02*
X147203390Y-84351904D01*
X147203390Y-84351904D02*
X147155771Y-84256666D01*
X147155771Y-84256666D02*
X147155771Y-84018571D01*
X147155771Y-84018571D02*
X147203390Y-83923333D01*
X147203390Y-83923333D02*
X147251009Y-83875714D01*
X147251009Y-83875714D02*
X147346247Y-83828095D01*
X147346247Y-83828095D02*
X147584342Y-83828095D01*
X147584342Y-83828095D02*
X147679580Y-83875714D01*
X147679580Y-83875714D02*
X147727200Y-83923333D01*
X147727200Y-83923333D02*
X147774819Y-84018571D01*
X147774819Y-84018571D02*
X147774819Y-84256666D01*
X147774819Y-84256666D02*
X147727200Y-84351904D01*
X147727200Y-84351904D02*
X147679580Y-84399523D01*
X114093333Y-109579580D02*
X114045714Y-109627200D01*
X114045714Y-109627200D02*
X113902857Y-109674819D01*
X113902857Y-109674819D02*
X113807619Y-109674819D01*
X113807619Y-109674819D02*
X113664762Y-109627200D01*
X113664762Y-109627200D02*
X113569524Y-109531961D01*
X113569524Y-109531961D02*
X113521905Y-109436723D01*
X113521905Y-109436723D02*
X113474286Y-109246247D01*
X113474286Y-109246247D02*
X113474286Y-109103390D01*
X113474286Y-109103390D02*
X113521905Y-108912914D01*
X113521905Y-108912914D02*
X113569524Y-108817676D01*
X113569524Y-108817676D02*
X113664762Y-108722438D01*
X113664762Y-108722438D02*
X113807619Y-108674819D01*
X113807619Y-108674819D02*
X113902857Y-108674819D01*
X113902857Y-108674819D02*
X114045714Y-108722438D01*
X114045714Y-108722438D02*
X114093333Y-108770057D01*
X114426667Y-108674819D02*
X115045714Y-108674819D01*
X115045714Y-108674819D02*
X114712381Y-109055771D01*
X114712381Y-109055771D02*
X114855238Y-109055771D01*
X114855238Y-109055771D02*
X114950476Y-109103390D01*
X114950476Y-109103390D02*
X114998095Y-109151009D01*
X114998095Y-109151009D02*
X115045714Y-109246247D01*
X115045714Y-109246247D02*
X115045714Y-109484342D01*
X115045714Y-109484342D02*
X114998095Y-109579580D01*
X114998095Y-109579580D02*
X114950476Y-109627200D01*
X114950476Y-109627200D02*
X114855238Y-109674819D01*
X114855238Y-109674819D02*
X114569524Y-109674819D01*
X114569524Y-109674819D02*
X114474286Y-109627200D01*
X114474286Y-109627200D02*
X114426667Y-109579580D01*
X174444819Y-85732857D02*
X173968628Y-86066190D01*
X174444819Y-86304285D02*
X173444819Y-86304285D01*
X173444819Y-86304285D02*
X173444819Y-85923333D01*
X173444819Y-85923333D02*
X173492438Y-85828095D01*
X173492438Y-85828095D02*
X173540057Y-85780476D01*
X173540057Y-85780476D02*
X173635295Y-85732857D01*
X173635295Y-85732857D02*
X173778152Y-85732857D01*
X173778152Y-85732857D02*
X173873390Y-85780476D01*
X173873390Y-85780476D02*
X173921009Y-85828095D01*
X173921009Y-85828095D02*
X173968628Y-85923333D01*
X173968628Y-85923333D02*
X173968628Y-86304285D01*
X174444819Y-84780476D02*
X174444819Y-85351904D01*
X174444819Y-85066190D02*
X173444819Y-85066190D01*
X173444819Y-85066190D02*
X173587676Y-85161428D01*
X173587676Y-85161428D02*
X173682914Y-85256666D01*
X173682914Y-85256666D02*
X173730533Y-85351904D01*
X173540057Y-84399523D02*
X173492438Y-84351904D01*
X173492438Y-84351904D02*
X173444819Y-84256666D01*
X173444819Y-84256666D02*
X173444819Y-84018571D01*
X173444819Y-84018571D02*
X173492438Y-83923333D01*
X173492438Y-83923333D02*
X173540057Y-83875714D01*
X173540057Y-83875714D02*
X173635295Y-83828095D01*
X173635295Y-83828095D02*
X173730533Y-83828095D01*
X173730533Y-83828095D02*
X173873390Y-83875714D01*
X173873390Y-83875714D02*
X174444819Y-84447142D01*
X174444819Y-84447142D02*
X174444819Y-83828095D01*
X178470057Y-105495238D02*
X178422438Y-105590476D01*
X178422438Y-105590476D02*
X178327200Y-105685714D01*
X178327200Y-105685714D02*
X178184342Y-105828571D01*
X178184342Y-105828571D02*
X178136723Y-105923809D01*
X178136723Y-105923809D02*
X178136723Y-106019047D01*
X178374819Y-105971428D02*
X178327200Y-106066666D01*
X178327200Y-106066666D02*
X178231961Y-106161904D01*
X178231961Y-106161904D02*
X178041485Y-106209523D01*
X178041485Y-106209523D02*
X177708152Y-106209523D01*
X177708152Y-106209523D02*
X177517676Y-106161904D01*
X177517676Y-106161904D02*
X177422438Y-106066666D01*
X177422438Y-106066666D02*
X177374819Y-105971428D01*
X177374819Y-105971428D02*
X177374819Y-105780952D01*
X177374819Y-105780952D02*
X177422438Y-105685714D01*
X177422438Y-105685714D02*
X177517676Y-105590476D01*
X177517676Y-105590476D02*
X177708152Y-105542857D01*
X177708152Y-105542857D02*
X178041485Y-105542857D01*
X178041485Y-105542857D02*
X178231961Y-105590476D01*
X178231961Y-105590476D02*
X178327200Y-105685714D01*
X178327200Y-105685714D02*
X178374819Y-105780952D01*
X178374819Y-105780952D02*
X178374819Y-105971428D01*
X177708152Y-104685714D02*
X178374819Y-104685714D01*
X177327200Y-104923809D02*
X178041485Y-105161904D01*
X178041485Y-105161904D02*
X178041485Y-104542857D01*
X109674819Y-85732857D02*
X109198628Y-86066190D01*
X109674819Y-86304285D02*
X108674819Y-86304285D01*
X108674819Y-86304285D02*
X108674819Y-85923333D01*
X108674819Y-85923333D02*
X108722438Y-85828095D01*
X108722438Y-85828095D02*
X108770057Y-85780476D01*
X108770057Y-85780476D02*
X108865295Y-85732857D01*
X108865295Y-85732857D02*
X109008152Y-85732857D01*
X109008152Y-85732857D02*
X109103390Y-85780476D01*
X109103390Y-85780476D02*
X109151009Y-85828095D01*
X109151009Y-85828095D02*
X109198628Y-85923333D01*
X109198628Y-85923333D02*
X109198628Y-86304285D01*
X108770057Y-85351904D02*
X108722438Y-85304285D01*
X108722438Y-85304285D02*
X108674819Y-85209047D01*
X108674819Y-85209047D02*
X108674819Y-84970952D01*
X108674819Y-84970952D02*
X108722438Y-84875714D01*
X108722438Y-84875714D02*
X108770057Y-84828095D01*
X108770057Y-84828095D02*
X108865295Y-84780476D01*
X108865295Y-84780476D02*
X108960533Y-84780476D01*
X108960533Y-84780476D02*
X109103390Y-84828095D01*
X109103390Y-84828095D02*
X109674819Y-85399523D01*
X109674819Y-85399523D02*
X109674819Y-84780476D01*
X108674819Y-84161428D02*
X108674819Y-84066190D01*
X108674819Y-84066190D02*
X108722438Y-83970952D01*
X108722438Y-83970952D02*
X108770057Y-83923333D01*
X108770057Y-83923333D02*
X108865295Y-83875714D01*
X108865295Y-83875714D02*
X109055771Y-83828095D01*
X109055771Y-83828095D02*
X109293866Y-83828095D01*
X109293866Y-83828095D02*
X109484342Y-83875714D01*
X109484342Y-83875714D02*
X109579580Y-83923333D01*
X109579580Y-83923333D02*
X109627200Y-83970952D01*
X109627200Y-83970952D02*
X109674819Y-84066190D01*
X109674819Y-84066190D02*
X109674819Y-84161428D01*
X109674819Y-84161428D02*
X109627200Y-84256666D01*
X109627200Y-84256666D02*
X109579580Y-84304285D01*
X109579580Y-84304285D02*
X109484342Y-84351904D01*
X109484342Y-84351904D02*
X109293866Y-84399523D01*
X109293866Y-84399523D02*
X109055771Y-84399523D01*
X109055771Y-84399523D02*
X108865295Y-84351904D01*
X108865295Y-84351904D02*
X108770057Y-84304285D01*
X108770057Y-84304285D02*
X108722438Y-84256666D01*
X108722438Y-84256666D02*
X108674819Y-84161428D01*
X163014819Y-85732857D02*
X162538628Y-86066190D01*
X163014819Y-86304285D02*
X162014819Y-86304285D01*
X162014819Y-86304285D02*
X162014819Y-85923333D01*
X162014819Y-85923333D02*
X162062438Y-85828095D01*
X162062438Y-85828095D02*
X162110057Y-85780476D01*
X162110057Y-85780476D02*
X162205295Y-85732857D01*
X162205295Y-85732857D02*
X162348152Y-85732857D01*
X162348152Y-85732857D02*
X162443390Y-85780476D01*
X162443390Y-85780476D02*
X162491009Y-85828095D01*
X162491009Y-85828095D02*
X162538628Y-85923333D01*
X162538628Y-85923333D02*
X162538628Y-86304285D01*
X162014819Y-85399523D02*
X162014819Y-84780476D01*
X162014819Y-84780476D02*
X162395771Y-85113809D01*
X162395771Y-85113809D02*
X162395771Y-84970952D01*
X162395771Y-84970952D02*
X162443390Y-84875714D01*
X162443390Y-84875714D02*
X162491009Y-84828095D01*
X162491009Y-84828095D02*
X162586247Y-84780476D01*
X162586247Y-84780476D02*
X162824342Y-84780476D01*
X162824342Y-84780476D02*
X162919580Y-84828095D01*
X162919580Y-84828095D02*
X162967200Y-84875714D01*
X162967200Y-84875714D02*
X163014819Y-84970952D01*
X163014819Y-84970952D02*
X163014819Y-85256666D01*
X163014819Y-85256666D02*
X162967200Y-85351904D01*
X162967200Y-85351904D02*
X162919580Y-85399523D01*
X162014819Y-84447142D02*
X162014819Y-83828095D01*
X162014819Y-83828095D02*
X162395771Y-84161428D01*
X162395771Y-84161428D02*
X162395771Y-84018571D01*
X162395771Y-84018571D02*
X162443390Y-83923333D01*
X162443390Y-83923333D02*
X162491009Y-83875714D01*
X162491009Y-83875714D02*
X162586247Y-83828095D01*
X162586247Y-83828095D02*
X162824342Y-83828095D01*
X162824342Y-83828095D02*
X162919580Y-83875714D01*
X162919580Y-83875714D02*
X162967200Y-83923333D01*
X162967200Y-83923333D02*
X163014819Y-84018571D01*
X163014819Y-84018571D02*
X163014819Y-84304285D01*
X163014819Y-84304285D02*
X162967200Y-84399523D01*
X162967200Y-84399523D02*
X162919580Y-84447142D01*
X144024819Y-127761904D02*
X144834342Y-127761904D01*
X144834342Y-127761904D02*
X144929580Y-127714285D01*
X144929580Y-127714285D02*
X144977200Y-127666666D01*
X144977200Y-127666666D02*
X145024819Y-127571428D01*
X145024819Y-127571428D02*
X145024819Y-127380952D01*
X145024819Y-127380952D02*
X144977200Y-127285714D01*
X144977200Y-127285714D02*
X144929580Y-127238095D01*
X144929580Y-127238095D02*
X144834342Y-127190476D01*
X144834342Y-127190476D02*
X144024819Y-127190476D01*
X144120057Y-126761904D02*
X144072438Y-126714285D01*
X144072438Y-126714285D02*
X144024819Y-126619047D01*
X144024819Y-126619047D02*
X144024819Y-126380952D01*
X144024819Y-126380952D02*
X144072438Y-126285714D01*
X144072438Y-126285714D02*
X144120057Y-126238095D01*
X144120057Y-126238095D02*
X144215295Y-126190476D01*
X144215295Y-126190476D02*
X144310533Y-126190476D01*
X144310533Y-126190476D02*
X144453390Y-126238095D01*
X144453390Y-126238095D02*
X145024819Y-126809523D01*
X145024819Y-126809523D02*
X145024819Y-126190476D01*
X151584819Y-85732857D02*
X151108628Y-86066190D01*
X151584819Y-86304285D02*
X150584819Y-86304285D01*
X150584819Y-86304285D02*
X150584819Y-85923333D01*
X150584819Y-85923333D02*
X150632438Y-85828095D01*
X150632438Y-85828095D02*
X150680057Y-85780476D01*
X150680057Y-85780476D02*
X150775295Y-85732857D01*
X150775295Y-85732857D02*
X150918152Y-85732857D01*
X150918152Y-85732857D02*
X151013390Y-85780476D01*
X151013390Y-85780476D02*
X151061009Y-85828095D01*
X151061009Y-85828095D02*
X151108628Y-85923333D01*
X151108628Y-85923333D02*
X151108628Y-86304285D01*
X150680057Y-85351904D02*
X150632438Y-85304285D01*
X150632438Y-85304285D02*
X150584819Y-85209047D01*
X150584819Y-85209047D02*
X150584819Y-84970952D01*
X150584819Y-84970952D02*
X150632438Y-84875714D01*
X150632438Y-84875714D02*
X150680057Y-84828095D01*
X150680057Y-84828095D02*
X150775295Y-84780476D01*
X150775295Y-84780476D02*
X150870533Y-84780476D01*
X150870533Y-84780476D02*
X151013390Y-84828095D01*
X151013390Y-84828095D02*
X151584819Y-85399523D01*
X151584819Y-85399523D02*
X151584819Y-84780476D01*
X150584819Y-84447142D02*
X150584819Y-83780476D01*
X150584819Y-83780476D02*
X151584819Y-84209047D01*
X143964819Y-85732857D02*
X143488628Y-86066190D01*
X143964819Y-86304285D02*
X142964819Y-86304285D01*
X142964819Y-86304285D02*
X142964819Y-85923333D01*
X142964819Y-85923333D02*
X143012438Y-85828095D01*
X143012438Y-85828095D02*
X143060057Y-85780476D01*
X143060057Y-85780476D02*
X143155295Y-85732857D01*
X143155295Y-85732857D02*
X143298152Y-85732857D01*
X143298152Y-85732857D02*
X143393390Y-85780476D01*
X143393390Y-85780476D02*
X143441009Y-85828095D01*
X143441009Y-85828095D02*
X143488628Y-85923333D01*
X143488628Y-85923333D02*
X143488628Y-86304285D01*
X143060057Y-85351904D02*
X143012438Y-85304285D01*
X143012438Y-85304285D02*
X142964819Y-85209047D01*
X142964819Y-85209047D02*
X142964819Y-84970952D01*
X142964819Y-84970952D02*
X143012438Y-84875714D01*
X143012438Y-84875714D02*
X143060057Y-84828095D01*
X143060057Y-84828095D02*
X143155295Y-84780476D01*
X143155295Y-84780476D02*
X143250533Y-84780476D01*
X143250533Y-84780476D02*
X143393390Y-84828095D01*
X143393390Y-84828095D02*
X143964819Y-85399523D01*
X143964819Y-85399523D02*
X143964819Y-84780476D01*
X142964819Y-84447142D02*
X142964819Y-83828095D01*
X142964819Y-83828095D02*
X143345771Y-84161428D01*
X143345771Y-84161428D02*
X143345771Y-84018571D01*
X143345771Y-84018571D02*
X143393390Y-83923333D01*
X143393390Y-83923333D02*
X143441009Y-83875714D01*
X143441009Y-83875714D02*
X143536247Y-83828095D01*
X143536247Y-83828095D02*
X143774342Y-83828095D01*
X143774342Y-83828095D02*
X143869580Y-83875714D01*
X143869580Y-83875714D02*
X143917200Y-83923333D01*
X143917200Y-83923333D02*
X143964819Y-84018571D01*
X143964819Y-84018571D02*
X143964819Y-84304285D01*
X143964819Y-84304285D02*
X143917200Y-84399523D01*
X143917200Y-84399523D02*
X143869580Y-84447142D01*
X124914819Y-85732857D02*
X124438628Y-86066190D01*
X124914819Y-86304285D02*
X123914819Y-86304285D01*
X123914819Y-86304285D02*
X123914819Y-85923333D01*
X123914819Y-85923333D02*
X123962438Y-85828095D01*
X123962438Y-85828095D02*
X124010057Y-85780476D01*
X124010057Y-85780476D02*
X124105295Y-85732857D01*
X124105295Y-85732857D02*
X124248152Y-85732857D01*
X124248152Y-85732857D02*
X124343390Y-85780476D01*
X124343390Y-85780476D02*
X124391009Y-85828095D01*
X124391009Y-85828095D02*
X124438628Y-85923333D01*
X124438628Y-85923333D02*
X124438628Y-86304285D01*
X124010057Y-85351904D02*
X123962438Y-85304285D01*
X123962438Y-85304285D02*
X123914819Y-85209047D01*
X123914819Y-85209047D02*
X123914819Y-84970952D01*
X123914819Y-84970952D02*
X123962438Y-84875714D01*
X123962438Y-84875714D02*
X124010057Y-84828095D01*
X124010057Y-84828095D02*
X124105295Y-84780476D01*
X124105295Y-84780476D02*
X124200533Y-84780476D01*
X124200533Y-84780476D02*
X124343390Y-84828095D01*
X124343390Y-84828095D02*
X124914819Y-85399523D01*
X124914819Y-85399523D02*
X124914819Y-84780476D01*
X124343390Y-84209047D02*
X124295771Y-84304285D01*
X124295771Y-84304285D02*
X124248152Y-84351904D01*
X124248152Y-84351904D02*
X124152914Y-84399523D01*
X124152914Y-84399523D02*
X124105295Y-84399523D01*
X124105295Y-84399523D02*
X124010057Y-84351904D01*
X124010057Y-84351904D02*
X123962438Y-84304285D01*
X123962438Y-84304285D02*
X123914819Y-84209047D01*
X123914819Y-84209047D02*
X123914819Y-84018571D01*
X123914819Y-84018571D02*
X123962438Y-83923333D01*
X123962438Y-83923333D02*
X124010057Y-83875714D01*
X124010057Y-83875714D02*
X124105295Y-83828095D01*
X124105295Y-83828095D02*
X124152914Y-83828095D01*
X124152914Y-83828095D02*
X124248152Y-83875714D01*
X124248152Y-83875714D02*
X124295771Y-83923333D01*
X124295771Y-83923333D02*
X124343390Y-84018571D01*
X124343390Y-84018571D02*
X124343390Y-84209047D01*
X124343390Y-84209047D02*
X124391009Y-84304285D01*
X124391009Y-84304285D02*
X124438628Y-84351904D01*
X124438628Y-84351904D02*
X124533866Y-84399523D01*
X124533866Y-84399523D02*
X124724342Y-84399523D01*
X124724342Y-84399523D02*
X124819580Y-84351904D01*
X124819580Y-84351904D02*
X124867200Y-84304285D01*
X124867200Y-84304285D02*
X124914819Y-84209047D01*
X124914819Y-84209047D02*
X124914819Y-84018571D01*
X124914819Y-84018571D02*
X124867200Y-83923333D01*
X124867200Y-83923333D02*
X124819580Y-83875714D01*
X124819580Y-83875714D02*
X124724342Y-83828095D01*
X124724342Y-83828095D02*
X124533866Y-83828095D01*
X124533866Y-83828095D02*
X124438628Y-83875714D01*
X124438628Y-83875714D02*
X124391009Y-83923333D01*
X124391009Y-83923333D02*
X124343390Y-84018571D01*
X114093333Y-119699580D02*
X114045714Y-119747200D01*
X114045714Y-119747200D02*
X113902857Y-119794819D01*
X113902857Y-119794819D02*
X113807619Y-119794819D01*
X113807619Y-119794819D02*
X113664762Y-119747200D01*
X113664762Y-119747200D02*
X113569524Y-119651961D01*
X113569524Y-119651961D02*
X113521905Y-119556723D01*
X113521905Y-119556723D02*
X113474286Y-119366247D01*
X113474286Y-119366247D02*
X113474286Y-119223390D01*
X113474286Y-119223390D02*
X113521905Y-119032914D01*
X113521905Y-119032914D02*
X113569524Y-118937676D01*
X113569524Y-118937676D02*
X113664762Y-118842438D01*
X113664762Y-118842438D02*
X113807619Y-118794819D01*
X113807619Y-118794819D02*
X113902857Y-118794819D01*
X113902857Y-118794819D02*
X114045714Y-118842438D01*
X114045714Y-118842438D02*
X114093333Y-118890057D01*
X114474286Y-118890057D02*
X114521905Y-118842438D01*
X114521905Y-118842438D02*
X114617143Y-118794819D01*
X114617143Y-118794819D02*
X114855238Y-118794819D01*
X114855238Y-118794819D02*
X114950476Y-118842438D01*
X114950476Y-118842438D02*
X114998095Y-118890057D01*
X114998095Y-118890057D02*
X115045714Y-118985295D01*
X115045714Y-118985295D02*
X115045714Y-119080533D01*
X115045714Y-119080533D02*
X114998095Y-119223390D01*
X114998095Y-119223390D02*
X114426667Y-119794819D01*
X114426667Y-119794819D02*
X115045714Y-119794819D01*
X166824819Y-85732857D02*
X166348628Y-86066190D01*
X166824819Y-86304285D02*
X165824819Y-86304285D01*
X165824819Y-86304285D02*
X165824819Y-85923333D01*
X165824819Y-85923333D02*
X165872438Y-85828095D01*
X165872438Y-85828095D02*
X165920057Y-85780476D01*
X165920057Y-85780476D02*
X166015295Y-85732857D01*
X166015295Y-85732857D02*
X166158152Y-85732857D01*
X166158152Y-85732857D02*
X166253390Y-85780476D01*
X166253390Y-85780476D02*
X166301009Y-85828095D01*
X166301009Y-85828095D02*
X166348628Y-85923333D01*
X166348628Y-85923333D02*
X166348628Y-86304285D01*
X166824819Y-84780476D02*
X166824819Y-85351904D01*
X166824819Y-85066190D02*
X165824819Y-85066190D01*
X165824819Y-85066190D02*
X165967676Y-85161428D01*
X165967676Y-85161428D02*
X166062914Y-85256666D01*
X166062914Y-85256666D02*
X166110533Y-85351904D01*
X165824819Y-84161428D02*
X165824819Y-84066190D01*
X165824819Y-84066190D02*
X165872438Y-83970952D01*
X165872438Y-83970952D02*
X165920057Y-83923333D01*
X165920057Y-83923333D02*
X166015295Y-83875714D01*
X166015295Y-83875714D02*
X166205771Y-83828095D01*
X166205771Y-83828095D02*
X166443866Y-83828095D01*
X166443866Y-83828095D02*
X166634342Y-83875714D01*
X166634342Y-83875714D02*
X166729580Y-83923333D01*
X166729580Y-83923333D02*
X166777200Y-83970952D01*
X166777200Y-83970952D02*
X166824819Y-84066190D01*
X166824819Y-84066190D02*
X166824819Y-84161428D01*
X166824819Y-84161428D02*
X166777200Y-84256666D01*
X166777200Y-84256666D02*
X166729580Y-84304285D01*
X166729580Y-84304285D02*
X166634342Y-84351904D01*
X166634342Y-84351904D02*
X166443866Y-84399523D01*
X166443866Y-84399523D02*
X166205771Y-84399523D01*
X166205771Y-84399523D02*
X166015295Y-84351904D01*
X166015295Y-84351904D02*
X165920057Y-84304285D01*
X165920057Y-84304285D02*
X165872438Y-84256666D01*
X165872438Y-84256666D02*
X165824819Y-84161428D01*
X183475333Y-131899819D02*
X183142000Y-131423628D01*
X182903905Y-131899819D02*
X182903905Y-130899819D01*
X182903905Y-130899819D02*
X183284857Y-130899819D01*
X183284857Y-130899819D02*
X183380095Y-130947438D01*
X183380095Y-130947438D02*
X183427714Y-130995057D01*
X183427714Y-130995057D02*
X183475333Y-131090295D01*
X183475333Y-131090295D02*
X183475333Y-131233152D01*
X183475333Y-131233152D02*
X183427714Y-131328390D01*
X183427714Y-131328390D02*
X183380095Y-131376009D01*
X183380095Y-131376009D02*
X183284857Y-131423628D01*
X183284857Y-131423628D02*
X182903905Y-131423628D01*
X184046762Y-131328390D02*
X183951524Y-131280771D01*
X183951524Y-131280771D02*
X183903905Y-131233152D01*
X183903905Y-131233152D02*
X183856286Y-131137914D01*
X183856286Y-131137914D02*
X183856286Y-131090295D01*
X183856286Y-131090295D02*
X183903905Y-130995057D01*
X183903905Y-130995057D02*
X183951524Y-130947438D01*
X183951524Y-130947438D02*
X184046762Y-130899819D01*
X184046762Y-130899819D02*
X184237238Y-130899819D01*
X184237238Y-130899819D02*
X184332476Y-130947438D01*
X184332476Y-130947438D02*
X184380095Y-130995057D01*
X184380095Y-130995057D02*
X184427714Y-131090295D01*
X184427714Y-131090295D02*
X184427714Y-131137914D01*
X184427714Y-131137914D02*
X184380095Y-131233152D01*
X184380095Y-131233152D02*
X184332476Y-131280771D01*
X184332476Y-131280771D02*
X184237238Y-131328390D01*
X184237238Y-131328390D02*
X184046762Y-131328390D01*
X184046762Y-131328390D02*
X183951524Y-131376009D01*
X183951524Y-131376009D02*
X183903905Y-131423628D01*
X183903905Y-131423628D02*
X183856286Y-131518866D01*
X183856286Y-131518866D02*
X183856286Y-131709342D01*
X183856286Y-131709342D02*
X183903905Y-131804580D01*
X183903905Y-131804580D02*
X183951524Y-131852200D01*
X183951524Y-131852200D02*
X184046762Y-131899819D01*
X184046762Y-131899819D02*
X184237238Y-131899819D01*
X184237238Y-131899819D02*
X184332476Y-131852200D01*
X184332476Y-131852200D02*
X184380095Y-131804580D01*
X184380095Y-131804580D02*
X184427714Y-131709342D01*
X184427714Y-131709342D02*
X184427714Y-131518866D01*
X184427714Y-131518866D02*
X184380095Y-131423628D01*
X184380095Y-131423628D02*
X184332476Y-131376009D01*
X184332476Y-131376009D02*
X184237238Y-131328390D01*
X178470057Y-113115238D02*
X178422438Y-113210476D01*
X178422438Y-113210476D02*
X178327200Y-113305714D01*
X178327200Y-113305714D02*
X178184342Y-113448571D01*
X178184342Y-113448571D02*
X178136723Y-113543809D01*
X178136723Y-113543809D02*
X178136723Y-113639047D01*
X178374819Y-113591428D02*
X178327200Y-113686666D01*
X178327200Y-113686666D02*
X178231961Y-113781904D01*
X178231961Y-113781904D02*
X178041485Y-113829523D01*
X178041485Y-113829523D02*
X177708152Y-113829523D01*
X177708152Y-113829523D02*
X177517676Y-113781904D01*
X177517676Y-113781904D02*
X177422438Y-113686666D01*
X177422438Y-113686666D02*
X177374819Y-113591428D01*
X177374819Y-113591428D02*
X177374819Y-113400952D01*
X177374819Y-113400952D02*
X177422438Y-113305714D01*
X177422438Y-113305714D02*
X177517676Y-113210476D01*
X177517676Y-113210476D02*
X177708152Y-113162857D01*
X177708152Y-113162857D02*
X178041485Y-113162857D01*
X178041485Y-113162857D02*
X178231961Y-113210476D01*
X178231961Y-113210476D02*
X178327200Y-113305714D01*
X178327200Y-113305714D02*
X178374819Y-113400952D01*
X178374819Y-113400952D02*
X178374819Y-113591428D01*
X177374819Y-112305714D02*
X177374819Y-112496190D01*
X177374819Y-112496190D02*
X177422438Y-112591428D01*
X177422438Y-112591428D02*
X177470057Y-112639047D01*
X177470057Y-112639047D02*
X177612914Y-112734285D01*
X177612914Y-112734285D02*
X177803390Y-112781904D01*
X177803390Y-112781904D02*
X178184342Y-112781904D01*
X178184342Y-112781904D02*
X178279580Y-112734285D01*
X178279580Y-112734285D02*
X178327200Y-112686666D01*
X178327200Y-112686666D02*
X178374819Y-112591428D01*
X178374819Y-112591428D02*
X178374819Y-112400952D01*
X178374819Y-112400952D02*
X178327200Y-112305714D01*
X178327200Y-112305714D02*
X178279580Y-112258095D01*
X178279580Y-112258095D02*
X178184342Y-112210476D01*
X178184342Y-112210476D02*
X177946247Y-112210476D01*
X177946247Y-112210476D02*
X177851009Y-112258095D01*
X177851009Y-112258095D02*
X177803390Y-112305714D01*
X177803390Y-112305714D02*
X177755771Y-112400952D01*
X177755771Y-112400952D02*
X177755771Y-112591428D01*
X177755771Y-112591428D02*
X177803390Y-112686666D01*
X177803390Y-112686666D02*
X177851009Y-112734285D01*
X177851009Y-112734285D02*
X177946247Y-112781904D01*
X152193333Y-109579580D02*
X152145714Y-109627200D01*
X152145714Y-109627200D02*
X152002857Y-109674819D01*
X152002857Y-109674819D02*
X151907619Y-109674819D01*
X151907619Y-109674819D02*
X151764762Y-109627200D01*
X151764762Y-109627200D02*
X151669524Y-109531961D01*
X151669524Y-109531961D02*
X151621905Y-109436723D01*
X151621905Y-109436723D02*
X151574286Y-109246247D01*
X151574286Y-109246247D02*
X151574286Y-109103390D01*
X151574286Y-109103390D02*
X151621905Y-108912914D01*
X151621905Y-108912914D02*
X151669524Y-108817676D01*
X151669524Y-108817676D02*
X151764762Y-108722438D01*
X151764762Y-108722438D02*
X151907619Y-108674819D01*
X151907619Y-108674819D02*
X152002857Y-108674819D01*
X152002857Y-108674819D02*
X152145714Y-108722438D01*
X152145714Y-108722438D02*
X152193333Y-108770057D01*
X153050476Y-108674819D02*
X152860000Y-108674819D01*
X152860000Y-108674819D02*
X152764762Y-108722438D01*
X152764762Y-108722438D02*
X152717143Y-108770057D01*
X152717143Y-108770057D02*
X152621905Y-108912914D01*
X152621905Y-108912914D02*
X152574286Y-109103390D01*
X152574286Y-109103390D02*
X152574286Y-109484342D01*
X152574286Y-109484342D02*
X152621905Y-109579580D01*
X152621905Y-109579580D02*
X152669524Y-109627200D01*
X152669524Y-109627200D02*
X152764762Y-109674819D01*
X152764762Y-109674819D02*
X152955238Y-109674819D01*
X152955238Y-109674819D02*
X153050476Y-109627200D01*
X153050476Y-109627200D02*
X153098095Y-109579580D01*
X153098095Y-109579580D02*
X153145714Y-109484342D01*
X153145714Y-109484342D02*
X153145714Y-109246247D01*
X153145714Y-109246247D02*
X153098095Y-109151009D01*
X153098095Y-109151009D02*
X153050476Y-109103390D01*
X153050476Y-109103390D02*
X152955238Y-109055771D01*
X152955238Y-109055771D02*
X152764762Y-109055771D01*
X152764762Y-109055771D02*
X152669524Y-109103390D01*
X152669524Y-109103390D02*
X152621905Y-109151009D01*
X152621905Y-109151009D02*
X152574286Y-109246247D01*
X162179095Y-95466819D02*
X162179095Y-96276342D01*
X162179095Y-96276342D02*
X162226714Y-96371580D01*
X162226714Y-96371580D02*
X162274333Y-96419200D01*
X162274333Y-96419200D02*
X162369571Y-96466819D01*
X162369571Y-96466819D02*
X162560047Y-96466819D01*
X162560047Y-96466819D02*
X162655285Y-96419200D01*
X162655285Y-96419200D02*
X162702904Y-96371580D01*
X162702904Y-96371580D02*
X162750523Y-96276342D01*
X162750523Y-96276342D02*
X162750523Y-95466819D01*
X163131476Y-95466819D02*
X163750523Y-95466819D01*
X163750523Y-95466819D02*
X163417190Y-95847771D01*
X163417190Y-95847771D02*
X163560047Y-95847771D01*
X163560047Y-95847771D02*
X163655285Y-95895390D01*
X163655285Y-95895390D02*
X163702904Y-95943009D01*
X163702904Y-95943009D02*
X163750523Y-96038247D01*
X163750523Y-96038247D02*
X163750523Y-96276342D01*
X163750523Y-96276342D02*
X163702904Y-96371580D01*
X163702904Y-96371580D02*
X163655285Y-96419200D01*
X163655285Y-96419200D02*
X163560047Y-96466819D01*
X163560047Y-96466819D02*
X163274333Y-96466819D01*
X163274333Y-96466819D02*
X163179095Y-96419200D01*
X163179095Y-96419200D02*
X163131476Y-96371580D01*
X135723333Y-113304819D02*
X135390000Y-112828628D01*
X135151905Y-113304819D02*
X135151905Y-112304819D01*
X135151905Y-112304819D02*
X135532857Y-112304819D01*
X135532857Y-112304819D02*
X135628095Y-112352438D01*
X135628095Y-112352438D02*
X135675714Y-112400057D01*
X135675714Y-112400057D02*
X135723333Y-112495295D01*
X135723333Y-112495295D02*
X135723333Y-112638152D01*
X135723333Y-112638152D02*
X135675714Y-112733390D01*
X135675714Y-112733390D02*
X135628095Y-112781009D01*
X135628095Y-112781009D02*
X135532857Y-112828628D01*
X135532857Y-112828628D02*
X135151905Y-112828628D01*
X136199524Y-113304819D02*
X136390000Y-113304819D01*
X136390000Y-113304819D02*
X136485238Y-113257200D01*
X136485238Y-113257200D02*
X136532857Y-113209580D01*
X136532857Y-113209580D02*
X136628095Y-113066723D01*
X136628095Y-113066723D02*
X136675714Y-112876247D01*
X136675714Y-112876247D02*
X136675714Y-112495295D01*
X136675714Y-112495295D02*
X136628095Y-112400057D01*
X136628095Y-112400057D02*
X136580476Y-112352438D01*
X136580476Y-112352438D02*
X136485238Y-112304819D01*
X136485238Y-112304819D02*
X136294762Y-112304819D01*
X136294762Y-112304819D02*
X136199524Y-112352438D01*
X136199524Y-112352438D02*
X136151905Y-112400057D01*
X136151905Y-112400057D02*
X136104286Y-112495295D01*
X136104286Y-112495295D02*
X136104286Y-112733390D01*
X136104286Y-112733390D02*
X136151905Y-112828628D01*
X136151905Y-112828628D02*
X136199524Y-112876247D01*
X136199524Y-112876247D02*
X136294762Y-112923866D01*
X136294762Y-112923866D02*
X136485238Y-112923866D01*
X136485238Y-112923866D02*
X136580476Y-112876247D01*
X136580476Y-112876247D02*
X136628095Y-112828628D01*
X136628095Y-112828628D02*
X136675714Y-112733390D01*
X155394819Y-85732857D02*
X154918628Y-86066190D01*
X155394819Y-86304285D02*
X154394819Y-86304285D01*
X154394819Y-86304285D02*
X154394819Y-85923333D01*
X154394819Y-85923333D02*
X154442438Y-85828095D01*
X154442438Y-85828095D02*
X154490057Y-85780476D01*
X154490057Y-85780476D02*
X154585295Y-85732857D01*
X154585295Y-85732857D02*
X154728152Y-85732857D01*
X154728152Y-85732857D02*
X154823390Y-85780476D01*
X154823390Y-85780476D02*
X154871009Y-85828095D01*
X154871009Y-85828095D02*
X154918628Y-85923333D01*
X154918628Y-85923333D02*
X154918628Y-86304285D01*
X154490057Y-85351904D02*
X154442438Y-85304285D01*
X154442438Y-85304285D02*
X154394819Y-85209047D01*
X154394819Y-85209047D02*
X154394819Y-84970952D01*
X154394819Y-84970952D02*
X154442438Y-84875714D01*
X154442438Y-84875714D02*
X154490057Y-84828095D01*
X154490057Y-84828095D02*
X154585295Y-84780476D01*
X154585295Y-84780476D02*
X154680533Y-84780476D01*
X154680533Y-84780476D02*
X154823390Y-84828095D01*
X154823390Y-84828095D02*
X155394819Y-85399523D01*
X155394819Y-85399523D02*
X155394819Y-84780476D01*
X155394819Y-84304285D02*
X155394819Y-84113809D01*
X155394819Y-84113809D02*
X155347200Y-84018571D01*
X155347200Y-84018571D02*
X155299580Y-83970952D01*
X155299580Y-83970952D02*
X155156723Y-83875714D01*
X155156723Y-83875714D02*
X154966247Y-83828095D01*
X154966247Y-83828095D02*
X154585295Y-83828095D01*
X154585295Y-83828095D02*
X154490057Y-83875714D01*
X154490057Y-83875714D02*
X154442438Y-83923333D01*
X154442438Y-83923333D02*
X154394819Y-84018571D01*
X154394819Y-84018571D02*
X154394819Y-84209047D01*
X154394819Y-84209047D02*
X154442438Y-84304285D01*
X154442438Y-84304285D02*
X154490057Y-84351904D01*
X154490057Y-84351904D02*
X154585295Y-84399523D01*
X154585295Y-84399523D02*
X154823390Y-84399523D01*
X154823390Y-84399523D02*
X154918628Y-84351904D01*
X154918628Y-84351904D02*
X154966247Y-84304285D01*
X154966247Y-84304285D02*
X155013866Y-84209047D01*
X155013866Y-84209047D02*
X155013866Y-84018571D01*
X155013866Y-84018571D02*
X154966247Y-83923333D01*
X154966247Y-83923333D02*
X154918628Y-83875714D01*
X154918628Y-83875714D02*
X154823390Y-83828095D01*
X117294819Y-85732857D02*
X116818628Y-86066190D01*
X117294819Y-86304285D02*
X116294819Y-86304285D01*
X116294819Y-86304285D02*
X116294819Y-85923333D01*
X116294819Y-85923333D02*
X116342438Y-85828095D01*
X116342438Y-85828095D02*
X116390057Y-85780476D01*
X116390057Y-85780476D02*
X116485295Y-85732857D01*
X116485295Y-85732857D02*
X116628152Y-85732857D01*
X116628152Y-85732857D02*
X116723390Y-85780476D01*
X116723390Y-85780476D02*
X116771009Y-85828095D01*
X116771009Y-85828095D02*
X116818628Y-85923333D01*
X116818628Y-85923333D02*
X116818628Y-86304285D01*
X116390057Y-85351904D02*
X116342438Y-85304285D01*
X116342438Y-85304285D02*
X116294819Y-85209047D01*
X116294819Y-85209047D02*
X116294819Y-84970952D01*
X116294819Y-84970952D02*
X116342438Y-84875714D01*
X116342438Y-84875714D02*
X116390057Y-84828095D01*
X116390057Y-84828095D02*
X116485295Y-84780476D01*
X116485295Y-84780476D02*
X116580533Y-84780476D01*
X116580533Y-84780476D02*
X116723390Y-84828095D01*
X116723390Y-84828095D02*
X117294819Y-85399523D01*
X117294819Y-85399523D02*
X117294819Y-84780476D01*
X116628152Y-83923333D02*
X117294819Y-83923333D01*
X116247200Y-84161428D02*
X116961485Y-84399523D01*
X116961485Y-84399523D02*
X116961485Y-83780476D01*
X114768333Y-93577580D02*
X114720714Y-93625200D01*
X114720714Y-93625200D02*
X114577857Y-93672819D01*
X114577857Y-93672819D02*
X114482619Y-93672819D01*
X114482619Y-93672819D02*
X114339762Y-93625200D01*
X114339762Y-93625200D02*
X114244524Y-93529961D01*
X114244524Y-93529961D02*
X114196905Y-93434723D01*
X114196905Y-93434723D02*
X114149286Y-93244247D01*
X114149286Y-93244247D02*
X114149286Y-93101390D01*
X114149286Y-93101390D02*
X114196905Y-92910914D01*
X114196905Y-92910914D02*
X114244524Y-92815676D01*
X114244524Y-92815676D02*
X114339762Y-92720438D01*
X114339762Y-92720438D02*
X114482619Y-92672819D01*
X114482619Y-92672819D02*
X114577857Y-92672819D01*
X114577857Y-92672819D02*
X114720714Y-92720438D01*
X114720714Y-92720438D02*
X114768333Y-92768057D01*
X115625476Y-93006152D02*
X115625476Y-93672819D01*
X115387381Y-92625200D02*
X115149286Y-93339485D01*
X115149286Y-93339485D02*
X115768333Y-93339485D01*
X178470057Y-120735238D02*
X178422438Y-120830476D01*
X178422438Y-120830476D02*
X178327200Y-120925714D01*
X178327200Y-120925714D02*
X178184342Y-121068571D01*
X178184342Y-121068571D02*
X178136723Y-121163809D01*
X178136723Y-121163809D02*
X178136723Y-121259047D01*
X178374819Y-121211428D02*
X178327200Y-121306666D01*
X178327200Y-121306666D02*
X178231961Y-121401904D01*
X178231961Y-121401904D02*
X178041485Y-121449523D01*
X178041485Y-121449523D02*
X177708152Y-121449523D01*
X177708152Y-121449523D02*
X177517676Y-121401904D01*
X177517676Y-121401904D02*
X177422438Y-121306666D01*
X177422438Y-121306666D02*
X177374819Y-121211428D01*
X177374819Y-121211428D02*
X177374819Y-121020952D01*
X177374819Y-121020952D02*
X177422438Y-120925714D01*
X177422438Y-120925714D02*
X177517676Y-120830476D01*
X177517676Y-120830476D02*
X177708152Y-120782857D01*
X177708152Y-120782857D02*
X178041485Y-120782857D01*
X178041485Y-120782857D02*
X178231961Y-120830476D01*
X178231961Y-120830476D02*
X178327200Y-120925714D01*
X178327200Y-120925714D02*
X178374819Y-121020952D01*
X178374819Y-121020952D02*
X178374819Y-121211428D01*
X177803390Y-120211428D02*
X177755771Y-120306666D01*
X177755771Y-120306666D02*
X177708152Y-120354285D01*
X177708152Y-120354285D02*
X177612914Y-120401904D01*
X177612914Y-120401904D02*
X177565295Y-120401904D01*
X177565295Y-120401904D02*
X177470057Y-120354285D01*
X177470057Y-120354285D02*
X177422438Y-120306666D01*
X177422438Y-120306666D02*
X177374819Y-120211428D01*
X177374819Y-120211428D02*
X177374819Y-120020952D01*
X177374819Y-120020952D02*
X177422438Y-119925714D01*
X177422438Y-119925714D02*
X177470057Y-119878095D01*
X177470057Y-119878095D02*
X177565295Y-119830476D01*
X177565295Y-119830476D02*
X177612914Y-119830476D01*
X177612914Y-119830476D02*
X177708152Y-119878095D01*
X177708152Y-119878095D02*
X177755771Y-119925714D01*
X177755771Y-119925714D02*
X177803390Y-120020952D01*
X177803390Y-120020952D02*
X177803390Y-120211428D01*
X177803390Y-120211428D02*
X177851009Y-120306666D01*
X177851009Y-120306666D02*
X177898628Y-120354285D01*
X177898628Y-120354285D02*
X177993866Y-120401904D01*
X177993866Y-120401904D02*
X178184342Y-120401904D01*
X178184342Y-120401904D02*
X178279580Y-120354285D01*
X178279580Y-120354285D02*
X178327200Y-120306666D01*
X178327200Y-120306666D02*
X178374819Y-120211428D01*
X178374819Y-120211428D02*
X178374819Y-120020952D01*
X178374819Y-120020952D02*
X178327200Y-119925714D01*
X178327200Y-119925714D02*
X178279580Y-119878095D01*
X178279580Y-119878095D02*
X178184342Y-119830476D01*
X178184342Y-119830476D02*
X177993866Y-119830476D01*
X177993866Y-119830476D02*
X177898628Y-119878095D01*
X177898628Y-119878095D02*
X177851009Y-119925714D01*
X177851009Y-119925714D02*
X177803390Y-120020952D01*
X138303333Y-95609580D02*
X138255714Y-95657200D01*
X138255714Y-95657200D02*
X138112857Y-95704819D01*
X138112857Y-95704819D02*
X138017619Y-95704819D01*
X138017619Y-95704819D02*
X137874762Y-95657200D01*
X137874762Y-95657200D02*
X137779524Y-95561961D01*
X137779524Y-95561961D02*
X137731905Y-95466723D01*
X137731905Y-95466723D02*
X137684286Y-95276247D01*
X137684286Y-95276247D02*
X137684286Y-95133390D01*
X137684286Y-95133390D02*
X137731905Y-94942914D01*
X137731905Y-94942914D02*
X137779524Y-94847676D01*
X137779524Y-94847676D02*
X137874762Y-94752438D01*
X137874762Y-94752438D02*
X138017619Y-94704819D01*
X138017619Y-94704819D02*
X138112857Y-94704819D01*
X138112857Y-94704819D02*
X138255714Y-94752438D01*
X138255714Y-94752438D02*
X138303333Y-94800057D01*
X139208095Y-94704819D02*
X138731905Y-94704819D01*
X138731905Y-94704819D02*
X138684286Y-95181009D01*
X138684286Y-95181009D02*
X138731905Y-95133390D01*
X138731905Y-95133390D02*
X138827143Y-95085771D01*
X138827143Y-95085771D02*
X139065238Y-95085771D01*
X139065238Y-95085771D02*
X139160476Y-95133390D01*
X139160476Y-95133390D02*
X139208095Y-95181009D01*
X139208095Y-95181009D02*
X139255714Y-95276247D01*
X139255714Y-95276247D02*
X139255714Y-95514342D01*
X139255714Y-95514342D02*
X139208095Y-95609580D01*
X139208095Y-95609580D02*
X139160476Y-95657200D01*
X139160476Y-95657200D02*
X139065238Y-95704819D01*
X139065238Y-95704819D02*
X138827143Y-95704819D01*
X138827143Y-95704819D02*
X138731905Y-95657200D01*
X138731905Y-95657200D02*
X138684286Y-95609580D01*
X160488333Y-95482580D02*
X160440714Y-95530200D01*
X160440714Y-95530200D02*
X160297857Y-95577819D01*
X160297857Y-95577819D02*
X160202619Y-95577819D01*
X160202619Y-95577819D02*
X160059762Y-95530200D01*
X160059762Y-95530200D02*
X159964524Y-95434961D01*
X159964524Y-95434961D02*
X159916905Y-95339723D01*
X159916905Y-95339723D02*
X159869286Y-95149247D01*
X159869286Y-95149247D02*
X159869286Y-95006390D01*
X159869286Y-95006390D02*
X159916905Y-94815914D01*
X159916905Y-94815914D02*
X159964524Y-94720676D01*
X159964524Y-94720676D02*
X160059762Y-94625438D01*
X160059762Y-94625438D02*
X160202619Y-94577819D01*
X160202619Y-94577819D02*
X160297857Y-94577819D01*
X160297857Y-94577819D02*
X160440714Y-94625438D01*
X160440714Y-94625438D02*
X160488333Y-94673057D01*
X160821667Y-94577819D02*
X161488333Y-94577819D01*
X161488333Y-94577819D02*
X161059762Y-95577819D01*
X150749095Y-110154819D02*
X150749095Y-110964342D01*
X150749095Y-110964342D02*
X150796714Y-111059580D01*
X150796714Y-111059580D02*
X150844333Y-111107200D01*
X150844333Y-111107200D02*
X150939571Y-111154819D01*
X150939571Y-111154819D02*
X151130047Y-111154819D01*
X151130047Y-111154819D02*
X151225285Y-111107200D01*
X151225285Y-111107200D02*
X151272904Y-111059580D01*
X151272904Y-111059580D02*
X151320523Y-110964342D01*
X151320523Y-110964342D02*
X151320523Y-110154819D01*
X152320523Y-111154819D02*
X151749095Y-111154819D01*
X152034809Y-111154819D02*
X152034809Y-110154819D01*
X152034809Y-110154819D02*
X151939571Y-110297676D01*
X151939571Y-110297676D02*
X151844333Y-110392914D01*
X151844333Y-110392914D02*
X151749095Y-110440533D01*
X113484819Y-85732857D02*
X113008628Y-86066190D01*
X113484819Y-86304285D02*
X112484819Y-86304285D01*
X112484819Y-86304285D02*
X112484819Y-85923333D01*
X112484819Y-85923333D02*
X112532438Y-85828095D01*
X112532438Y-85828095D02*
X112580057Y-85780476D01*
X112580057Y-85780476D02*
X112675295Y-85732857D01*
X112675295Y-85732857D02*
X112818152Y-85732857D01*
X112818152Y-85732857D02*
X112913390Y-85780476D01*
X112913390Y-85780476D02*
X112961009Y-85828095D01*
X112961009Y-85828095D02*
X113008628Y-85923333D01*
X113008628Y-85923333D02*
X113008628Y-86304285D01*
X112580057Y-85351904D02*
X112532438Y-85304285D01*
X112532438Y-85304285D02*
X112484819Y-85209047D01*
X112484819Y-85209047D02*
X112484819Y-84970952D01*
X112484819Y-84970952D02*
X112532438Y-84875714D01*
X112532438Y-84875714D02*
X112580057Y-84828095D01*
X112580057Y-84828095D02*
X112675295Y-84780476D01*
X112675295Y-84780476D02*
X112770533Y-84780476D01*
X112770533Y-84780476D02*
X112913390Y-84828095D01*
X112913390Y-84828095D02*
X113484819Y-85399523D01*
X113484819Y-85399523D02*
X113484819Y-84780476D01*
X112580057Y-84399523D02*
X112532438Y-84351904D01*
X112532438Y-84351904D02*
X112484819Y-84256666D01*
X112484819Y-84256666D02*
X112484819Y-84018571D01*
X112484819Y-84018571D02*
X112532438Y-83923333D01*
X112532438Y-83923333D02*
X112580057Y-83875714D01*
X112580057Y-83875714D02*
X112675295Y-83828095D01*
X112675295Y-83828095D02*
X112770533Y-83828095D01*
X112770533Y-83828095D02*
X112913390Y-83875714D01*
X112913390Y-83875714D02*
X113484819Y-84447142D01*
X113484819Y-84447142D02*
X113484819Y-83828095D01*
D11*
%TO.C,U5*%
X132035000Y-104250000D02*
X152475000Y-104250000D01*
X152475000Y-104250000D02*
X152475000Y-98950000D01*
X132035000Y-102600000D02*
X132035000Y-104250000D01*
X132035000Y-98950000D02*
X132035000Y-100600000D01*
X152475000Y-98950000D02*
X132035000Y-98950000D01*
X132035000Y-102600000D02*
G75*
G03*
X132035000Y-100600000I0J1000000D01*
G01*
%TO.C,J3*%
X168977000Y-73593000D02*
X168977000Y-72263000D01*
X170307000Y-73593000D02*
X168977000Y-73593000D01*
X171577000Y-73593000D02*
X189417000Y-73593000D01*
X171577000Y-73593000D02*
X171577000Y-70933000D01*
X189417000Y-73593000D02*
X189417000Y-70933000D01*
X171577000Y-70933000D02*
X189417000Y-70933000D01*
%TO.C,Q2*%
X183960000Y-99590000D02*
X183960000Y-95990000D01*
X179760001Y-98930000D02*
G75*
G03*
X181006158Y-100157198I2349999J1140000D01*
G01*
X183232795Y-100114183D02*
G75*
G03*
X183959999Y-99589999I-1122795J2324183D01*
G01*
X181011629Y-95434543D02*
G75*
G03*
X179760000Y-96680000I1098371J-2355457D01*
G01*
X183959999Y-95990001D02*
G75*
G03*
X183232795Y-95465817I-1849999J-1799999D01*
G01*
%TO.C,R17*%
X193040000Y-90400000D02*
X193040000Y-89710000D01*
X191320000Y-89710000D02*
X194760000Y-89710000D01*
X194760000Y-89710000D02*
X194760000Y-80470000D01*
X191320000Y-80470000D02*
X191320000Y-89710000D01*
X194760000Y-80470000D02*
X191320000Y-80470000D01*
X193040000Y-79780000D02*
X193040000Y-80470000D01*
%TO.C,R32*%
X132080000Y-90400000D02*
X132080000Y-89710000D01*
X130360000Y-89710000D02*
X133800000Y-89710000D01*
X133800000Y-89710000D02*
X133800000Y-80470000D01*
X130360000Y-80470000D02*
X130360000Y-89710000D01*
X133800000Y-80470000D02*
X130360000Y-80470000D01*
X132080000Y-79780000D02*
X132080000Y-80470000D01*
%TO.C,R14*%
X181610000Y-90400000D02*
X181610000Y-89710000D01*
X179890000Y-89710000D02*
X183330000Y-89710000D01*
X183330000Y-89710000D02*
X183330000Y-80470000D01*
X179890000Y-80470000D02*
X179890000Y-89710000D01*
X183330000Y-80470000D02*
X179890000Y-80470000D01*
X181610000Y-79780000D02*
X181610000Y-80470000D01*
%TO.C,C1*%
X108262211Y-116475000D02*
X107512211Y-116475000D01*
X107887211Y-116850000D02*
X107887211Y-116100000D01*
X104120000Y-118130000D02*
X104120000Y-110470000D01*
X104080000Y-118130000D02*
X104080000Y-110470000D01*
X104040000Y-118130000D02*
X104040000Y-110470000D01*
X104000000Y-118129000D02*
X104000000Y-110471000D01*
X103960000Y-118127000D02*
X103960000Y-110473000D01*
X103920000Y-118125000D02*
X103920000Y-110475000D01*
X103880000Y-118123000D02*
X103880000Y-115340000D01*
X103880000Y-113260000D02*
X103880000Y-110477000D01*
X103840000Y-118120000D02*
X103840000Y-115340000D01*
X103840000Y-113260000D02*
X103840000Y-110480000D01*
X103800000Y-118117000D02*
X103800000Y-115340000D01*
X103800000Y-113260000D02*
X103800000Y-110483000D01*
X103760000Y-118114000D02*
X103760000Y-115340000D01*
X103760000Y-113260000D02*
X103760000Y-110486000D01*
X103720000Y-118110000D02*
X103720000Y-115340000D01*
X103720000Y-113260000D02*
X103720000Y-110490000D01*
X103680000Y-118105000D02*
X103680000Y-115340000D01*
X103680000Y-113260000D02*
X103680000Y-110495000D01*
X103640000Y-118101000D02*
X103640000Y-115340000D01*
X103640000Y-113260000D02*
X103640000Y-110499000D01*
X103600000Y-118095000D02*
X103600000Y-115340000D01*
X103600000Y-113260000D02*
X103600000Y-110505000D01*
X103560000Y-118090000D02*
X103560000Y-115340000D01*
X103560000Y-113260000D02*
X103560000Y-110510000D01*
X103520000Y-118084000D02*
X103520000Y-115340000D01*
X103520000Y-113260000D02*
X103520000Y-110516000D01*
X103480000Y-118077000D02*
X103480000Y-115340000D01*
X103480000Y-113260000D02*
X103480000Y-110523000D01*
X103440000Y-118070000D02*
X103440000Y-115340000D01*
X103440000Y-113260000D02*
X103440000Y-110530000D01*
X103399000Y-118063000D02*
X103399000Y-115340000D01*
X103399000Y-113260000D02*
X103399000Y-110537000D01*
X103359000Y-118055000D02*
X103359000Y-115340000D01*
X103359000Y-113260000D02*
X103359000Y-110545000D01*
X103319000Y-118047000D02*
X103319000Y-115340000D01*
X103319000Y-113260000D02*
X103319000Y-110553000D01*
X103279000Y-118038000D02*
X103279000Y-115340000D01*
X103279000Y-113260000D02*
X103279000Y-110562000D01*
X103239000Y-118029000D02*
X103239000Y-115340000D01*
X103239000Y-113260000D02*
X103239000Y-110571000D01*
X103199000Y-118020000D02*
X103199000Y-115340000D01*
X103199000Y-113260000D02*
X103199000Y-110580000D01*
X103159000Y-118010000D02*
X103159000Y-115340000D01*
X103159000Y-113260000D02*
X103159000Y-110590000D01*
X103119000Y-117999000D02*
X103119000Y-115340000D01*
X103119000Y-113260000D02*
X103119000Y-110601000D01*
X103079000Y-117988000D02*
X103079000Y-115340000D01*
X103079000Y-113260000D02*
X103079000Y-110612000D01*
X103039000Y-117977000D02*
X103039000Y-115340000D01*
X103039000Y-113260000D02*
X103039000Y-110623000D01*
X102999000Y-117965000D02*
X102999000Y-115340000D01*
X102999000Y-113260000D02*
X102999000Y-110635000D01*
X102959000Y-117953000D02*
X102959000Y-115340000D01*
X102959000Y-113260000D02*
X102959000Y-110647000D01*
X102919000Y-117940000D02*
X102919000Y-115340000D01*
X102919000Y-113260000D02*
X102919000Y-110660000D01*
X102879000Y-117926000D02*
X102879000Y-115340000D01*
X102879000Y-113260000D02*
X102879000Y-110674000D01*
X102839000Y-117913000D02*
X102839000Y-115340000D01*
X102839000Y-113260000D02*
X102839000Y-110687000D01*
X102799000Y-117898000D02*
X102799000Y-115340000D01*
X102799000Y-113260000D02*
X102799000Y-110702000D01*
X102759000Y-117884000D02*
X102759000Y-115340000D01*
X102759000Y-113260000D02*
X102759000Y-110716000D01*
X102719000Y-117868000D02*
X102719000Y-115340000D01*
X102719000Y-113260000D02*
X102719000Y-110732000D01*
X102679000Y-117853000D02*
X102679000Y-115340000D01*
X102679000Y-113260000D02*
X102679000Y-110747000D01*
X102639000Y-117836000D02*
X102639000Y-115340000D01*
X102639000Y-113260000D02*
X102639000Y-110764000D01*
X102599000Y-117820000D02*
X102599000Y-115340000D01*
X102599000Y-113260000D02*
X102599000Y-110780000D01*
X102559000Y-117802000D02*
X102559000Y-115340000D01*
X102559000Y-113260000D02*
X102559000Y-110798000D01*
X102519000Y-117784000D02*
X102519000Y-115340000D01*
X102519000Y-113260000D02*
X102519000Y-110816000D01*
X102479000Y-117766000D02*
X102479000Y-115340000D01*
X102479000Y-113260000D02*
X102479000Y-110834000D01*
X102439000Y-117747000D02*
X102439000Y-115340000D01*
X102439000Y-113260000D02*
X102439000Y-110853000D01*
X102399000Y-117727000D02*
X102399000Y-115340000D01*
X102399000Y-113260000D02*
X102399000Y-110873000D01*
X102359000Y-117707000D02*
X102359000Y-115340000D01*
X102359000Y-113260000D02*
X102359000Y-110893000D01*
X102319000Y-117686000D02*
X102319000Y-115340000D01*
X102319000Y-113260000D02*
X102319000Y-110914000D01*
X102279000Y-117665000D02*
X102279000Y-115340000D01*
X102279000Y-113260000D02*
X102279000Y-110935000D01*
X102239000Y-117643000D02*
X102239000Y-115340000D01*
X102239000Y-113260000D02*
X102239000Y-110957000D01*
X102199000Y-117621000D02*
X102199000Y-115340000D01*
X102199000Y-113260000D02*
X102199000Y-110979000D01*
X102159000Y-117597000D02*
X102159000Y-115340000D01*
X102159000Y-113260000D02*
X102159000Y-111003000D01*
X102119000Y-117574000D02*
X102119000Y-115340000D01*
X102119000Y-113260000D02*
X102119000Y-111026000D01*
X102079000Y-117549000D02*
X102079000Y-115340000D01*
X102079000Y-113260000D02*
X102079000Y-111051000D01*
X102039000Y-117524000D02*
X102039000Y-115340000D01*
X102039000Y-113260000D02*
X102039000Y-111076000D01*
X101999000Y-117498000D02*
X101999000Y-115340000D01*
X101999000Y-113260000D02*
X101999000Y-111102000D01*
X101959000Y-117472000D02*
X101959000Y-115340000D01*
X101959000Y-113260000D02*
X101959000Y-111128000D01*
X101919000Y-117444000D02*
X101919000Y-115340000D01*
X101919000Y-113260000D02*
X101919000Y-111156000D01*
X101879000Y-117416000D02*
X101879000Y-115340000D01*
X101879000Y-113260000D02*
X101879000Y-111184000D01*
X101839000Y-117388000D02*
X101839000Y-115340000D01*
X101839000Y-113260000D02*
X101839000Y-111212000D01*
X101799000Y-117358000D02*
X101799000Y-111242000D01*
X101759000Y-117328000D02*
X101759000Y-111272000D01*
X101719000Y-117296000D02*
X101719000Y-111304000D01*
X101679000Y-117264000D02*
X101679000Y-111336000D01*
X101639000Y-117231000D02*
X101639000Y-111369000D01*
X101599000Y-117198000D02*
X101599000Y-111402000D01*
X101559000Y-117163000D02*
X101559000Y-111437000D01*
X101519000Y-117127000D02*
X101519000Y-111473000D01*
X101479000Y-117090000D02*
X101479000Y-111510000D01*
X101439000Y-117052000D02*
X101439000Y-111548000D01*
X101399000Y-117013000D02*
X101399000Y-111587000D01*
X101359000Y-116973000D02*
X101359000Y-111627000D01*
X101319000Y-116932000D02*
X101319000Y-111668000D01*
X101279000Y-116889000D02*
X101279000Y-111711000D01*
X101239000Y-116846000D02*
X101239000Y-111754000D01*
X101199000Y-116800000D02*
X101199000Y-111800000D01*
X101159000Y-116754000D02*
X101159000Y-111846000D01*
X101119000Y-116705000D02*
X101119000Y-111895000D01*
X101079000Y-116655000D02*
X101079000Y-111945000D01*
X101039000Y-116604000D02*
X101039000Y-111996000D01*
X100999000Y-116550000D02*
X100999000Y-112050000D01*
X100959000Y-116495000D02*
X100959000Y-112105000D01*
X100919000Y-116437000D02*
X100919000Y-112163000D01*
X100879000Y-116377000D02*
X100879000Y-112223000D01*
X100839000Y-116314000D02*
X100839000Y-112286000D01*
X100799000Y-116249000D02*
X100799000Y-112351000D01*
X100759000Y-116181000D02*
X100759000Y-112419000D01*
X100719000Y-116109000D02*
X100719000Y-112491000D01*
X100679000Y-116033000D02*
X100679000Y-112567000D01*
X100639000Y-115954000D02*
X100639000Y-112646000D01*
X100599000Y-115869000D02*
X100599000Y-112731000D01*
X100559000Y-115778000D02*
X100559000Y-112822000D01*
X100519000Y-115681000D02*
X100519000Y-112919000D01*
X100479000Y-115575000D02*
X100479000Y-113025000D01*
X100439000Y-115458000D02*
X100439000Y-113142000D01*
X100399000Y-115328000D02*
X100399000Y-113272000D01*
X100359000Y-115177000D02*
X100359000Y-113423000D01*
X100319000Y-114993000D02*
X100319000Y-113607000D01*
X100279000Y-114741000D02*
X100279000Y-113859000D01*
X107990000Y-114300000D02*
G75*
G03*
X100250000Y-114300000I-3870000J0D01*
G01*
X100250000Y-114300000D02*
G75*
G03*
X107990000Y-114300000I3870000J0D01*
G01*
%TO.C,R18*%
X105410000Y-90400000D02*
X105410000Y-89710000D01*
X103690000Y-89710000D02*
X107130000Y-89710000D01*
X107130000Y-89710000D02*
X107130000Y-80470000D01*
X103690000Y-80470000D02*
X103690000Y-89710000D01*
X107130000Y-80470000D02*
X103690000Y-80470000D01*
X105410000Y-79780000D02*
X105410000Y-80470000D01*
%TO.C,Q3*%
X186610000Y-103610000D02*
X186610000Y-107210000D01*
X190809999Y-104270000D02*
G75*
G03*
X189563842Y-103042802I-2349999J-1140000D01*
G01*
X187337205Y-103085817D02*
G75*
G03*
X186610001Y-103610001I1122795J-2324183D01*
G01*
X189558371Y-107765457D02*
G75*
G03*
X190810000Y-106520000I-1098371J2355457D01*
G01*
X186610001Y-107209999D02*
G75*
G03*
X187337205Y-107734183I1849999J1799999D01*
G01*
%TO.C,J4*%
X98710000Y-96850000D02*
X97970000Y-96850000D01*
X97970000Y-96850000D02*
X97970000Y-97350000D01*
X108131000Y-97090000D02*
X98210000Y-97090000D01*
X108131000Y-97090000D02*
X108131000Y-107370000D01*
X105171000Y-97090000D02*
X105171000Y-107370000D01*
X100270000Y-97090000D02*
X100270000Y-107370000D01*
X98770000Y-97090000D02*
X98770000Y-107370000D01*
X98210000Y-97090000D02*
X98210000Y-107370000D01*
X101847000Y-103543000D02*
X101801000Y-103496000D01*
X101631000Y-103736000D02*
X101596000Y-103701000D01*
X104145000Y-105840000D02*
X104109000Y-105805000D01*
X103939000Y-106045000D02*
X103893000Y-105998000D01*
X108131000Y-107370000D02*
X98210000Y-107370000D01*
X103553999Y-98155001D02*
G75*
G03*
X102186958Y-98154574I-684000J-1534992D01*
G01*
X104404999Y-100373999D02*
G75*
G03*
X104405426Y-99006958I-1534992J684000D01*
G01*
X101335001Y-99006000D02*
G75*
G03*
X101189748Y-99718805I1535000J-683999D01*
G01*
X101190001Y-99690000D02*
G75*
G03*
X101335245Y-100373318I1679999J0D01*
G01*
X102186000Y-101225000D02*
G75*
G03*
X103553042Y-101225426I684000J1535000D01*
G01*
X104550000Y-104770000D02*
G75*
G03*
X101190000Y-104770000I-1680000J0D01*
G01*
X101190000Y-104770000D02*
G75*
G03*
X104550000Y-104770000I1680000J0D01*
G01*
%TO.C,R19*%
X135890000Y-90400000D02*
X135890000Y-89710000D01*
X134170000Y-89710000D02*
X137610000Y-89710000D01*
X137610000Y-89710000D02*
X137610000Y-80470000D01*
X134170000Y-80470000D02*
X134170000Y-89710000D01*
X137610000Y-80470000D02*
X134170000Y-80470000D01*
X135890000Y-79780000D02*
X135890000Y-80470000D01*
%TO.C,R15*%
X185420000Y-90400000D02*
X185420000Y-89710000D01*
X183700000Y-89710000D02*
X187140000Y-89710000D01*
X187140000Y-89710000D02*
X187140000Y-80470000D01*
X183700000Y-80470000D02*
X183700000Y-89710000D01*
X187140000Y-80470000D02*
X183700000Y-80470000D01*
X185420000Y-79780000D02*
X185420000Y-80470000D01*
%TO.C,R31*%
X158750000Y-90400000D02*
X158750000Y-89710000D01*
X157030000Y-89710000D02*
X160470000Y-89710000D01*
X160470000Y-89710000D02*
X160470000Y-80470000D01*
X157030000Y-80470000D02*
X157030000Y-89710000D01*
X160470000Y-80470000D02*
X157030000Y-80470000D01*
X158750000Y-79780000D02*
X158750000Y-80470000D01*
%TO.C,J2*%
X138370000Y-73593000D02*
X138370000Y-72263000D01*
X139700000Y-73593000D02*
X138370000Y-73593000D01*
X140970000Y-73593000D02*
X158810000Y-73593000D01*
X140970000Y-73593000D02*
X140970000Y-70933000D01*
X158810000Y-73593000D02*
X158810000Y-70933000D01*
X140970000Y-70933000D02*
X158810000Y-70933000D01*
%TO.C,Q7*%
X186610000Y-118850000D02*
X186610000Y-122450000D01*
X190809999Y-119510000D02*
G75*
G03*
X189563842Y-118282802I-2349999J-1140000D01*
G01*
X187337205Y-118325817D02*
G75*
G03*
X186610001Y-118850001I1122795J-2324183D01*
G01*
X189558371Y-123005457D02*
G75*
G03*
X190810000Y-121760000I-1098371J2355457D01*
G01*
X186610001Y-122449999D02*
G75*
G03*
X187337205Y-122974183I1849999J1799999D01*
G01*
%TO.C,J5*%
X195520000Y-92030000D02*
X196850000Y-92030000D01*
X195520000Y-93360000D02*
X195520000Y-92030000D01*
X195520000Y-94630000D02*
X195520000Y-112470000D01*
X195520000Y-94630000D02*
X198180000Y-94630000D01*
X195520000Y-112470000D02*
X198180000Y-112470000D01*
X198180000Y-94630000D02*
X198180000Y-112470000D01*
%TO.C,R5*%
X161822000Y-127635000D02*
X162512000Y-127635000D01*
X162512000Y-125915000D02*
X162512000Y-129355000D01*
X162512000Y-129355000D02*
X171752000Y-129355000D01*
X171752000Y-125915000D02*
X162512000Y-125915000D01*
X171752000Y-129355000D02*
X171752000Y-125915000D01*
X172442000Y-127635000D02*
X171752000Y-127635000D01*
%TO.C,R3*%
X161822000Y-120015000D02*
X162512000Y-120015000D01*
X162512000Y-118295000D02*
X162512000Y-121735000D01*
X162512000Y-121735000D02*
X171752000Y-121735000D01*
X171752000Y-118295000D02*
X162512000Y-118295000D01*
X171752000Y-121735000D02*
X171752000Y-118295000D01*
X172442000Y-120015000D02*
X171752000Y-120015000D01*
%TO.C,R6*%
X161822000Y-131445000D02*
X162512000Y-131445000D01*
X162512000Y-129725000D02*
X162512000Y-133165000D01*
X162512000Y-133165000D02*
X171752000Y-133165000D01*
X171752000Y-129725000D02*
X162512000Y-129725000D01*
X171752000Y-133165000D02*
X171752000Y-129725000D01*
X172442000Y-131445000D02*
X171752000Y-131445000D01*
%TO.C,R1*%
X161822000Y-112395000D02*
X162512000Y-112395000D01*
X162512000Y-110675000D02*
X162512000Y-114115000D01*
X162512000Y-114115000D02*
X171752000Y-114115000D01*
X171752000Y-110675000D02*
X162512000Y-110675000D01*
X171752000Y-114115000D02*
X171752000Y-110675000D01*
X172442000Y-112395000D02*
X171752000Y-112395000D01*
%TO.C,Y1*%
X120665000Y-117435000D02*
X120665000Y-111185000D01*
X125715000Y-117435000D02*
X125715000Y-111185000D01*
X120665000Y-117435000D02*
G75*
G03*
X125715000Y-117435000I2525000J0D01*
G01*
X125715000Y-111185000D02*
G75*
G03*
X120665000Y-111185000I-2525000J0D01*
G01*
%TO.C,Q5*%
X186610000Y-111230000D02*
X186610000Y-114830000D01*
X190809999Y-111890000D02*
G75*
G03*
X189563842Y-110662802I-2349999J-1140000D01*
G01*
X187337205Y-110705817D02*
G75*
G03*
X186610001Y-111230001I1122795J-2324183D01*
G01*
X189558371Y-115385457D02*
G75*
G03*
X190810000Y-114140000I-1098371J2355457D01*
G01*
X186610001Y-114829999D02*
G75*
G03*
X187337205Y-115354183I1849999J1799999D01*
G01*
%TO.C,R16*%
X189230000Y-90400000D02*
X189230000Y-89710000D01*
X187510000Y-89710000D02*
X190950000Y-89710000D01*
X190950000Y-89710000D02*
X190950000Y-80470000D01*
X187510000Y-80470000D02*
X187510000Y-89710000D01*
X190950000Y-80470000D02*
X187510000Y-80470000D01*
X189230000Y-79780000D02*
X189230000Y-80470000D01*
%TO.C,R30*%
X128270000Y-90400000D02*
X128270000Y-89710000D01*
X126550000Y-89710000D02*
X129990000Y-89710000D01*
X129990000Y-89710000D02*
X129990000Y-80470000D01*
X126550000Y-80470000D02*
X126550000Y-89710000D01*
X129990000Y-80470000D02*
X126550000Y-80470000D01*
X128270000Y-79780000D02*
X128270000Y-80470000D01*
%TO.C,R7*%
X178332000Y-127635000D02*
X179022000Y-127635000D01*
X179022000Y-125915000D02*
X179022000Y-129355000D01*
X179022000Y-129355000D02*
X188262000Y-129355000D01*
X188262000Y-125915000D02*
X179022000Y-125915000D01*
X188262000Y-129355000D02*
X188262000Y-125915000D01*
X188952000Y-127635000D02*
X188262000Y-127635000D01*
%TO.C,R13*%
X177800000Y-90400000D02*
X177800000Y-89710000D01*
X176080000Y-89710000D02*
X179520000Y-89710000D01*
X179520000Y-89710000D02*
X179520000Y-80470000D01*
X176080000Y-80470000D02*
X176080000Y-89710000D01*
X179520000Y-80470000D02*
X176080000Y-80470000D01*
X177800000Y-79780000D02*
X177800000Y-80470000D01*
%TO.C,U4*%
X110430000Y-104250000D02*
X130870000Y-104250000D01*
X130870000Y-104250000D02*
X130870000Y-98950000D01*
X110430000Y-102600000D02*
X110430000Y-104250000D01*
X110430000Y-98950000D02*
X110430000Y-100600000D01*
X130870000Y-98950000D02*
X110430000Y-98950000D01*
X110430000Y-102600000D02*
G75*
G03*
X110430000Y-100600000I0J1000000D01*
G01*
%TO.C,Q1*%
X186610000Y-95990000D02*
X186610000Y-99590000D01*
X190809999Y-96650000D02*
G75*
G03*
X189563842Y-95422802I-2349999J-1140000D01*
G01*
X187337205Y-95465817D02*
G75*
G03*
X186610001Y-95990001I1122795J-2324183D01*
G01*
X189558371Y-100145457D02*
G75*
G03*
X190810000Y-98900000I-1098371J2355457D01*
G01*
X186610001Y-99589999D02*
G75*
G03*
X187337205Y-100114183I1849999J1799999D01*
G01*
%TO.C,J1*%
X107890000Y-73593000D02*
X107890000Y-72263000D01*
X109220000Y-73593000D02*
X107890000Y-73593000D01*
X110490000Y-73593000D02*
X128330000Y-73593000D01*
X110490000Y-73593000D02*
X110490000Y-70933000D01*
X128330000Y-73593000D02*
X128330000Y-70933000D01*
X110490000Y-70933000D02*
X128330000Y-70933000D01*
%TO.C,R4*%
X161822000Y-123825000D02*
X162512000Y-123825000D01*
X162512000Y-122105000D02*
X162512000Y-125545000D01*
X162512000Y-125545000D02*
X171752000Y-125545000D01*
X171752000Y-122105000D02*
X162512000Y-122105000D01*
X171752000Y-125545000D02*
X171752000Y-122105000D01*
X172442000Y-123825000D02*
X171752000Y-123825000D01*
%TO.C,R21*%
X139700000Y-90400000D02*
X139700000Y-89710000D01*
X137980000Y-89710000D02*
X141420000Y-89710000D01*
X141420000Y-89710000D02*
X141420000Y-80470000D01*
X137980000Y-80470000D02*
X137980000Y-89710000D01*
X141420000Y-80470000D02*
X137980000Y-80470000D01*
X139700000Y-79780000D02*
X139700000Y-80470000D01*
%TO.C,R26*%
X120650000Y-90400000D02*
X120650000Y-89710000D01*
X118930000Y-89710000D02*
X122370000Y-89710000D01*
X122370000Y-89710000D02*
X122370000Y-80470000D01*
X118930000Y-80470000D02*
X118930000Y-89710000D01*
X122370000Y-80470000D02*
X118930000Y-80470000D01*
X120650000Y-79780000D02*
X120650000Y-80470000D01*
%TO.C,R2*%
X161822000Y-116205000D02*
X162512000Y-116205000D01*
X162512000Y-114485000D02*
X162512000Y-117925000D01*
X162512000Y-117925000D02*
X171752000Y-117925000D01*
X171752000Y-114485000D02*
X162512000Y-114485000D01*
X171752000Y-117925000D02*
X171752000Y-114485000D01*
X172442000Y-116205000D02*
X171752000Y-116205000D01*
%TO.C,R11*%
X170180000Y-90400000D02*
X170180000Y-89710000D01*
X168460000Y-89710000D02*
X171900000Y-89710000D01*
X171900000Y-89710000D02*
X171900000Y-80470000D01*
X168460000Y-80470000D02*
X168460000Y-89710000D01*
X171900000Y-80470000D02*
X168460000Y-80470000D01*
X170180000Y-79780000D02*
X170180000Y-80470000D01*
%TO.C,R25*%
X147320000Y-90400000D02*
X147320000Y-89710000D01*
X145600000Y-89710000D02*
X149040000Y-89710000D01*
X149040000Y-89710000D02*
X149040000Y-80470000D01*
X145600000Y-80470000D02*
X145600000Y-89710000D01*
X149040000Y-80470000D02*
X145600000Y-80470000D01*
X147320000Y-79780000D02*
X147320000Y-80470000D01*
%TO.C,C3*%
X117380000Y-113130000D02*
X117380000Y-112685000D01*
X117380000Y-113130000D02*
X111140000Y-113130000D01*
X117380000Y-110835000D02*
X117380000Y-110390000D01*
X117380000Y-110390000D02*
X111140000Y-110390000D01*
X111140000Y-113130000D02*
X111140000Y-112685000D01*
X111140000Y-110835000D02*
X111140000Y-110390000D01*
%TO.C,R12*%
X173990000Y-90400000D02*
X173990000Y-89710000D01*
X172270000Y-89710000D02*
X175710000Y-89710000D01*
X175710000Y-89710000D02*
X175710000Y-80470000D01*
X172270000Y-80470000D02*
X172270000Y-89710000D01*
X175710000Y-80470000D02*
X172270000Y-80470000D01*
X173990000Y-79780000D02*
X173990000Y-80470000D01*
%TO.C,Q4*%
X183960000Y-107210000D02*
X183960000Y-103610000D01*
X179760001Y-106550000D02*
G75*
G03*
X181006158Y-107777198I2349999J1140000D01*
G01*
X183232795Y-107734183D02*
G75*
G03*
X183959999Y-107209999I-1122795J2324183D01*
G01*
X181011629Y-103054543D02*
G75*
G03*
X179760000Y-104300000I1098371J-2355457D01*
G01*
X183959999Y-103610001D02*
G75*
G03*
X183232795Y-103085817I-1849999J-1799999D01*
G01*
%TO.C,R20*%
X109220000Y-90400000D02*
X109220000Y-89710000D01*
X107500000Y-89710000D02*
X110940000Y-89710000D01*
X110940000Y-89710000D02*
X110940000Y-80470000D01*
X107500000Y-80470000D02*
X107500000Y-89710000D01*
X110940000Y-80470000D02*
X107500000Y-80470000D01*
X109220000Y-79780000D02*
X109220000Y-80470000D01*
%TO.C,R33*%
X162560000Y-90400000D02*
X162560000Y-89710000D01*
X160840000Y-89710000D02*
X164280000Y-89710000D01*
X164280000Y-89710000D02*
X164280000Y-80470000D01*
X160840000Y-80470000D02*
X160840000Y-89710000D01*
X164280000Y-80470000D02*
X160840000Y-80470000D01*
X162560000Y-79780000D02*
X162560000Y-80470000D01*
%TO.C,U2*%
X143630000Y-121860000D02*
X107830000Y-121860000D01*
X107830000Y-121860000D02*
X107830000Y-132140000D01*
X143570000Y-124350000D02*
X107890000Y-124350000D01*
X107890000Y-124350000D02*
X107890000Y-129650000D01*
X143570000Y-126000000D02*
X143570000Y-124350000D01*
X143570000Y-129650000D02*
X143570000Y-128000000D01*
X107890000Y-129650000D02*
X143570000Y-129650000D01*
X143630000Y-132140000D02*
X143630000Y-121860000D01*
X107830000Y-132140000D02*
X143630000Y-132140000D01*
X143570000Y-126000000D02*
G75*
G03*
X143570000Y-128000000I0J-1000000D01*
G01*
%TO.C,R27*%
X151130000Y-90400000D02*
X151130000Y-89710000D01*
X149410000Y-89710000D02*
X152850000Y-89710000D01*
X152850000Y-89710000D02*
X152850000Y-80470000D01*
X149410000Y-80470000D02*
X149410000Y-89710000D01*
X152850000Y-80470000D02*
X149410000Y-80470000D01*
X151130000Y-79780000D02*
X151130000Y-80470000D01*
%TO.C,R23*%
X143510000Y-90400000D02*
X143510000Y-89710000D01*
X141790000Y-89710000D02*
X145230000Y-89710000D01*
X145230000Y-89710000D02*
X145230000Y-80470000D01*
X141790000Y-80470000D02*
X141790000Y-89710000D01*
X145230000Y-80470000D02*
X141790000Y-80470000D01*
X143510000Y-79780000D02*
X143510000Y-80470000D01*
%TO.C,R28*%
X124460000Y-90400000D02*
X124460000Y-89710000D01*
X122740000Y-89710000D02*
X126180000Y-89710000D01*
X126180000Y-89710000D02*
X126180000Y-80470000D01*
X122740000Y-80470000D02*
X122740000Y-89710000D01*
X126180000Y-80470000D02*
X122740000Y-80470000D01*
X124460000Y-79780000D02*
X124460000Y-80470000D01*
%TO.C,C2*%
X117380000Y-118210000D02*
X117380000Y-117765000D01*
X117380000Y-118210000D02*
X111140000Y-118210000D01*
X117380000Y-115915000D02*
X117380000Y-115470000D01*
X117380000Y-115470000D02*
X111140000Y-115470000D01*
X111140000Y-118210000D02*
X111140000Y-117765000D01*
X111140000Y-115915000D02*
X111140000Y-115470000D01*
%TO.C,R10*%
X166370000Y-90400000D02*
X166370000Y-89710000D01*
X164650000Y-89710000D02*
X168090000Y-89710000D01*
X168090000Y-89710000D02*
X168090000Y-80470000D01*
X164650000Y-80470000D02*
X164650000Y-89710000D01*
X168090000Y-80470000D02*
X164650000Y-80470000D01*
X166370000Y-79780000D02*
X166370000Y-80470000D01*
%TO.C,R8*%
X178332000Y-131445000D02*
X179022000Y-131445000D01*
X179022000Y-129725000D02*
X179022000Y-133165000D01*
X179022000Y-133165000D02*
X188262000Y-133165000D01*
X188262000Y-129725000D02*
X179022000Y-129725000D01*
X188262000Y-133165000D02*
X188262000Y-129725000D01*
X188952000Y-131445000D02*
X188262000Y-131445000D01*
%TO.C,Q6*%
X183960000Y-114830000D02*
X183960000Y-111230000D01*
X179760001Y-114170000D02*
G75*
G03*
X181006158Y-115397198I2349999J1140000D01*
G01*
X183232795Y-115354183D02*
G75*
G03*
X183959999Y-114829999I-1122795J2324183D01*
G01*
X181011629Y-110674543D02*
G75*
G03*
X179760000Y-111920000I1098371J-2355457D01*
G01*
X183959999Y-111230001D02*
G75*
G03*
X183232795Y-110705817I-1849999J-1799999D01*
G01*
%TO.C,C6*%
X154370000Y-108050000D02*
X154370000Y-108295000D01*
X154370000Y-108050000D02*
X158010000Y-108050000D01*
X154370000Y-110145000D02*
X154370000Y-110390000D01*
X154370000Y-110390000D02*
X158010000Y-110390000D01*
X158010000Y-108050000D02*
X158010000Y-108295000D01*
X158010000Y-110145000D02*
X158010000Y-110390000D01*
%TO.C,U3*%
X153625000Y-104250000D02*
X174065000Y-104250000D01*
X174065000Y-104250000D02*
X174065000Y-98950000D01*
X153625000Y-102600000D02*
X153625000Y-104250000D01*
X153625000Y-98950000D02*
X153625000Y-100600000D01*
X174065000Y-98950000D02*
X153625000Y-98950000D01*
X153625000Y-102600000D02*
G75*
G03*
X153625000Y-100600000I0J1000000D01*
G01*
%TO.C,R9*%
X130580000Y-115570000D02*
X131270000Y-115570000D01*
X131270000Y-113850000D02*
X131270000Y-117290000D01*
X131270000Y-117290000D02*
X140510000Y-117290000D01*
X140510000Y-113850000D02*
X131270000Y-113850000D01*
X140510000Y-117290000D02*
X140510000Y-113850000D01*
X141200000Y-115570000D02*
X140510000Y-115570000D01*
%TO.C,R29*%
X154940000Y-90400000D02*
X154940000Y-89710000D01*
X153220000Y-89710000D02*
X156660000Y-89710000D01*
X156660000Y-89710000D02*
X156660000Y-80470000D01*
X153220000Y-80470000D02*
X153220000Y-89710000D01*
X156660000Y-80470000D02*
X153220000Y-80470000D01*
X154940000Y-79780000D02*
X154940000Y-80470000D01*
%TO.C,R24*%
X116840000Y-90400000D02*
X116840000Y-89710000D01*
X115120000Y-89710000D02*
X118560000Y-89710000D01*
X118560000Y-89710000D02*
X118560000Y-80470000D01*
X115120000Y-80470000D02*
X115120000Y-89710000D01*
X118560000Y-80470000D02*
X115120000Y-80470000D01*
X116840000Y-79780000D02*
X116840000Y-80470000D01*
%TO.C,C4*%
X111190000Y-94080000D02*
X111190000Y-94325000D01*
X111190000Y-94080000D02*
X114830000Y-94080000D01*
X111190000Y-96175000D02*
X111190000Y-96420000D01*
X111190000Y-96420000D02*
X114830000Y-96420000D01*
X114830000Y-94080000D02*
X114830000Y-94325000D01*
X114830000Y-96175000D02*
X114830000Y-96420000D01*
%TO.C,Q8*%
X183960000Y-122450000D02*
X183960000Y-118850000D01*
X179760001Y-121790000D02*
G75*
G03*
X181006158Y-123017198I2349999J1140000D01*
G01*
X183232795Y-122974183D02*
G75*
G03*
X183959999Y-122449999I-1122795J2324183D01*
G01*
X181011629Y-118294543D02*
G75*
G03*
X179760000Y-119540000I1098371J-2355457D01*
G01*
X183959999Y-118850001D02*
G75*
G03*
X183232795Y-118325817I-1849999J-1799999D01*
G01*
%TO.C,C5*%
X132780000Y-94080000D02*
X132780000Y-94325000D01*
X132780000Y-94080000D02*
X136420000Y-94080000D01*
X132780000Y-96175000D02*
X132780000Y-96420000D01*
X132780000Y-96420000D02*
X136420000Y-96420000D01*
X136420000Y-94080000D02*
X136420000Y-94325000D01*
X136420000Y-96175000D02*
X136420000Y-96420000D01*
%TO.C,C7*%
X154370000Y-94080000D02*
X154370000Y-94325000D01*
X154370000Y-94080000D02*
X158010000Y-94080000D01*
X154370000Y-96175000D02*
X154370000Y-96420000D01*
X154370000Y-96420000D02*
X158010000Y-96420000D01*
X158010000Y-94080000D02*
X158010000Y-94325000D01*
X158010000Y-96175000D02*
X158010000Y-96420000D01*
%TO.C,U1*%
X148861000Y-111700000D02*
X148861000Y-132140000D01*
X148861000Y-132140000D02*
X154161000Y-132140000D01*
X150511000Y-111700000D02*
X148861000Y-111700000D01*
X154161000Y-111700000D02*
X152511000Y-111700000D01*
X154161000Y-132140000D02*
X154161000Y-111700000D01*
X150511000Y-111700000D02*
G75*
G03*
X152511000Y-111700000I1000000J0D01*
G01*
%TO.C,R22*%
X113030000Y-90400000D02*
X113030000Y-89710000D01*
X111310000Y-89710000D02*
X114750000Y-89710000D01*
X114750000Y-89710000D02*
X114750000Y-80470000D01*
X111310000Y-80470000D02*
X111310000Y-89710000D01*
X114750000Y-80470000D02*
X111310000Y-80470000D01*
X113030000Y-79780000D02*
X113030000Y-80470000D01*
%TD*%
M02*
