M48
; DRILL file {KiCad 7.0.10} date Tue Jan 23 12:18:38 2024
; FORMAT={-:-/ absolute / metric / decimal}
; #@! TF.CreationDate,2024-01-23T12:18:38+06:30
; #@! TF.GenerationSoftware,Kicad,Pcbnew,7.0.10
; #@! TF.FileFunction,Plated,1,2,PTH
FMAT,2
METRIC
; #@! TA.AperFunction,Plated,PTH,ViaDrill
T1C0.300
; #@! TA.AperFunction,Plated,PTH,ComponentDrill
T2C0.800
; #@! TA.AperFunction,Plated,PTH,ComponentDrill
T3C1.000
; #@! TA.AperFunction,Plated,PTH,ComponentDrill
T4C1.300
; #@! TA.AperFunction,Plated,PTH,ComponentDrill
T5C3.200
%
G90
G05
T1
X1.535Y55.338
X1.535Y47.718
X1.535Y40.098
X1.535Y32.478
X1.535Y24.858
X1.535Y17.238
X1.535Y9.618
X6.615Y52.798
X6.615Y45.178
X6.615Y27.398
X6.615Y14.698
X6.615Y7.078
X9.155Y40.098
X9.155Y1.998
X11.695Y50.258
X11.695Y24.858
X11.695Y17.238
X11.695Y9.618
X13.081Y41.275
X14.235Y57.878
X14.235Y45.178
X14.235Y32.478
X16.775Y52.798
X16.775Y27.398
X16.775Y19.778
X16.775Y7.078
X19.315Y47.718
X19.315Y1.998
X21.855Y40.098
X21.855Y24.858
X21.855Y9.618
X24.395Y52.798
X24.395Y45.178
X24.395Y19.778
X26.935Y27.398
X26.935Y1.998
X27.813Y34.29
X29.475Y50.258
X29.475Y7.078
X30.48Y34.29
X30.631Y15.24
X32.015Y60.418
X32.015Y45.178
X34.555Y52.798
X34.555Y22.318
X34.555Y9.618
X34.555Y1.998
X37.095Y57.878
X37.095Y47.718
X37.095Y27.398
X37.095Y17.238
X38.481Y34.29
X39.635Y7.078
X41.148Y34.29
X42.175Y52.798
X42.175Y45.178
X42.175Y24.858
X42.175Y1.998
X43.561Y34.417
X44.715Y9.618
X47.255Y50.258
X47.255Y27.398
X47.255Y19.778
X47.255Y4.538
X49.148Y34.289
X49.795Y45.178
X50.8Y34.29
X52.335Y52.798
X52.335Y24.858
X52.335Y1.998
X53.34Y34.29
X54.875Y47.718
X54.875Y17.238
X56.769Y34.29
X57.415Y32.478
X59.955Y52.798
X59.955Y45.178
X59.955Y27.398
X61.214Y19.05
X62.495Y60.418
X62.499Y34.544
X63.5Y27.686
X64.82Y32.592
X65.035Y50.258
X65.035Y19.778
X65.035Y12.158
X66.29Y34.04
X67.575Y57.878
X67.575Y45.178
X67.575Y27.398
X67.575Y7.078
X68.58Y5.08
X70.115Y52.798
X70.115Y22.318
X70.115Y14.698
X72.655Y47.718
X72.655Y9.618
X77.735Y52.798
X77.735Y45.178
X77.735Y19.778
X79.121Y17.399
X82.815Y50.258
X82.815Y7.078
X84.201Y21.844
X84.455Y37.211
X84.582Y14.478
X85.355Y45.178
X85.355Y1.998
X87.895Y52.798
X87.895Y9.618
X90.435Y47.718
X90.435Y4.538
X92.975Y60.418
X92.975Y35.018
X92.975Y27.398
X95.515Y52.798
X95.515Y45.178
X95.515Y14.698
X100.595Y55.338
X100.595Y47.718
X100.595Y40.098
X100.595Y17.238
X100.595Y9.618
T2
X5.08Y20.32
X7.58Y20.32
X7.62Y55.88
X7.62Y43.18
X11.43Y55.88
X11.43Y43.18
X11.43Y11.43
X11.43Y3.81
X13.97Y39.37
X13.97Y36.83
X13.97Y29.21
X13.97Y22.86
X13.97Y17.78
X13.97Y11.43
X13.97Y3.81
X15.24Y55.88
X15.24Y43.18
X16.47Y39.37
X16.51Y36.83
X16.51Y29.21
X16.51Y11.43
X16.51Y3.81
X18.97Y22.86
X18.97Y17.78
X19.05Y55.88
X19.05Y43.18
X19.05Y36.83
X19.05Y29.21
X19.05Y11.43
X19.05Y3.81
X21.59Y36.83
X21.59Y29.21
X21.59Y11.43
X21.59Y3.81
X22.86Y55.88
X22.86Y43.18
X24.13Y36.83
X24.13Y29.21
X24.13Y11.43
X24.13Y3.81
X25.4Y22.75
X25.4Y17.87
X26.67Y55.88
X26.67Y43.18
X26.67Y36.83
X26.67Y29.21
X26.67Y11.43
X26.67Y3.81
X29.21Y36.83
X29.21Y29.21
X29.21Y11.43
X29.21Y3.81
X30.48Y55.88
X30.48Y43.18
X31.75Y36.83
X31.75Y29.21
X31.75Y19.05
X31.75Y11.43
X31.75Y3.81
X34.29Y55.88
X34.29Y43.18
X34.29Y11.43
X34.29Y3.81
X35.56Y39.37
X35.575Y36.83
X35.575Y29.21
X36.83Y11.43
X36.83Y3.81
X38.06Y39.37
X38.1Y55.88
X38.1Y43.18
X38.115Y36.83
X38.115Y29.21
X39.37Y11.43
X39.37Y3.81
X40.655Y36.83
X40.655Y29.21
X41.91Y55.88
X41.91Y43.18
X41.91Y11.43
X41.91Y3.81
X43.195Y36.83
X43.195Y29.21
X44.45Y19.05
X44.45Y11.43
X44.45Y3.81
X45.72Y55.88
X45.72Y43.18
X45.735Y36.83
X45.735Y29.21
X48.275Y36.83
X48.275Y29.21
X49.53Y55.88
X49.53Y43.18
X49.911Y21.59
X49.911Y19.05
X49.911Y16.51
X49.911Y13.97
X49.911Y11.43
X49.911Y8.89
X49.911Y6.35
X49.911Y3.81
X50.815Y36.83
X50.815Y29.21
X53.34Y55.88
X53.34Y43.18
X53.355Y36.83
X53.355Y29.21
X57.15Y55.88
X57.15Y43.18
X57.15Y39.37
X57.15Y25.4
X57.165Y36.83
X57.165Y29.21
X57.531Y21.59
X57.531Y19.05
X57.531Y16.51
X57.531Y13.97
X57.531Y11.43
X57.531Y8.89
X57.531Y6.35
X57.531Y3.81
X59.65Y39.37
X59.65Y25.4
X59.705Y36.83
X59.705Y29.21
X60.96Y55.88
X60.96Y43.18
X62.245Y36.83
X62.245Y29.21
X62.992Y22.225
X62.992Y18.415
X62.992Y14.605
X62.992Y10.795
X62.992Y6.985
X62.992Y3.175
X64.77Y55.88
X64.77Y43.18
X64.785Y36.83
X64.785Y29.21
X67.325Y36.83
X67.325Y29.21
X68.58Y55.88
X68.58Y43.18
X69.865Y36.83
X69.865Y29.21
X72.39Y55.88
X72.39Y43.18
X72.405Y36.83
X72.405Y29.21
X74.945Y36.83
X74.945Y29.21
X75.692Y22.225
X75.692Y18.415
X75.692Y14.605
X75.692Y10.795
X75.692Y6.985
X75.692Y3.175
X76.2Y55.88
X76.2Y43.18
X79.502Y6.985
X79.502Y3.175
X80.01Y55.88
X80.01Y43.18
X81.78Y36.83
X81.78Y29.21
X81.78Y21.59
X81.78Y13.97
X83.82Y55.88
X83.82Y43.18
X84.32Y39.37
X84.32Y34.29
X84.32Y31.75
X84.32Y26.67
X84.32Y24.13
X84.32Y19.05
X84.32Y16.51
X84.32Y11.43
X87.63Y55.88
X87.63Y43.18
X90.67Y39.37
X90.67Y34.29
X90.67Y31.75
X90.67Y26.67
X90.67Y24.13
X90.67Y19.05
X90.67Y16.51
X90.67Y11.43
X91.44Y55.88
X91.44Y43.18
X92.202Y6.985
X92.202Y3.175
X93.21Y36.83
X93.21Y29.21
X93.21Y21.59
X93.21Y13.97
X95.25Y55.88
X95.25Y43.18
T3
X11.43Y62.357
X13.97Y62.357
X16.51Y62.357
X19.05Y62.357
X21.59Y62.357
X24.13Y62.357
X26.67Y62.357
X29.21Y62.357
X41.91Y62.357
X44.45Y62.357
X46.99Y62.357
X49.53Y62.357
X52.07Y62.357
X54.61Y62.357
X57.15Y62.357
X59.69Y62.357
X72.517Y62.357
X75.057Y62.357
X77.597Y62.357
X80.137Y62.357
X82.677Y62.357
X85.217Y62.357
X87.757Y62.357
X90.297Y62.357
X99.06Y41.26
X99.06Y38.72
X99.06Y36.18
X99.06Y33.64
X99.06Y31.1
X99.06Y28.56
X99.06Y26.02
X99.06Y23.48
T4
X5.08Y34.93
X5.08Y29.85
T5
X3.81Y60.96
X3.81Y3.81
X97.79Y60.96
X97.79Y3.81
M30
